<?xml version="1.0" standalone="no"?>
<!DOCTYPE svg PUBLIC "-//W3C//DTD SVG 1.1//EN" "http://www.w3.org/Graphics/SVG/1.1/DTD/svg11.dtd" >
<svg>
<metadata>
Created by FontForge 20110222 at Wed Mar  5 20:25:10 2014
 By deploy user
(URW)++,Copyright 2004 by (URW)++ Design &#38; Development
</metadata>
<defs>
<font id="AlternateGotNo1DOT" horiz-adv-x="500" >
  <font-face 
    font-family="AlternateGotNo1DOT"
    font-weight="400"
    font-stretch="normal"
    units-per-em="1000"
    panose-1="4 0 5 0 0 0 0 0 0 0"
    ascent="800"
    descent="-200"
    x-height="497"
    cap-height="667"
    bbox="-77 -250 1000 858"
    underline-thickness="60"
    underline-position="-38"
    unicode-range="U+0020-FB04"
  />
<missing-glyph horiz-adv-x="173" 
 />
    <glyph glyph-name="ff" unicode="ff" horiz-adv-x="375" 
d="M50 0v417h-39v80h39v58q0 56 20 81q27 33 78 33q9 0 33 -2v-80q-5 1 -12 1q-32 0 -32 -33v-58h44v-80h-44v-417h-87zM237 0v417h-39v80h39v58q0 56 20 81q27 33 78 33q9 0 33 -2v-80q-5 1 -12 1q-32 0 -32 -33v-58h44v-80h-44v-417h-87z" />
    <glyph glyph-name="fi" unicode="fi" horiz-adv-x="329" 
d="M50 0v417h-39v80h39v58q0 60 25 87t80 27q27 0 79 -5v-80q-33 4 -58 4q-22 0 -30.5 -7t-8.5 -26v-58h155v-497h-87v417h-68v-417h-87z" />
    <glyph glyph-name="fl" unicode="fl" horiz-adv-x="329" 
d="M50 0v417h-39v80h39v58q0 61 25 87.5t83 26.5q14 0 21 -1l26 -1h87v-667h-87v586q-20 2 -34 2q-34 0 -34 -33v-58h41v-80h-41v-417h-87z" />
    <glyph glyph-name="ffi" unicode="ffi" horiz-adv-x="536" 
d="M50 0v417h-39v80h39v58q0 56 20 81q27 33 78 33q9 0 33 -2v-80q-5 1 -12 1q-32 0 -32 -33v-58h44v-80h-44v-417h-87zM238 0v417h-40v80h40v58q0 56 20 81q27 33 78 33q8 0 32 -2v-80q-4 1 -12 1q-31 0 -31 -33v-58h43v-80h-43v-417h-87zM499 497v-497h-87v497h87z
M499 667v-89h-87v89h87z" />
    <glyph glyph-name="ffl" unicode="ffl" horiz-adv-x="536" 
d="M50 0v417h-39v80h39v58q0 56 20 81q27 33 78 33q9 0 33 -2v-80q-5 1 -12 1q-32 0 -32 -33v-58h44v-80h-44v-417h-87zM238 0v417h-40v80h40v58q0 56 20 81q27 33 78 33q8 0 32 -2v-80q-4 1 -12 1q-31 0 -31 -33v-58h43v-80h-43v-417h-87zM412 0v667h87v-667h-87z" />
    <glyph glyph-name=".notdef" horiz-adv-x="173" 
 />
    <glyph glyph-name=".null" horiz-adv-x="0" 
 />
    <glyph glyph-name="nonmarkingreturn" horiz-adv-x="333" 
 />
    <glyph glyph-name="space" unicode=" " horiz-adv-x="173" 
 />
    <glyph glyph-name="exclam" unicode="!" horiz-adv-x="224" 
d="M81 187l-21 480h104l-24 -480h-59zM65 0v100h93v-100h-93z" />
    <glyph glyph-name="quotedbl" unicode="&#x22;" horiz-adv-x="352" 
d="M130 400h-69l-16 267h101zM292 400h-69l-16 267h101z" />
    <glyph glyph-name="numbersign" unicode="#" horiz-adv-x="366" 
d="M231 477l26 190h49l-26 -190h40l-9 -68h-41l-22 -159h45l-10 -68h-44l-25 -182h-49l25 182h-63l-25 -182h-49l26 182h-41l10 68h40l22 159h-43l11 67h41l27 191h48l-26 -190h63zM222 409h-63l-22 -159h63z" />
    <glyph glyph-name="dollar" unicode="$" horiz-adv-x="340" 
d="M136 648v59h75v-57q48 -14 68.5 -52.5t17.5 -111.5l-86 -9q0 37 -3 57q-5 39 -35 39q-38 0 -38 -58q0 -29 9.5 -49t52.5 -84l44 -64q63 -89 63 -161q0 -109 -93 -137v-60h-75v57q-30 8 -53 29q-22 22 -31 49t-9 74q0 18 1 33l87 5v-28q0 -48 9.5 -66.5t34.5 -18.5
q41 0 41 62q0 30 -11 54.5t-43 67.5l-43 64q-40 58 -56 97t-16 80q0 104 89 129z" />
    <glyph glyph-name="percent" unicode="%" horiz-adv-x="474" 
d="M179 579v-173q0 -47 -11 -67q-18 -29 -58 -29t-59 29q-11 20 -11 67v173q0 48 11 66q19 29 59 29q39 0 58 -29q11 -18 11 -66zM130 388v209q0 29 -20 29q-21 0 -21 -29v-209q0 -29 21 -29q20 0 20 29zM118 -33l189 733h49l-192 -733h-46zM434 262v-173q0 -47 -11 -67
q-18 -29 -58 -29t-59 29q-11 20 -11 67v173q0 48 11 66q19 29 59 29q39 0 58 -29q11 -18 11 -66zM385 71v209q0 29 -20 29q-21 0 -21 -29v-209q0 -29 21 -29q20 0 20 29z" />
    <glyph glyph-name="ampersand" unicode="&#x26;" horiz-adv-x="418" 
d="M377 93v-100q-41 12 -93 61q-25 -26 -41 -37q-36 -24 -80 -24q-52 0 -84 43t-32 112q0 89 70 192q-20 41 -33.5 95t-13.5 91q0 61 32 97.5t85 36.5q49 0 79.5 -33.5t30.5 -88.5q0 -84 -93 -206q30 -74 72 -133q18 47 30 114l79 -10q-10 -92 -54 -171q18 -25 46 -39z
M154 251q-27 -51 -27 -97q0 -36 12 -57t34 -21q28 0 59 39q-17 23 -43 69t-35 67zM171 418q49 77 49 122t-33 45q-40 0 -40 -56q0 -33 24 -111z" />
    <glyph glyph-name="quotesingle" unicode="'" horiz-adv-x="193" 
d="M133 400h-72l-16 267h104z" />
    <glyph glyph-name="parenleft" unicode="(" horiz-adv-x="273" 
d="M240 -88l-63 -36q-137 212 -137 414q0 203 137 414l63 -36q-113 -185 -113 -378t113 -378z" />
    <glyph glyph-name="parenright" unicode=")" horiz-adv-x="273" 
d="M33 668l62 36q138 -212 138 -414q0 -203 -138 -414l-62 36q113 185 113 378t-113 378z" />
    <glyph glyph-name="asterisk" unicode="*" horiz-adv-x="313" 
d="M110 574l-70 15l23 69l64 -30l-7 72h73l-7 -72l64 31l23 -70l-70 -15l48 -52l-59 -43l-35 61l-36 -61l-59 43z" />
    <glyph glyph-name="plus" unicode="+" horiz-adv-x="340" 
d="M303 379v-66h-97v-107h-73v107h-96v66h96v108h73v-108h97z" />
    <glyph glyph-name="comma" unicode="," horiz-adv-x="187" 
d="M47 100h93v-100l-42 -119h-51l34 119h-34v100z" />
    <glyph glyph-name="hyphen" unicode="-" horiz-adv-x="125" 
d="M0 209v78h125v-78h-125z" />
    <glyph glyph-name="period" unicode="." horiz-adv-x="187" 
d="M47 0v100h93v-100h-93z" />
    <glyph glyph-name="slash" unicode="/" horiz-adv-x="311" 
d="M17 -67l209 734h62l-212 -734h-59z" />
    <glyph glyph-name="zero" unicode="0" horiz-adv-x="340" 
d="M38 170v328q0 59 3.5 81t17.5 44q36 54 111 54t111 -54q14 -22 17.5 -44t3.5 -81v-328q0 -60 -3.5 -81.5t-17.5 -43.5q-36 -55 -111 -55t-111 55q-14 22 -17.5 44t-3.5 81zM209 131v405q0 29 -9 41.5t-30 12.5q-39 0 -39 -54v-405q0 -29 9 -41.5t30 -12.5q39 0 39 54z
" />
    <glyph glyph-name="one" unicode="1" horiz-adv-x="340" 
d="M130 0v537h-47v67q49 28 82 63h58v-667h-93z" />
    <glyph glyph-name="two" unicode="2" horiz-adv-x="340" 
d="M291 0h-250v77q26 49 94 186q45 92 58 136.5t13 107.5q0 49 -6.5 66.5t-25.5 17.5q-23 0 -30.5 -23t-8.5 -95h-87q-1 13 -1 29q0 86 34 130.5t98 44.5q58 0 88 -37t30 -108q0 -133 -85 -303q-1 -2 -77 -142h156v-87z" />
    <glyph glyph-name="three" unicode="3" horiz-adv-x="340" 
d="M41 191h91q-1 -12 -1 -26q0 -48 8.5 -68t29.5 -20q18 0 26 16q5 14 5 52v91q0 72 -61 72h-13v85q37 1 53 17q21 22 21 54v89q0 37 -29 37q-27 0 -31 -25q-3 -17 -3 -75h-87v24q0 163 118 163q58 0 90 -42q28 -37 28 -122q0 -82 -8 -108t-40 -50q27 -12 37.5 -26.5t14 -46
t3.5 -111.5q0 -56 -6.5 -85.5t-23.5 -52.5q-34 -43 -100 -43q-63 0 -93 39t-30 121q0 22 1 41z" />
    <glyph glyph-name="four" unicode="4" horiz-adv-x="340" 
d="M174 0v149h-151v87l151 431h93v-431h37v-87h-37v-149h-93zM174 236v241l-73 -241h73z" />
    <glyph glyph-name="five" unicode="5" horiz-adv-x="340" 
d="M44 189h87v-27q0 -85 38 -85q34 0 34 53v201q0 48 -29 48t-43 -54h-79l10 342h217l-3 -87h-138l-7 -161q37 47 74 47q43 0 67 -40t24 -113v-155q0 -51 -6 -76.5t-23 -46.5q-35 -45 -101 -45q-59 0 -91.5 40.5t-32.5 116.5q0 25 2 42z" />
    <glyph glyph-name="six" unicode="6" horiz-adv-x="340" 
d="M291 497h-88q1 13 1 27q0 66 -36 66q-19 0 -29 -17q-6 -10 -6 -46v-148q36 39 73 39q43 0 68 -35q15 -21 20 -47.5t5 -84.5v-112q0 -70 -35 -109.5t-97 -39.5q-58 0 -92.5 38.5t-34.5 103.5v407q0 63 34 100.5t91 37.5q39 0 69 -19.5t44 -53.5q13 -33 13 -107zM133 316
v-199q0 -17 10 -28.5t26 -11.5q37 0 37 48v144q0 41 -6.5 56t-24.5 15q-23 0 -42 -24z" />
    <glyph glyph-name="seven" unicode="7" horiz-adv-x="340" 
d="M88 0l98 580h-140v87h238v-53l-99 -614h-97z" />
    <glyph glyph-name="eight" unicode="8" horiz-adv-x="340" 
d="M241 355q27 -11 38 -27t14.5 -48t3.5 -110q0 -95 -31 -137q-33 -43 -96 -43q-64 0 -97 43q-30 39 -30 137q0 80 3.5 111.5t14 47t38.5 26.5q-33 24 -41 50t-8 109q0 84 28 121q31 42 92 42t92 -42q27 -38 27 -122q0 -82 -8 -108t-40 -50zM137 543v-88q0 -29 7.5 -41.5
t25.5 -12.5q17 0 24.5 12.5t7.5 41.5v88q0 29 -7.5 41.5t-24.5 12.5q-18 0 -25.5 -12.5t-7.5 -41.5zM134 247v-112q0 -34 8 -46.5t28 -12.5t28 13.5t8 45.5v112q0 32 -8 45.5t-28 13.5t-28 -12.5t-8 -46.5z" />
    <glyph glyph-name="nine" unicode="9" horiz-adv-x="340" 
d="M48 170h88q-1 -13 -1 -27q0 -66 36 -66q19 0 29 17q6 10 6 46v148q-36 -39 -73 -39q-43 0 -68 35q-15 21 -20 47.5t-5 84.5v112q0 70 35 109.5t97 39.5q58 0 92.5 -38.5t34.5 -103.5v-407q0 -63 -34 -100.5t-91 -37.5q-39 0 -69 19.5t-44 53.5q-13 33 -13 107zM206 351
v199q0 17 -10 28.5t-26 11.5q-37 0 -37 -48v-144q0 -41 6.5 -56t24.5 -15q23 0 42 24z" />
    <glyph glyph-name="colon" unicode=":" horiz-adv-x="187" 
d="M47 351v100h93v-100h-93zM47 0v100h93v-100h-93z" />
    <glyph glyph-name="semicolon" unicode=";" horiz-adv-x="187" 
d="M47 351v100h93v-100h-93zM47 100h93v-100l-42 -119h-51l34 119h-34v100z" />
    <glyph glyph-name="less" unicode="&#x3c;" 
d="M466 585v-93l-333 -157l333 -156v-93l-433 209v81z" />
    <glyph glyph-name="equal" unicode="=" horiz-adv-x="340" 
d="M303 312v-66h-266v66h266zM303 445v-66h-266v66h266z" />
    <glyph glyph-name="greater" unicode="&#x3e;" 
d="M34 86v93l333 157l-333 156v93l433 -209v-81z" />
    <glyph glyph-name="question" unicode="?" horiz-adv-x="325" 
d="M125 183v106q0 67 6 93t41 109q24 56 24 71q0 12 -9 20.5t-22 8.5q-27 0 -47 -63l-78 26q30 120 130 120q52 0 84.5 -32t32.5 -85q0 -30 -8 -51t-52 -105q-25 -47 -25 -139v-79h-77zM116 0v100h93v-100h-93z" />
    <glyph glyph-name="at" unicode="@" horiz-adv-x="404" 
d="M360 177h-52l-9 28q-27 -38 -61 -38q-65 0 -65 84v188q0 43 18.5 67t51.5 24q26 0 49 -26v21q0 41 -23.5 66t-61.5 25t-64 -29q-14 -16 -18.5 -34.5t-4.5 -57.5v-311q0 -61 16 -89q24 -44 75 -44q45 0 81 44l41 -46q-46 -59 -122 -59q-71 0 -112 41q-46 46 -46 131v349
q0 80 40 123t114 43q72 0 112.5 -42.5t40.5 -118.5v-339zM242 423v-152q0 -21 5.5 -29.5t19.5 -8.5t19.5 8.5t5.5 29.5v152q0 21 -5.5 29.5t-19.5 8.5t-19.5 -8.5t-5.5 -29.5z" />
    <glyph glyph-name="A" unicode="A" horiz-adv-x="352" 
d="M133 150l-16 -150h-90l91 667h120l87 -667h-91l-17 150h-84zM207 237l-32 309l-32 -309h64z" />
    <glyph glyph-name="B" unicode="B" horiz-adv-x="351" 
d="M40 667h84q60 0 86 -7.5t51 -32.5q41 -41 41 -128q0 -63 -13 -94.5t-47 -53.5q41 -15 56.5 -48.5t15.5 -106.5q0 -108 -35 -148q-41 -48 -146 -48h-93v667zM133 87h9q49 0 64 20.5t15 87.5t-15 87.5t-64 20.5h-9v-216zM133 390h13q41 0 53 19t12 82q0 53 -13 71t-52 18
h-13v-190z" />
    <glyph glyph-name="C" unicode="C" horiz-adv-x="340" 
d="M210 237h93q0 -14 0.5 -29t1 -24t0.5 -17q0 -177 -135 -177q-131 0 -131 160v367q0 160 131 160q135 0 135 -174q0 -27 -2 -53h-93q2 21 2 46q0 55 -8.5 74.5t-33.5 19.5q-23 0 -30.5 -15t-7.5 -58v-367q0 -43 7.5 -58t30.5 -15q25 0 33.5 19t8.5 72q0 7 -2 69z" />
    <glyph glyph-name="D" unicode="D" horiz-adv-x="343" 
d="M40 667h99q49 0 76 -8t47 -29q42 -40 42 -116v-361q0 -75 -42 -116q-20 -21 -47 -29t-76 -8h-99v667zM133 87h12q38 0 52 14t14 52v361q0 38 -14.5 52t-51.5 14h-12v-493z" />
    <glyph glyph-name="E" unicode="E" horiz-adv-x="294" 
d="M40 667h225v-87h-132v-187h92v-87h-92v-219h140v-87h-233v667z" />
    <glyph glyph-name="F" unicode="F" horiz-adv-x="278" 
d="M40 667h225v-87h-132v-187h92v-87h-92v-306h-93v667z" />
    <glyph glyph-name="G" unicode="G" horiz-adv-x="343" 
d="M303 339v-339h-50l-14 46q-38 -56 -86 -56q-29 0 -55 16t-40 43q-19 35 -19 115v353q0 160 132 160q134 0 134 -174q0 -27 -2 -53h-93q2 22 2 46q0 55 -8.5 74.5t-33.5 19.5q-23 0 -30.5 -15t-7.5 -58v-353q0 -54 7 -68q9 -20 31 -20q24 0 35 25q5 14 5 63v96h-41v79h134
z" />
    <glyph glyph-name="H" unicode="H" horiz-adv-x="342" 
d="M209 306h-76v-306h-93v667h93v-274h76v274h93v-667h-93v306z" />
    <glyph glyph-name="I" unicode="I" horiz-adv-x="173" 
d="M133 667v-667h-93v667h93z" />
    <glyph glyph-name="J" unicode="J" horiz-adv-x="202" 
d="M69 667h93v-507q0 -77 -11 -103q-16 -34 -44.5 -45.5t-96.5 -11.5v92h7q30 0 41 12t11 46v517z" />
    <glyph glyph-name="K" unicode="K" horiz-adv-x="359" 
d="M235 442l104 -442h-97l-69 315l-40 -109v-206h-93v667h93v-251l91 251h95z" />
    <glyph glyph-name="L" unicode="L" horiz-adv-x="281" 
d="M40 0v667h93v-580h132v-87h-225z" />
    <glyph glyph-name="M" unicode="M" horiz-adv-x="434" 
d="M216 335l66 332h112v-667h-80v471l-78 -471h-40l-78 471v-471h-78v667h110z" />
    <glyph glyph-name="N" unicode="N" horiz-adv-x="376" 
d="M336 667v-667h-93l-110 350v-350h-93v667h80l123 -393v393h93z" />
    <glyph glyph-name="O" unicode="O" horiz-adv-x="341" 
d="M303 498v-328q0 -60 -3.5 -81.5t-17.5 -43.5q-36 -55 -111 -55t-111 55q-14 22 -17.5 44t-3.5 81v328q0 59 3.5 81t17.5 44q36 54 111 54t111 -54q14 -22 17.5 -44t3.5 -81zM210 131v405q0 29 -9 41.5t-30 12.5q-39 0 -39 -54v-405q0 -29 9 -41.5t30 -12.5q39 0 39 54z
" />
    <glyph glyph-name="P" unicode="P" horiz-adv-x="329" 
d="M40 667h88q62 0 91 -9.5t49 -36.5q20 -26 27 -58t7 -95q0 -66 -7.5 -98.5t-27.5 -55.5q-36 -43 -121 -43h-13v-271h-93v667zM133 358h13q42 0 54 20t12 91q0 70 -12.5 90.5t-53.5 20.5h-13v-222z" />
    <glyph glyph-name="Q" unicode="Q" horiz-adv-x="341" 
d="M303 498v-328q0 -80 -11 -106q11 -14 29 -20v-92h-9q-59 0 -90 47q-26 -9 -51 -9q-75 0 -111 55q-14 22 -17.5 44t-3.5 81v328q0 59 3.5 81t17.5 44q36 54 111 54t111 -54q14 -22 17.5 -44t3.5 -81zM210 131v405q0 29 -9 41.5t-30 12.5q-39 0 -39 -54v-405q0 -29 9 -41.5
t30 -12.5q39 0 39 54z" />
    <glyph glyph-name="R" unicode="R" horiz-adv-x="348" 
d="M40 667h91q57 0 87.5 -10.5t49.5 -38.5q34 -46 34 -137q0 -63 -9 -94t-38 -68l65 -319h-100l-54 287q-14 -3 -33 -4v-283h-93v667zM133 377h13q44 0 57 25q8 15 8 89q0 54 -13 71.5t-52 17.5h-13v-203z" />
    <glyph glyph-name="S" unicode="S" horiz-adv-x="324" 
d="M26 193l92 4v-29q0 -52 10.5 -71.5t37.5 -19.5q42 0 42 66q0 33 -11.5 59t-45.5 72l-46 68q-43 65 -59.5 106t-16.5 85q0 66 37 105t100 39q47 0 79.5 -25.5t42.5 -71.5q5 -25 5 -83l-91 -9q0 39 -3 60q-5 42 -39 42q-39 0 -39 -62q0 -31 10 -52t56 -91l47 -68
q67 -98 67 -188q0 -67 -35.5 -103t-100.5 -36q-73 0 -111 51q-29 40 -29 116q0 20 1 36z" />
    <glyph glyph-name="T" unicode="T" horiz-adv-x="285" 
d="M94 0v580h-87v87h271v-87h-91v-580h-93z" />
    <glyph glyph-name="U" unicode="U" horiz-adv-x="344" 
d="M133 667v-536q0 -54 39 -54q21 0 30 12.5t9 41.5v536h93v-498q0 -59 -3.5 -81t-17.5 -44q-36 -54 -111 -54t-111 54q-14 22 -17.5 44t-3.5 81v498h93z" />
    <glyph glyph-name="V" unicode="V" horiz-adv-x="316" 
d="M206 0h-92l-101 667h92l56 -406l53 406h89z" />
    <glyph glyph-name="W" unicode="W" horiz-adv-x="467" 
d="M105 0l-85 667h85l47 -379l45 379h73l45 -393l47 393h85l-85 -667h-81l-49 359l-44 -359h-83z" />
    <glyph glyph-name="X" unicode="X" horiz-adv-x="350" 
d="M120 349l-92 318h94l55 -206l54 206h90l-92 -318l101 -349h-101l-54 221l-55 -221h-100z" />
    <glyph glyph-name="Y" unicode="Y" horiz-adv-x="327" 
d="M117 277l-104 390h101l51 -246l51 246h98l-104 -390v-277h-93v277z" />
    <glyph glyph-name="Z" unicode="Z" horiz-adv-x="313" 
d="M27 0v87l166 493h-147v87h240v-87l-166 -493h166v-87h-259z" />
    <glyph glyph-name="bracketleft" unicode="[" horiz-adv-x="273" 
d="M208 667v-87h-54v-601h54v-87h-136v775h136z" />
    <glyph glyph-name="backslash" unicode="\" horiz-adv-x="311" 
d="M294 -67h-59l-212 734h63z" />
    <glyph glyph-name="bracketright" unicode="]" horiz-adv-x="273" 
d="M65 667h136v-775h-136v87h54v601h-54v87z" />
    <glyph glyph-name="asciicircum" unicode="^" 
d="M115 369h-87l169 300h106l169 -300h-87l-135 236z" />
    <glyph glyph-name="underscore" unicode="_" 
d="M0 -68h500v-60h-500v60z" />
    <glyph glyph-name="grave" unicode="`" 
d="M294 578h-70l-72 75h97z" />
    <glyph glyph-name="a" unicode="a" horiz-adv-x="306" 
d="M276 0h-90q-4 14 -6 40q-31 -47 -74 -47q-76 0 -76 126q0 76 42 124q16 17 27 26t64 43l17 11v56q0 29 -5 37t-22 8q-19 0 -26 -14t-10 -59h-84q6 73 25 103q29 50 96 50q55 0 84 -30.5t29 -88.5v-305q0 -52 9 -80zM180 100v155q-35 -29 -49 -57.5t-14 -71.5
q0 -52 27 -52q19 0 36 26z" />
    <glyph glyph-name="b" unicode="b" horiz-adv-x="309" 
d="M37 0v667h87v-217q46 54 82 54q35 0 52 -29q14 -22 14 -88v-277q0 -66 -14 -88q-17 -29 -52 -29q-36 0 -82 54v-47h-87zM124 404v-311q24 -20 39 -20q22 0 22 37v277q0 37 -22 37q-15 0 -39 -20z" />
    <glyph glyph-name="c" unicode="c" horiz-adv-x="299" 
d="M273 323h-87v20v22q0 33 -7 46t-26 13q-31 0 -31 -51v-249q0 -51 31 -51q19 0 26 13t7 46v22v28h87q1 -42 1 -53q0 -66 -31.5 -101t-90.5 -35q-57 0 -90 42q-27 34 -27 98v231q0 64 27 98q33 42 90 42q59 0 90.5 -35t31.5 -100q0 -12 -1 -46z" />
    <glyph glyph-name="d" unicode="d" horiz-adv-x="309" 
d="M272 0h-85l-2 47q-46 -54 -82 -54q-35 0 -52 29q-14 22 -14 88v277q0 66 14 88q17 29 52 29q36 0 82 -54v217h87v-667zM185 93v311q-24 20 -39 20q-22 0 -22 -37v-277q0 -37 22 -37q15 0 39 20z" />
    <glyph glyph-name="e" unicode="e" horiz-adv-x="309" 
d="M185 174h87q1 -34 1 -46q0 -64 -31.5 -99.5t-89.5 -35.5q-57 0 -90 42q-27 34 -27 98v232q0 139 120 139q55 0 86 -33t31 -91v-146h-150v-110q0 -51 31 -51q18 0 25 13t7 46v22v20zM122 303h63v84q0 37 -31 37q-32 0 -32 -37v-84z" />
    <glyph glyph-name="f" unicode="f" horiz-adv-x="187" 
d="M50 0v417h-39v80h39v58q0 56 20 81q27 33 78 33q9 0 33 -2v-80q-5 1 -12 1q-32 0 -32 -33v-58h44v-80h-44v-417h-87z" />
    <glyph glyph-name="g" unicode="g" horiz-adv-x="305" 
d="M302 504v-82q-13 4 -21 4q-12 0 -26 -9v-34v-122q0 -64 -27 -99t-76 -35q-15 0 -23 1q-25 -6 -25 -24q0 -19 24 -27q11 -4 77 -13q47 -6 74.5 -36.5t27.5 -76.5q0 -58 -42 -93t-111 -35q-64 0 -101 24t-37 66q0 49 74 87q-33 11 -46 24t-13 35q0 47 59 81q-49 37 -49 107
v144q0 52 29 82.5t77 30.5q57 0 90 -46q24 42 65 46zM179 244v144q0 37 -31 37t-31 -37v-144q0 -38 31 -38t31 38zM146 -8q-25 -13 -34.5 -24t-9.5 -27q0 -21 16 -33t43 -12q29 0 47 14t18 36q0 23 -15.5 32t-64.5 14z" />
    <glyph glyph-name="h" unicode="h" horiz-adv-x="310" 
d="M37 0v667h87v-217q46 54 82 54q35 0 52 -29q14 -22 14 -88v-387h-87v387q0 37 -22 37q-15 0 -39 -20v-404h-87z" />
    <glyph glyph-name="i" unicode="i" horiz-adv-x="161" 
d="M124 497v-497h-87v497h87zM124 667v-89h-87v89h87z" />
    <glyph glyph-name="j" unicode="j" horiz-adv-x="164" 
d="M127 497v-497q0 -66 -5 -92t-22 -44q-25 -28 -74 -28q-17 0 -41 7v83q12 -3 17 -3q23 0 30.5 15t7.5 62v497h87zM127 667v-89h-87v89h87z" />
    <glyph glyph-name="k" unicode="k" horiz-adv-x="306" 
d="M208 338l82 -338h-86l-52 241l-28 -69v-172h-87v667h87v-362l66 192h82z" />
    <glyph glyph-name="l" unicode="l" horiz-adv-x="161" 
d="M37 0v667h87v-667h-87z" />
    <glyph glyph-name="m" unicode="m" horiz-adv-x="459" 
d="M37 0v497h85l2 -47q26 31 44.5 42.5t41.5 11.5t36.5 -12t24.5 -42q34 54 80 54q38 0 56 -29q14 -22 14 -88v-387h-87v387q0 37 -23 37q-15 0 -38 -20v-404h-87v387q0 37 -22 37q-16 0 -40 -20v-404h-87z" />
    <glyph glyph-name="n" unicode="n" horiz-adv-x="310" 
d="M37 497h85l2 -43q47 50 81 50q35 0 53 -28q14 -22 14 -86v-390h-87v387q0 37 -22 37q-15 0 -39 -20v-404h-87v497z" />
    <glyph glyph-name="o" unicode="o" horiz-adv-x="308" 
d="M272 364v-231q0 -140 -118 -140q-119 0 -119 140v231q0 140 119 140q118 0 118 -140zM122 378v-259q0 -46 32 -46q31 0 31 46v259q0 46 -31 46q-32 0 -32 -46z" />
    <glyph glyph-name="p" unicode="p" horiz-adv-x="309" 
d="M37 497h85l2 -47q46 54 82 54q35 0 52 -29q14 -22 14 -88v-277q0 -66 -14 -88q-17 -29 -52 -29q-36 0 -82 54v-217h-87v667zM124 404v-311q24 -20 39 -20q22 0 22 37v277q0 37 -22 37q-15 0 -39 -20z" />
    <glyph glyph-name="q" unicode="q" horiz-adv-x="309" 
d="M272 497v-667h-87v217q-46 -54 -82 -54q-35 0 -52 29q-14 22 -14 88v277q0 66 14 88q17 29 52 29q36 0 82 -54l2 47h85zM185 93v311q-24 20 -39 20q-22 0 -22 -37v-277q0 -37 22 -37q15 0 39 20z" />
    <glyph glyph-name="r" unicode="r" horiz-adv-x="213" 
d="M37 497h87v-62q34 72 88 69v-97q-24 4 -32 4q-56 0 -56 -74v-337h-87v497z" />
    <glyph glyph-name="s" unicode="s" horiz-adv-x="274" 
d="M254 378l-83 -6v7q0 45 -29 45t-29 -47q0 -38 36 -77l35 -36q40 -42 56 -74t16 -69q0 -58 -33 -93t-87 -35t-85.5 32.5t-31.5 88.5q0 7 1 12l84 6q-1 -8 -1 -16q0 -43 33 -43q15 0 24 11.5t9 31.5q0 23 -9.5 41t-40.5 50l-34 35q-57 60 -57 137q0 125 120 125
q73 0 97 -60q9 -24 9 -66z" />
    <glyph glyph-name="t" unicode="t" horiz-adv-x="213" 
d="M205 417h-61v-292q0 -46 45 -46l16 1v-80q-35 -7 -50 -7q-98 0 -98 102v322h-42v80h42v136h87v-136h61v-80z" />
    <glyph glyph-name="u" unicode="u" horiz-adv-x="310" 
d="M272 0h-80l-7 43q-47 -50 -81 -50q-36 0 -53 28q-14 22 -14 86v390h87v-387q0 -37 22 -37q15 0 39 20v404h87v-497z" />
    <glyph glyph-name="v" unicode="v" horiz-adv-x="282" 
d="M266 497l-84 -497h-82l-83 497h83l41 -287l41 287h84z" />
    <glyph glyph-name="w" unicode="w" horiz-adv-x="417" 
d="M324 0h-67l-47 285l-49 -285h-66l-78 497h78l40 -266l42 266h64l44 -271l39 271h76z" />
    <glyph glyph-name="x" unicode="x" horiz-adv-x="275" 
d="M180 262l82 -262h-82l-44 159l-41 -159h-82l77 262l-71 235h82l35 -142l34 142h82z" />
    <glyph glyph-name="y" unicode="y" horiz-adv-x="284" 
d="M268 497l-91 -565q-17 -109 -127 -109q-10 0 -26 3v83h8q35 0 49 17t14 59q0 29 -9 87l-69 425h85l40 -292l42 292h84z" />
    <glyph glyph-name="z" unicode="z" horiz-adv-x="273" 
d="M246 80v-80h-219v74l128 343h-113v80h204v-74l-124 -343h124z" />
    <glyph glyph-name="braceleft" unicode="{" horiz-adv-x="313" 
d="M183 493v-99q0 -47 -12 -72.5t-43 -42.5q31 -17 43 -43t12 -74v-96q0 -56 19 -74.5t77 -19.5v-80q-79 1 -104 6.5t-45 26.5q-32 35 -32 115v110q0 44 -13 65t-44 30v72q31 9 44 30t13 61v123q0 74 34 105q20 20 46.5 25.5t100.5 5.5v-84q-57 -1 -76.5 -19.5t-19.5 -70.5z
" />
    <glyph glyph-name="bar" unicode="|" 
d="M203 667h94v-834h-94v834z" />
    <glyph glyph-name="braceright" unicode="}" horiz-adv-x="313" 
d="M129 66v96q0 48 12 74t43 43q-31 17 -43 42.5t-12 72.5v99q0 52 -19.5 70.5t-75.5 19.5v84q73 0 99.5 -5.5t46.5 -25.5q34 -31 34 -105v-123q0 -40 13 -61t45 -30v-72q-32 -9 -45 -30t-13 -65v-110q0 -80 -32 -115q-20 -21 -45 -26.5t-103 -6.5v80q57 1 76 19.5t19 74.5z
" />
    <glyph glyph-name="asciitilde" unicode="~" horiz-adv-x="667" 
d="M143 574l-49 39q52 118 139 118q38 0 115 -38q66 -31 89 -31q49 0 88 71l49 -39q-51 -116 -147 -116q-20 0 -40 7.5t-78 35.5q-54 25 -80 25q-47 0 -86 -72z" />
    <glyph glyph-name="exclamdown" unicode="&#xa1;" horiz-adv-x="224" 
d="M81 310h59l24 -480h-104zM65 497h93v-100h-93v100z" />
    <glyph glyph-name="cent" unicode="&#xa2;" horiz-adv-x="340" 
d="M207 86v-86h-68v85q-25 6 -45 24q-40 36 -40 113v230q0 114 85 136v79h68v-80q85 -24 85 -130q0 -11 -1 -46h-87v20v22q0 33 -7 46t-25 13q-31 0 -31 -51v-249q0 -51 31 -51q18 0 25 13t7 46v23v28h87q1 -42 1 -53q0 -110 -85 -132z" />
    <glyph glyph-name="sterling" unicode="&#xa3;" horiz-adv-x="340" 
d="M176 390h83v-80h-69q2 -13 2 -39q0 -109 -50 -195q25 7 37 7q4 0 37 -4q16 -2 23 -2q33 0 68 16l23 -78q-31 -16 -46 -20.5t-43 -4.5q-31 0 -75 9q-24 5 -38 5q-18 0 -69 -14l-31 80q70 64 70 184q0 29 -4 56h-56v80h40q-2 9 -8 27q-27 89 -27 121q0 59 38.5 99t96.5 40
t94 -40t36 -105q0 -11 -3 -35h-85q1 9 1 23q0 70 -43 70q-44 0 -44 -52q0 -20 4.5 -36.5t29.5 -86.5q5 -15 8 -25z" />
    <glyph glyph-name="currency" unicode="&#xa4;" horiz-adv-x="402" 
d="M276 454l39 39l47 -46l-42 -42q18 -33 18 -72q0 -35 -17 -68l43 -43l-52 -51l-40 40q-32 -21 -71 -21t-74 22l-38 -38l-47 46l41 41q-19 33 -19 72q0 32 16 70l-42 42l51 52l40 -41q36 21 72 21q38 0 75 -23zM200 412q-29 0 -50.5 -24t-21.5 -55q0 -33 21.5 -56.5
t51.5 -23.5q29 0 51 23.5t22 54.5q0 34 -21.5 57.5t-52.5 23.5z" />
    <glyph glyph-name="yen" unicode="&#xa5;" horiz-adv-x="340" 
d="M104 377l-77 290h95l49 -243l48 243h94l-78 -290h52v-80h-73v-297h-89v297h-72v80h51z" />
    <glyph glyph-name="brokenbar" unicode="&#xa6;" 
d="M203 667h94v-338h-94v338zM203 153h94v-320h-94v320z" />
    <glyph glyph-name="section" unicode="&#xa7;" horiz-adv-x="354" 
d="M298 527h-88v21q0 50 -31 50q-12 0 -19.5 -7.5t-7.5 -19.5q0 -14 19 -39l113 -150q30 -39 30 -88q0 -74 -63 -103l10 -12q29 -39 29 -84q0 -46 -33.5 -75.5t-86.5 -29.5q-58 0 -91.5 33t-33.5 91q0 9 1 19h90q-1 -8 -1 -17q0 -47 33 -47q28 0 28 31q0 14 -14 34l-97 127
q-45 57 -45 105q0 68 68 101l-9 11q-38 43 -38 94q0 47 33 76t87 29q53 0 85.5 -33t32.5 -88q0 -12 -1 -29zM208 336l-49 64q-27 -14 -27 -35q0 -16 12 -33l56 -75q25 13 25 40q0 16 -17 39z" />
    <glyph glyph-name="dieresis" unicode="&#xa8;" 
d="M229 667v-89h-77v89h77zM349 667v-89h-77v89h77z" />
    <glyph glyph-name="copyright" unicode="&#xa9;" horiz-adv-x="780" 
d="M410 281h63q1 -25 1 -44q0 -108 -85 -108q-84 0 -84 97v217q0 98 84 98q85 0 85 -106q0 -18 -1 -35h-63v31q0 30 -4.5 41t-16.5 11t-16 -8t-4 -32v-217q0 -24 4 -31.5t16 -7.5t16.5 10.5t4.5 39.5v44zM394 679q139 0 239.5 -102t100.5 -244q0 -143 -101 -244t-243 -101
t-243.5 101t-101.5 244q0 145 101.5 245.5t247.5 100.5zM394 629q-124 0 -209.5 -86t-85.5 -210q0 -122 85.5 -208.5t205.5 -86.5t205 86.5t85 208.5q0 121 -84.5 208.5t-201.5 87.5z" />
    <glyph glyph-name="ordfeminine" unicode="&#xaa;" horiz-adv-x="207" 
d="M185 267h-65l-2 14l-1 3q-21 -21 -43 -21q-51 0 -51 77q0 48 27 76q13 14 58 41l8 6v31q0 15 -2 19t-11 4q-10 0 -13.5 -8t-4.5 -35h-60q4 47 16 66q19 31 63 31q35 0 54.5 -19.5t19.5 -54.5v-179q0 -31 7 -51zM116 330v83q-31 -27 -31 -69q0 -27 13 -27q9 0 18 13z" />
    <glyph glyph-name="guillemotleft" unicode="&#xab;" horiz-adv-x="279" 
d="M239 403v-119l-26 -34l26 -34v-119l-76 81v144zM116 397v-113l-26 -34l26 -34v-113l-76 75v144z" />
    <glyph glyph-name="logicalnot" unicode="&#xac;" 
d="M374 0v198h-341v83h433v-281h-92z" />
    <glyph glyph-name="uni00AD" unicode="&#xad;" horiz-adv-x="125" 
d="M0 209v78h125v-78h-125z" />
    <glyph glyph-name="registered" unicode="&#xae;" horiz-adv-x="767" 
d="M302 534h59q64 0 87 -30q21 -28 21 -83q0 -38 -5.5 -56.5t-22.5 -40.5l40 -190h-68l-33 169q-7 -2 -14 -2v-167h-64v400zM366 363h5q24 0 30 10.5t6 52.5q0 31 -6.5 40.5t-29.5 9.5h-5v-113zM388 679q139 0 239.5 -102t100.5 -244q0 -143 -101 -244t-243 -101t-243.5 101
t-101.5 244q0 145 101.5 245.5t247.5 100.5zM388 629q-124 0 -209.5 -86t-85.5 -210q0 -122 85.5 -208.5t205.5 -86.5t205 86.5t85 208.5q0 121 -84.5 208.5t-201.5 87.5z" />
    <glyph glyph-name="macron" unicode="&#xaf;" 
d="M168 574v67h164v-67h-164z" />
    <glyph glyph-name="degree" unicode="&#xb0;" horiz-adv-x="368" 
d="M184 674q58 0 97.5 -42t39.5 -104q0 -58 -40.5 -100t-96.5 -42q-57 0 -97 42t-40 101q0 60 40 102.5t97 42.5zM183 609q-29 0 -50.5 -24t-21.5 -55q0 -33 21.5 -57t51.5 -24q29 0 51 23.5t22 55.5q0 34 -21.5 57.5t-52.5 23.5z" />
    <glyph glyph-name="plusminus" unicode="&#xb1;" horiz-adv-x="340" 
d="M303 134v-66h-266v66h266zM303 357v-66h-97v-106h-73v106h-96v66h96v109h73v-109h97z" />
    <glyph glyph-name="twosuperior" unicode="&#xb2;" horiz-adv-x="230" 
d="M195 266h-164v50q17 30 60 114q27 53 36 81.5t9 60.5q0 44 -18 44q-13 0 -17 -13.5t-4 -56.5h-62v20q0 107 86 107q37 0 57.5 -23t20.5 -66q0 -78 -54 -181l-46 -79h96v-58z" />
    <glyph glyph-name="threesuperior" unicode="&#xb3;" horiz-adv-x="230" 
d="M33 386h64q-1 -9 -1 -18q0 -27 4.5 -38t16.5 -11q10 0 13 7t3 29v54q0 40 -36 40q-7 0 -11 -1v57q47 1 47 39v52q0 19 -15 19q-12 0 -15.5 -7.5t-3.5 -33.5q0 -10 1 -18h-62v18q0 99 78 99q39 0 60 -26q18 -23 18 -75q0 -47 -4.5 -63t-22.5 -29q21 -9 26 -26.5t5 -82.5
q0 -60 -19 -83q-22 -27 -65 -27q-82 0 -82 98q0 14 1 27z" />
    <glyph glyph-name="acute" unicode="&#xb4;" 
d="M199 578l46 75h96l-72 -75h-70z" />
    <glyph glyph-name="mu" unicode="&#xb5;" horiz-adv-x="310" 
d="M185 497h87v-497h-80l-6 36q-10 -43 -36 -43q-22 0 -26 24v-187h-87v667h87v-368q1 -43 8 -53q8 -12 21 -12q22 0 32 29v404z" />
    <glyph glyph-name="paragraph" unicode="&#xb6;" horiz-adv-x="418" 
d="M189 -100v420q-63 2 -106 52t-43 120q0 77 47.5 126t121.5 49h172v-30h-40v-737h-48v737h-55v-737h-49z" />
    <glyph glyph-name="periodcentered" unicode="&#xb7;" horiz-adv-x="187" 
d="M47 207v100h93v-100h-93z" />
    <glyph glyph-name="cedilla" unicode="&#xb8;" 
d="M289 -47v-68l-22 -55h-47l17 55h-26v68h78z" />
    <glyph glyph-name="onesuperior" unicode="&#xb9;" horiz-adv-x="230" 
d="M87 267v317h-30v44q33 18 54 39h41v-400h-65z" />
    <glyph glyph-name="ordmasculine" unicode="&#xba;" horiz-adv-x="208" 
d="M182 485v-136q0 -86 -77 -86q-78 0 -78 86v136q0 86 77 86q78 0 78 -86zM89 493v-152q0 -24 16 -24q15 0 15 24v152q0 24 -15 24q-16 0 -16 -24z" />
    <glyph glyph-name="guillemotright" unicode="&#xbb;" horiz-adv-x="279" 
d="M40 403l76 -81v-144l-76 -81v119l26 34l-26 34v119zM163 397l76 -75v-144l-76 -75v113l26 34l-26 34v113z" />
    <glyph glyph-name="onequarter" unicode="&#xbc;" horiz-adv-x="545" 
d="M87 267v317h-30v44q33 18 54 39h41v-400h-65zM154 -33l188 733h50l-192 -733h-46zM429 0v88h-95v55l96 257h64v-254h23v-58h-23v-88h-65zM431 142v151l-48 -151h48z" />
    <glyph glyph-name="onehalf" unicode="&#xbd;" horiz-adv-x="545" 
d="M87 267v317h-30v44q33 18 54 39h41v-400h-65zM154 -33l188 733h50l-192 -733h-46zM510 0h-164v50q16 28 60 114q27 53 36 81t9 60q0 44 -18 44q-13 0 -17 -13.5t-4 -56.5h-62v20q0 107 86 107q37 0 57.5 -23t20.5 -66q0 -77 -54 -180q0 -1 -5 -9.5t-17 -29t-24 -40.5h96
v-58z" />
    <glyph glyph-name="threequarters" unicode="&#xbe;" horiz-adv-x="545" 
d="M33 386h64q-1 -9 -1 -18q0 -27 4.5 -38t16.5 -11q10 0 13 7t3 29v54q0 40 -36 40q-7 0 -11 -1v57q47 1 47 39v52q0 19 -15 19q-12 0 -15.5 -7.5t-3.5 -33.5q0 -10 1 -18h-62v18q0 99 78 99q39 0 60 -26q18 -23 18 -75q0 -47 -4.5 -63t-22.5 -29q21 -9 26 -26.5t5 -82.5
q0 -60 -19 -83q-22 -27 -65 -27q-82 0 -82 98q0 14 1 27zM153 -33l189 733h49l-192 -733h-46zM429 0v88h-95v55l96 257h64v-254h23v-58h-23v-88h-65zM431 142v151l-48 -151h48z" />
    <glyph glyph-name="questiondown" unicode="&#xbf;" horiz-adv-x="325" 
d="M200 313v-106q0 -66 -6 -92.5t-41 -108.5q-24 -56 -24 -71q0 -12 9 -20.5t22 -8.5q27 0 47 63l78 -27q-30 -119 -130 -119q-53 0 -85 32.5t-32 84.5q0 30 8 51t52 104q25 49 25 139v79h77zM209 497v-100h-93v100h93z" />
    <glyph glyph-name="Agrave" unicode="&#xc0;" horiz-adv-x="352" 
d="M221 720h-70l-73 75h97zM133 150l-16 -150h-90l91 667h120l87 -667h-91l-17 150h-84zM207 237l-32 309l-32 -309h64z" />
    <glyph glyph-name="Aacute" unicode="&#xc1;" horiz-adv-x="352" 
d="M142 720l45 75h97l-72 -75h-70zM133 150l-16 -150h-90l91 667h120l87 -667h-91l-17 150h-84zM207 237l-32 309l-32 -309h64z" />
    <glyph glyph-name="Acircumflex" unicode="&#xc2;" horiz-adv-x="352" 
d="M84 720l45 76h94l45 -76h-69l-23 26l-22 -26h-70zM133 150l-16 -150h-90l91 667h120l87 -667h-91l-17 150h-84zM207 237l-32 309l-32 -309h64z" />
    <glyph glyph-name="Atilde" unicode="&#xc3;" horiz-adv-x="352" 
d="M94 718v69q22 15 47 15q17 0 36 -8q29 -12 41 -12q16 0 40 17v-69q-24 -17 -40 -17q-12 0 -41 12q-19 8 -36 8q-25 0 -47 -15zM133 150l-16 -150h-90l91 667h120l87 -667h-91l-17 150h-84zM207 237l-32 309l-32 -309h64z" />
    <glyph glyph-name="Adieresis" unicode="&#xc4;" horiz-adv-x="352" 
d="M150 809v-89h-77v89h77zM280 809v-89h-77v89h77zM133 150l-16 -150h-90l91 667h120l87 -667h-91l-17 150h-84zM207 237l-32 309l-32 -309h64z" />
    <glyph glyph-name="Aring" unicode="&#xc5;" horiz-adv-x="352" 
d="M177 833q30 0 51.5 -20.5t21.5 -48.5q0 -30 -21.5 -50.5t-51.5 -20.5q-31 0 -52.5 20.5t-21.5 49.5t21.5 49.5t52.5 20.5zM177 798q-16 0 -26.5 -10.5t-10.5 -24.5t10.5 -24.5t26.5 -10.5q15 0 25.5 10.5t10.5 24.5t-10.5 24.5t-25.5 10.5zM133 150l-16 -150h-90l91 667
h120l87 -667h-91l-17 150h-84zM207 237l-32 309l-32 -309h64z" />
    <glyph glyph-name="AE" unicode="&#xc6;" horiz-adv-x="491" 
d="M235 150h-95l-35 -150h-95l168 667h283v-87h-133v-187h94v-87h-94v-219h142v-87h-235v150zM235 237v315l-75 -315h75z" />
    <glyph glyph-name="Ccedilla" unicode="&#xc7;" horiz-adv-x="340" 
d="M211 -47v-68l-22 -55h-47l17 55h-26v68h78zM210 237h93q0 -14 0.5 -29t1 -24t0.5 -17q0 -177 -135 -177q-131 0 -131 160v367q0 160 131 160q135 0 135 -174q0 -27 -2 -53h-93q2 21 2 46q0 55 -8.5 74.5t-33.5 19.5q-23 0 -30.5 -15t-7.5 -58v-367q0 -43 7.5 -58
t30.5 -15q25 0 33.5 19t8.5 72q0 7 -2 69z" />
    <glyph glyph-name="Egrave" unicode="&#xc8;" horiz-adv-x="294" 
d="M40 667h225v-87h-132v-187h92v-87h-92v-219h140v-87h-233v667zM211 720h-71l-72 75h97z" />
    <glyph glyph-name="Eacute" unicode="&#xc9;" horiz-adv-x="294" 
d="M40 667h225v-87h-132v-187h92v-87h-92v-219h140v-87h-233v667zM113 720l45 75h97l-72 -75h-70z" />
    <glyph glyph-name="Ecircumflex" unicode="&#xca;" horiz-adv-x="294" 
d="M40 667h225v-87h-132v-187h92v-87h-92v-219h140v-87h-233v667zM61 720l45 76h94l45 -76h-69l-23 26l-22 -26h-70z" />
    <glyph glyph-name="Edieresis" unicode="&#xcb;" horiz-adv-x="294" 
d="M40 667h225v-87h-132v-187h92v-87h-92v-219h140v-87h-233v667zM121 809v-89h-77v89h77zM250 809v-89h-77v89h77z" />
    <glyph glyph-name="Igrave" unicode="&#xcc;" horiz-adv-x="173" 
d="M133 667v-667h-93v667h93zM131 720h-70l-72 75h97z" />
    <glyph glyph-name="Iacute" unicode="&#xcd;" horiz-adv-x="173" 
d="M133 667v-667h-93v667h93zM50 720l46 75h97l-73 -75h-70z" />
    <glyph glyph-name="Icircumflex" unicode="&#xce;" horiz-adv-x="173" 
d="M133 667v-667h-93v667h93zM-5 720l45 76h94l45 -76h-70l-22 26l-22 -26h-70z" />
    <glyph glyph-name="Idieresis" unicode="&#xcf;" horiz-adv-x="173" 
d="M133 667v-667h-93v667h93zM67 809v-89h-77v89h77zM183 809v-89h-77v89h77z" />
    <glyph glyph-name="Eth" unicode="&#xd0;" horiz-adv-x="343" 
d="M40 393v274h99q49 0 75.5 -8t47.5 -29q42 -40 42 -116v-361q0 -75 -42 -116q-21 -21 -47.5 -29t-75.5 -8h-99v306h-34v87h34zM133 393h32v-87h-32v-219h12q38 0 52 14t14 52v361q0 38 -14.5 52t-51.5 14h-12v-187z" />
    <glyph glyph-name="Ntilde" unicode="&#xd1;" horiz-adv-x="376" 
d="M106 718v69q22 15 47 15q17 0 36 -8q29 -12 41 -12q16 0 40 17v-69q-24 -17 -40 -17q-12 0 -41 12q-19 8 -36 8q-25 0 -47 -15zM336 667v-667h-93l-110 350v-350h-93v667h80l123 -393v393h93z" />
    <glyph glyph-name="Ograve" unicode="&#xd2;" horiz-adv-x="341" 
d="M303 498v-328q0 -60 -3.5 -81.5t-17.5 -43.5q-36 -55 -111 -55t-111 55q-14 22 -17.5 44t-3.5 81v328q0 59 3.5 81t17.5 44q36 54 111 54t111 -54q14 -22 17.5 -44t3.5 -81zM210 131v405q0 29 -9 41.5t-30 12.5q-39 0 -39 -54v-405q0 -29 9 -41.5t30 -12.5q39 0 39 54z
M232 720h-70l-72 75h97z" />
    <glyph glyph-name="Oacute" unicode="&#xd3;" horiz-adv-x="341" 
d="M303 498v-328q0 -60 -3.5 -81.5t-17.5 -43.5q-36 -55 -111 -55t-111 55q-14 22 -17.5 44t-3.5 81v328q0 59 3.5 81t17.5 44q36 54 111 54t111 -54q14 -22 17.5 -44t3.5 -81zM210 131v405q0 29 -9 41.5t-30 12.5q-39 0 -39 -54v-405q0 -29 9 -41.5t30 -12.5q39 0 39 54z
M141 720l45 75h97l-72 -75h-70z" />
    <glyph glyph-name="Ocircumflex" unicode="&#xd4;" horiz-adv-x="341" 
d="M303 498v-328q0 -60 -3.5 -81.5t-17.5 -43.5q-36 -55 -111 -55t-111 55q-14 22 -17.5 44t-3.5 81v328q0 59 3.5 81t17.5 44q36 54 111 54t111 -54q14 -22 17.5 -44t3.5 -81zM210 131v405q0 29 -9 41.5t-30 12.5q-39 0 -39 -54v-405q0 -29 9 -41.5t30 -12.5q39 0 39 54z
M79 720l45 76h94l45 -76h-70l-22 26l-22 -26h-70z" />
    <glyph glyph-name="Otilde" unicode="&#xd5;" horiz-adv-x="341" 
d="M303 498v-328q0 -60 -3.5 -81.5t-17.5 -43.5q-36 -55 -111 -55t-111 55q-14 22 -17.5 44t-3.5 81v328q0 59 3.5 81t17.5 44q36 54 111 54t111 -54q14 -22 17.5 -44t3.5 -81zM210 131v405q0 29 -9 41.5t-30 12.5q-39 0 -39 -54v-405q0 -29 9 -41.5t30 -12.5q39 0 39 54z
M89 718v69q22 15 47 15q17 0 36 -8q29 -12 41 -12q16 0 40 17v-69q-24 -17 -40 -17q-12 0 -41 12q-19 8 -36 8q-25 0 -47 -15z" />
    <glyph glyph-name="Odieresis" unicode="&#xd6;" horiz-adv-x="341" 
d="M303 498v-328q0 -60 -3.5 -81.5t-17.5 -43.5q-36 -55 -111 -55t-111 55q-14 22 -17.5 44t-3.5 81v328q0 59 3.5 81t17.5 44q36 54 111 54t111 -54q14 -22 17.5 -44t3.5 -81zM210 131v405q0 29 -9 41.5t-30 12.5q-39 0 -39 -54v-405q0 -29 9 -41.5t30 -12.5q39 0 39 54z
M145 809v-89h-77v89h77zM274 809v-89h-77v89h77z" />
    <glyph glyph-name="multiply" unicode="&#xd7;" horiz-adv-x="340" 
d="M241 463l47 -46l-69 -69l75 -76l-51 -51l-75 75l-68 -67l-47 46l68 68l-77 77l51 51l77 -76z" />
    <glyph glyph-name="Oslash" unicode="&#xd8;" horiz-adv-x="341" 
d="M86 17l-16 -49h-32l23 74q-14 22 -18.5 46.5t-4.5 75.5v334q0 60 3.5 81.5t17.5 43.5q35 54 111 54q45 0 82 -25l14 46h36l-23 -73q15 -23 19 -45t4 -82v-328q0 -60 -3.5 -81.5t-17.5 -43.5q-36 -55 -111 -55q-46 0 -84 27zM131 160v-29q0 -29 9 -41.5t30 -12.5
q39 0 39 54v273zM131 267l78 248v21q0 29 -9 42t-30 13q-39 0 -39 -55v-269z" />
    <glyph glyph-name="Ugrave" unicode="&#xd9;" horiz-adv-x="344" 
d="M133 667v-536q0 -54 39 -54q21 0 30 12.5t9 41.5v536h93v-498q0 -59 -3.5 -81t-17.5 -44q-36 -54 -111 -54t-111 54q-14 22 -17.5 44t-3.5 81v498h93zM231 720h-70l-72 75h97z" />
    <glyph glyph-name="Uacute" unicode="&#xda;" horiz-adv-x="344" 
d="M133 667v-536q0 -54 39 -54q21 0 30 12.5t9 41.5v536h93v-498q0 -59 -3.5 -81t-17.5 -44q-36 -54 -111 -54t-111 54q-14 22 -17.5 44t-3.5 81v498h93zM133 720l46 75h97l-72 -75h-71z" />
    <glyph glyph-name="Ucircumflex" unicode="&#xdb;" horiz-adv-x="344" 
d="M133 667v-536q0 -54 39 -54q21 0 30 12.5t9 41.5v536h93v-498q0 -59 -3.5 -81t-17.5 -44q-36 -54 -111 -54t-111 54q-14 22 -17.5 44t-3.5 81v498h93zM80 720l45 76h94l45 -76h-70l-22 26l-22 -26h-70z" />
    <glyph glyph-name="Udieresis" unicode="&#xdc;" horiz-adv-x="344" 
d="M133 667v-536q0 -54 39 -54q21 0 30 12.5t9 41.5v536h93v-498q0 -59 -3.5 -81t-17.5 -44q-36 -54 -111 -54t-111 54q-14 22 -17.5 44t-3.5 81v498h93zM146 809v-89h-77v89h77zM275 809v-89h-77v89h77z" />
    <glyph glyph-name="Yacute" unicode="&#xdd;" horiz-adv-x="327" 
d="M125 720l45 75h97l-72 -75h-70zM117 277l-104 390h101l51 -246l51 246h98l-104 -390v-277h-93v277z" />
    <glyph glyph-name="Thorn" unicode="&#xde;" horiz-adv-x="329" 
d="M40 667h93v-80h9q51 0 78.5 -10t47.5 -36q20 -27 27 -58.5t7 -95.5q0 -65 -7.5 -97.5t-27.5 -55.5q-36 -43 -121 -43h-13v-191h-93v667zM133 277h13q42 0 54 20.5t12 91.5q0 70 -12.5 90.5t-53.5 20.5h-13v-223z" />
    <glyph glyph-name="germandbls" unicode="&#xdf;" horiz-adv-x="309" 
d="M37 0v508q0 81 18 116q26 50 97 50q59 0 86.5 -34t27.5 -107v-26q0 -54 -7 -71.5t-35 -34.5q28 -7 38.5 -22.5t10.5 -50.5v-166q0 -62 -5.5 -91t-20.5 -47q-10 -13 -33 -22t-46 -9l-16 1v80q21 0 27.5 12t6.5 51v165q0 39 -6.5 49.5t-29.5 10.5v78q19 0 24 6t5 29v72
q0 51 -28 51q-17 0 -22 -14.5t-5 -60.5v-523h-87z" />
    <glyph glyph-name="agrave" unicode="&#xe0;" horiz-adv-x="306" 
d="M276 0h-90q-4 14 -6 40q-31 -47 -74 -47q-76 0 -76 126q0 76 42 124q16 17 27 26t64 43l17 11v56q0 29 -5 37t-22 8q-19 0 -26 -14t-10 -59h-84q6 73 25 103q29 50 96 50q55 0 84 -30.5t29 -88.5v-305q0 -52 9 -80zM180 100v155q-35 -29 -49 -57.5t-14 -71.5
q0 -52 27 -52q19 0 36 26zM217 578h-70l-73 75h97z" />
    <glyph glyph-name="aacute" unicode="&#xe1;" horiz-adv-x="306" 
d="M276 0h-90q-4 14 -6 40q-31 -47 -74 -47q-76 0 -76 126q0 76 42 124q16 17 27 26t64 43l17 11v56q0 29 -5 37t-22 8q-19 0 -26 -14t-10 -59h-84q6 73 25 103q29 50 96 50q55 0 84 -30.5t29 -88.5v-305q0 -52 9 -80zM180 100v155q-35 -29 -49 -57.5t-14 -71.5
q0 -52 27 -52q19 0 36 26zM119 578l45 75h97l-72 -75h-70z" />
    <glyph glyph-name="acircumflex" unicode="&#xe2;" horiz-adv-x="306" 
d="M276 0h-90q-4 14 -6 40q-31 -47 -74 -47q-76 0 -76 126q0 76 42 124q16 17 27 26t64 43l17 11v56q0 29 -5 37t-22 8q-19 0 -26 -14t-10 -59h-84q6 73 25 103q29 50 96 50q55 0 84 -30.5t29 -88.5v-305q0 -52 9 -80zM180 100v155q-35 -29 -49 -57.5t-14 -71.5
q0 -52 27 -52q19 0 36 26zM68 578l45 76h94l45 -76h-70l-22 26l-23 -26h-69z" />
    <glyph glyph-name="atilde" unicode="&#xe3;" horiz-adv-x="306" 
d="M276 0h-90q-4 14 -6 40q-31 -47 -74 -47q-76 0 -76 126q0 76 42 124q16 17 27 26t64 43l17 11v56q0 29 -5 37t-22 8q-19 0 -26 -14t-10 -59h-84q6 73 25 103q29 50 96 50q55 0 84 -30.5t29 -88.5v-305q0 -52 9 -80zM180 100v155q-35 -29 -49 -57.5t-14 -71.5
q0 -52 27 -52q19 0 36 26zM76 576v69q23 15 47 15q17 0 36 -8q29 -12 41 -12q16 0 40 18v-69q-24 -18 -40 -18q-12 0 -41 12q-19 8 -36 8q-24 0 -47 -15z" />
    <glyph glyph-name="adieresis" unicode="&#xe4;" horiz-adv-x="306" 
d="M276 0h-90q-4 14 -6 40q-31 -47 -74 -47q-76 0 -76 126q0 76 42 124q16 17 27 26t64 43l17 11v56q0 29 -5 37t-22 8q-19 0 -26 -14t-10 -59h-84q6 73 25 103q29 50 96 50q55 0 84 -30.5t29 -88.5v-305q0 -52 9 -80zM180 100v155q-35 -29 -49 -57.5t-14 -71.5
q0 -52 27 -52q19 0 36 26zM132 667v-89h-77v89h77zM252 667v-89h-77v89h77z" />
    <glyph glyph-name="aring" unicode="&#xe5;" horiz-adv-x="306" 
d="M276 0h-90q-4 14 -6 40q-31 -47 -74 -47q-76 0 -76 126q0 76 42 124q16 17 27 26t64 43l17 11v56q0 29 -5 37t-22 8q-19 0 -26 -14t-10 -59h-84q6 73 25 103q29 50 96 50q55 0 84 -30.5t29 -88.5v-305q0 -52 9 -80zM180 100v155q-35 -29 -49 -57.5t-14 -71.5
q0 -52 27 -52q19 0 36 26zM154 698q30 0 51.5 -20.5t21.5 -48.5q0 -29 -21.5 -49.5t-51.5 -20.5q-31 0 -52.5 20.5t-21.5 49.5t21.5 49t52.5 20zM154 663q-15 0 -26 -10t-11 -24t11 -24.5t26 -10.5t25.5 10t10.5 25q0 14 -10.5 24t-25.5 10z" />
    <glyph glyph-name="ae" unicode="&#xe6;" horiz-adv-x="454" 
d="M330 174h87q1 -34 1 -46q0 -65 -32 -100t-92 -35q-35 0 -55 10t-40 38q-45 -48 -87 -48q-82 0 -82 125q0 79 42 125q15 17 26.5 26t64.5 43l17 11v56q0 29 -5 37t-22 8q-19 0 -26 -14t-10 -59h-84q6 71 25 103q30 50 94 50q25 0 40.5 -7.5t33.5 -27.5q30 35 76 35
q53 0 84 -33.5t31 -90.5v-146h-150v-110q0 -51 31 -51q18 0 25 13t7 46v22v20zM180 102v153q-35 -29 -49 -57.5t-14 -71.5q0 -52 28 -52q18 0 35 28zM267 303h63v84q0 37 -31 37q-32 0 -32 -37v-84z" />
    <glyph glyph-name="ccedilla" unicode="&#xe7;" horiz-adv-x="299" 
d="M273 323h-87v20v22q0 33 -7 46t-26 13q-31 0 -31 -51v-249q0 -51 31 -51q19 0 26 13t7 46v22v28h87q1 -42 1 -53q0 -66 -31.5 -101t-90.5 -35q-57 0 -90 42q-27 34 -27 98v231q0 64 27 98q33 42 90 42q59 0 90.5 -35t31.5 -100q0 -12 -1 -46zM193 -47v-68l-22 -55h-47
l17 55h-26v68h78z" />
    <glyph glyph-name="egrave" unicode="&#xe8;" horiz-adv-x="309" 
d="M185 174h87q1 -34 1 -46q0 -64 -31.5 -99.5t-89.5 -35.5q-57 0 -90 42q-27 34 -27 98v232q0 139 120 139q55 0 86 -33t31 -91v-146h-150v-110q0 -51 31 -51q18 0 25 13t7 46v22v20zM122 303h63v84q0 37 -31 37q-32 0 -32 -37v-84zM214 578h-70l-73 75h97z" />
    <glyph glyph-name="eacute" unicode="&#xe9;" horiz-adv-x="309" 
d="M185 174h87q1 -34 1 -46q0 -64 -31.5 -99.5t-89.5 -35.5q-57 0 -90 42q-27 34 -27 98v232q0 139 120 139q55 0 86 -33t31 -91v-146h-150v-110q0 -51 31 -51q18 0 25 13t7 46v22v20zM122 303h63v84q0 37 -31 37q-32 0 -32 -37v-84zM118 578l45 75h97l-72 -75h-70z" />
    <glyph glyph-name="ecircumflex" unicode="&#xea;" horiz-adv-x="309" 
d="M185 174h87q1 -34 1 -46q0 -64 -31.5 -99.5t-89.5 -35.5q-57 0 -90 42q-27 34 -27 98v232q0 139 120 139q55 0 86 -33t31 -91v-146h-150v-110q0 -51 31 -51q18 0 25 13t7 46v22v20zM122 303h63v84q0 37 -31 37q-32 0 -32 -37v-84zM62 578l45 76h94l45 -76h-69l-23 26
l-22 -26h-70z" />
    <glyph glyph-name="edieresis" unicode="&#xeb;" horiz-adv-x="309" 
d="M185 174h87q1 -34 1 -46q0 -64 -31.5 -99.5t-89.5 -35.5q-57 0 -90 42q-27 34 -27 98v232q0 139 120 139q55 0 86 -33t31 -91v-146h-150v-110q0 -51 31 -51q18 0 25 13t7 46v22v20zM122 303h63v84q0 37 -31 37q-32 0 -32 -37v-84zM133 667v-89h-77v89h77zM253 667v-89
h-77v89h77z" />
    <glyph glyph-name="igrave" unicode="&#xec;" horiz-adv-x="161" 
d="M124 497v-497h-87v497h87zM125 578h-70l-72 75h97z" />
    <glyph glyph-name="iacute" unicode="&#xed;" horiz-adv-x="161" 
d="M124 497v-497h-87v497h87zM50 578l46 75h97l-73 -75h-70z" />
    <glyph glyph-name="icircumflex" unicode="&#xee;" horiz-adv-x="161" 
d="M125 497v-497h-87v497h87zM-11 578l45 76h94l45 -76h-70l-22 26l-22 -26h-70z" />
    <glyph glyph-name="idieresis" unicode="&#xef;" horiz-adv-x="161" 
d="M124 497v-497h-87v497h87zM66 667v-89h-77v89h77zM172 667v-89h-77v89h77z" />
    <glyph glyph-name="eth" unicode="&#xf0;" horiz-adv-x="308" 
d="M178 650l54 44l26 -30l-53 -44q36 -50 51.5 -102t15.5 -123v-260q0 -73 -30 -107.5t-93 -34.5q-114 0 -114 142v226q0 63 21 98q11 19 33.5 31.5t45.5 12.5q24 0 52 -19q-14 63 -34 91l-44 -37l-26 31l46 39q-9 12 -29 30l44 43q20 -17 34 -31zM122 377v-256
q0 -46 32 -46q31 0 31 46v256q0 46 -31 46q-32 0 -32 -46z" />
    <glyph glyph-name="ntilde" unicode="&#xf1;" horiz-adv-x="310" 
d="M37 497h85l2 -43q47 50 81 50q35 0 53 -28q14 -22 14 -86v-390h-87v387q0 37 -22 37q-15 0 -39 -20v-404h-87v497zM73 576v69q23 15 47 15q17 0 36 -8q29 -12 41 -12q16 0 40 18v-69q-24 -18 -40 -18q-12 0 -41 12q-19 8 -36 8q-24 0 -47 -15z" />
    <glyph glyph-name="ograve" unicode="&#xf2;" horiz-adv-x="308" 
d="M272 364v-231q0 -140 -118 -140q-119 0 -119 140v231q0 140 119 140q118 0 118 -140zM122 378v-259q0 -46 32 -46q31 0 31 46v259q0 46 -31 46q-32 0 -32 -46zM207 578h-70l-73 75h97z" />
    <glyph glyph-name="oacute" unicode="&#xf3;" horiz-adv-x="308" 
d="M272 364v-231q0 -140 -118 -140q-119 0 -119 140v231q0 140 119 140q118 0 118 -140zM122 378v-259q0 -46 32 -46q31 0 31 46v259q0 46 -31 46q-32 0 -32 -46zM119 578l46 75h97l-73 -75h-70z" />
    <glyph glyph-name="ocircumflex" unicode="&#xf4;" horiz-adv-x="308" 
d="M272 364v-231q0 -140 -118 -140q-119 0 -119 140v231q0 140 119 140q118 0 118 -140zM122 378v-259q0 -46 32 -46q31 0 31 46v259q0 46 -31 46q-32 0 -32 -46zM62 578l45 76h94l45 -76h-70l-22 26l-23 -26h-69z" />
    <glyph glyph-name="otilde" unicode="&#xf5;" horiz-adv-x="308" 
d="M272 364v-231q0 -140 -118 -140q-119 0 -119 140v231q0 140 119 140q118 0 118 -140zM122 378v-259q0 -46 32 -46q31 0 31 46v259q0 46 -31 46q-32 0 -32 -46zM72 576v69q23 15 47 15q17 0 36 -8q29 -12 41 -12q16 0 40 18v-69q-24 -18 -40 -18q-12 0 -41 12q-19 8 -36 8
q-24 0 -47 -15z" />
    <glyph glyph-name="odieresis" unicode="&#xf6;" horiz-adv-x="308" 
d="M272 364v-231q0 -140 -118 -140q-119 0 -119 140v231q0 140 119 140q118 0 118 -140zM122 378v-259q0 -46 32 -46q31 0 31 46v259q0 46 -31 46q-32 0 -32 -46zM132 667v-89h-77v89h77zM252 667v-89h-77v89h77z" />
    <glyph glyph-name="divide" unicode="&#xf7;" horiz-adv-x="340" 
d="M303 379v-66h-266v66h266zM134 444v77h72v-77h-72zM134 171v77h72v-77h-72z" />
    <glyph glyph-name="oslash" unicode="&#xf8;" horiz-adv-x="308" 
d="M90 8l-14 -44h-29l20 63q-32 36 -32 106v231q0 140 118 140q34 0 58 -12l16 51h33l-22 -70q34 -35 34 -109v-231q0 -140 -118 -140q-37 0 -64 15zM185 308l-62 -199q4 -36 31 -36q31 0 31 46v189zM122 204l60 196q-6 24 -28 24q-32 0 -32 -46v-174z" />
    <glyph glyph-name="ugrave" unicode="&#xf9;" horiz-adv-x="310" 
d="M272 0h-80l-7 43q-47 -50 -81 -50q-36 0 -53 28q-14 22 -14 86v390h87v-387q0 -37 22 -37q15 0 39 20v404h87v-497zM210 578h-70l-73 75h97z" />
    <glyph glyph-name="uacute" unicode="&#xfa;" horiz-adv-x="310" 
d="M272 0h-80l-7 43q-47 -50 -81 -50q-36 0 -53 28q-14 22 -14 86v390h87v-387q0 -37 22 -37q15 0 39 20v404h87v-497zM125 578l45 75h97l-72 -75h-70z" />
    <glyph glyph-name="ucircumflex" unicode="&#xfb;" horiz-adv-x="310" 
d="M272 0h-80l-7 43q-47 -50 -81 -50q-36 0 -53 28q-14 22 -14 86v390h87v-387q0 -37 22 -37q15 0 39 20v404h87v-497zM63 578l45 76h94l45 -76h-70l-22 26l-23 -26h-69z" />
    <glyph glyph-name="udieresis" unicode="&#xfc;" horiz-adv-x="310" 
d="M272 0h-80l-7 43q-47 -50 -81 -50q-36 0 -53 28q-14 22 -14 86v390h87v-387q0 -37 22 -37q15 0 39 20v404h87v-497zM133 667v-89h-77v89h77zM253 667v-89h-77v89h77z" />
    <glyph glyph-name="yacute" unicode="&#xfd;" horiz-adv-x="284" 
d="M108 578l46 75h96l-72 -75h-70zM268 497l-91 -565q-17 -109 -127 -109q-10 0 -26 3v83h8q35 0 49 17t14 59q0 29 -9 87l-69 425h85l40 -292l42 292h84z" />
    <glyph glyph-name="thorn" unicode="&#xfe;" horiz-adv-x="308" 
d="M37 667h87v-217q46 54 82 54q35 0 52 -29q14 -22 14 -88v-277q0 -66 -14 -88q-17 -29 -52 -29q-36 0 -82 54v-217h-87v837zM124 404v-311q24 -20 39 -20q22 0 22 37v277q0 37 -22 37q-15 0 -39 -20z" />
    <glyph glyph-name="ydieresis" unicode="&#xff;" horiz-adv-x="284" 
d="M121 667v-89h-77v89h77zM241 667v-89h-77v89h77zM268 497l-91 -565q-17 -109 -127 -109q-10 0 -26 3v83h8q35 0 49 17t14 59q0 29 -9 87l-69 425h85l40 -292l42 292h84z" />
    <glyph glyph-name="Amacron" unicode="&#x100;" horiz-adv-x="352" 
d="M94 716v67h164v-67h-164zM133 150l-16 -150h-90l91 667h120l87 -667h-91l-17 150h-84zM207 237l-32 309l-32 -309h64z" />
    <glyph glyph-name="amacron" unicode="&#x101;" horiz-adv-x="306" 
d="M276 0h-90q-4 14 -6 40q-31 -47 -74 -47q-76 0 -76 126q0 76 42 124q16 17 27 26t64 43l17 11v56q0 29 -5 37t-22 8q-19 0 -26 -14t-10 -59h-84q6 73 25 103q29 50 96 50q55 0 84 -30.5t29 -88.5v-305q0 -52 9 -80zM180 100v155q-35 -29 -49 -57.5t-14 -71.5
q0 -52 27 -52q19 0 36 26zM71 574v67h164v-67h-164z" />
    <glyph glyph-name="Abreve" unicode="&#x102;" horiz-adv-x="352" 
d="M85 763l48 34q23 -18 43 -18q21 0 44 18l48 -34q-12 -22 -37.5 -36t-54.5 -14t-54 14t-37 36zM133 150l-16 -150h-90l91 667h120l87 -667h-91l-17 150h-84zM207 237l-32 309l-32 -309h64z" />
    <glyph glyph-name="abreve" unicode="&#x103;" horiz-adv-x="306" 
d="M276 0h-90q-4 14 -6 40q-31 -47 -74 -47q-76 0 -76 126q0 76 42 124q16 17 27 26t64 43l17 11v56q0 29 -5 37t-22 8q-19 0 -26 -14t-10 -59h-84q6 73 25 103q29 50 96 50q55 0 84 -30.5t29 -88.5v-305q0 -52 9 -80zM180 100v155q-35 -29 -49 -57.5t-14 -71.5
q0 -52 27 -52q19 0 36 26zM68 622l48 33q25 -17 44 -17q18 0 43 17l48 -33q-12 -22 -37 -36t-54 -14t-54.5 14t-37.5 36z" />
    <glyph glyph-name="Aogonek" unicode="&#x104;" horiz-adv-x="352" 
d="M325 0h-18q-28 -48 -28 -70q0 -31 32 -31q7 0 20 3v-47q-20 -4 -35 -4q-35 0 -57 17.5t-22 46.5q0 33 32 85h-16l-16 150h-84l-16 -150h-90l91 667h120zM207 237l-32 309l-32 -309h64z" />
    <glyph glyph-name="aogonek" unicode="&#x105;" horiz-adv-x="306" 
d="M276 0h-19q-28 -48 -28 -70q0 -31 32 -31q7 0 20 3v-47q-20 -4 -35 -4q-36 0 -58 17.5t-22 46.5q0 32 33 85h-13q-4 14 -6 40q-31 -47 -74 -47q-76 0 -76 126q0 76 42 124q16 17 27 26t64 43l17 11v56q0 29 -5 37t-22 8q-19 0 -26 -14t-10 -59h-84q6 73 25 103
q29 50 96 50q55 0 84 -30.5t29 -88.5v-305q0 -52 9 -80zM180 100v155q-35 -29 -49 -57.5t-14 -71.5q0 -52 27 -52q19 0 36 26z" />
    <glyph glyph-name="Cacute" unicode="&#x106;" horiz-adv-x="340" 
d="M210 237h93q0 -14 0.5 -29t1 -24t0.5 -17q0 -177 -135 -177q-131 0 -131 160v367q0 160 131 160q135 0 135 -174q0 -27 -2 -53h-93q2 21 2 46q0 55 -8.5 74.5t-33.5 19.5q-23 0 -30.5 -15t-7.5 -58v-367q0 -43 7.5 -58t30.5 -15q25 0 33.5 19t8.5 72q0 7 -2 69zM128 720
l45 75h97l-72 -75h-70z" />
    <glyph glyph-name="cacute" unicode="&#x107;" horiz-adv-x="299" 
d="M273 323h-87v20v22q0 33 -7 46t-26 13q-31 0 -31 -51v-249q0 -51 31 -51q19 0 26 13t7 46v22v28h87q1 -42 1 -53q0 -66 -31.5 -101t-90.5 -35q-57 0 -90 42q-27 34 -27 98v231q0 64 27 98q33 42 90 42q59 0 90.5 -35t31.5 -100q0 -12 -1 -46zM115 578l46 75h96l-72 -75
h-70z" />
    <glyph glyph-name="Ccircumflex" unicode="&#x108;" horiz-adv-x="340" 
d="M210 237h93q0 -14 0.5 -29t1 -24t0.5 -17q0 -177 -135 -177q-131 0 -131 160v367q0 160 131 160q135 0 135 -174q0 -27 -2 -53h-93q2 21 2 46q0 55 -8.5 74.5t-33.5 19.5q-23 0 -30.5 -15t-7.5 -58v-367q0 -43 7.5 -58t30.5 -15q25 0 33.5 19t8.5 72q0 7 -2 69zM78 720
l45 76h95l45 -76h-70l-23 26l-22 -26h-70z" />
    <glyph glyph-name="Cdotaccent" unicode="&#x10a;" horiz-adv-x="340" 
d="M210 237h93q0 -14 0.5 -29t1 -24t0.5 -17q0 -177 -135 -177q-131 0 -131 160v367q0 160 131 160q135 0 135 -174q0 -27 -2 -53h-93q2 21 2 46q0 55 -8.5 74.5t-33.5 19.5q-23 0 -30.5 -15t-7.5 -58v-367q0 -43 7.5 -58t30.5 -15q25 0 33.5 19t8.5 72q0 7 -2 69zM214 809
v-89h-87v89h87z" />
    <glyph glyph-name="cdotaccent" unicode="&#x10b;" horiz-adv-x="299" 
d="M273 323h-87v20v22q0 33 -7 46t-26 13q-31 0 -31 -51v-249q0 -51 31 -51q19 0 26 13t7 46v22v28h87q1 -42 1 -53q0 -66 -31.5 -101t-90.5 -35q-57 0 -90 42q-27 34 -27 98v231q0 64 27 98q33 42 90 42q59 0 90.5 -35t31.5 -100q0 -12 -1 -46zM193 667v-89h-87v89h87z" />
    <glyph glyph-name="Ccaron" unicode="&#x10c;" horiz-adv-x="340" 
d="M210 237h93q0 -14 0.5 -29t1 -24t0.5 -17q0 -177 -135 -177q-131 0 -131 160v367q0 160 131 160q135 0 135 -174q0 -27 -2 -53h-93q2 21 2 46q0 55 -8.5 74.5t-33.5 19.5q-23 0 -30.5 -15t-7.5 -58v-367q0 -43 7.5 -58t30.5 -15q25 0 33.5 19t8.5 72q0 7 -2 69zM263 796
l-45 -76h-95l-45 76h70l22 -26l23 26h70z" />
    <glyph glyph-name="ccaron" unicode="&#x10d;" horiz-adv-x="299" 
d="M273 323h-87v20v22q0 33 -7 46t-26 13q-31 0 -31 -51v-249q0 -51 31 -51q19 0 26 13t7 46v22v28h87q1 -42 1 -53q0 -66 -31.5 -101t-90.5 -35q-57 0 -90 42q-27 34 -27 98v231q0 64 27 98q33 42 90 42q59 0 90.5 -35t31.5 -100q0 -12 -1 -46zM246 654l-45 -76h-94l-45 76
h69l23 -26l22 26h70z" />
    <glyph glyph-name="Dcaron" unicode="&#x10e;" horiz-adv-x="343" 
d="M40 667h99q49 0 76 -8t47 -29q42 -40 42 -116v-361q0 -75 -42 -116q-20 -21 -47 -29t-76 -8h-99v667zM133 87h12q38 0 52 14t14 52v361q0 38 -14.5 52t-51.5 14h-12v-493zM255 796l-45 -76h-94l-45 76h70l22 -26l22 26h70z" />
    <glyph glyph-name="dcaron" unicode="&#x10f;" horiz-adv-x="397" 
d="M273 0h-85l-2 47q-47 -54 -83 -54q-35 0 -52 29q-14 22 -14 88v277q0 66 14 88q17 29 52 29q36 0 83 -54v217h87v-667zM186 93v311q-24 20 -40 20q-22 0 -22 -37v-277q0 -37 22 -37q16 0 40 20zM307 667h91v-98l-39 -83h-50l31 83h-33v98z" />
    <glyph glyph-name="Dcroat" unicode="&#x110;" horiz-adv-x="343" 
d="M40 393v274h99q49 0 75.5 -8t47.5 -29q42 -40 42 -116v-361q0 -75 -42 -116q-21 -21 -47.5 -29t-75.5 -8h-99v306h-34v87h34zM133 393h32v-87h-32v-219h12q38 0 52 14t14 52v361q0 38 -14.5 52t-51.5 14h-12v-187z" />
    <glyph glyph-name="dcroat" unicode="&#x111;" horiz-adv-x="312" 
d="M272 0h-85l-2 47q-46 -54 -82 -54q-35 0 -52 29q-14 22 -14 88v277q0 66 14 88q17 29 52 29t82 -54v105h-49v68h49v44h87v-44h34v-68h-34v-555zM185 93v311q-24 20 -39 20q-22 0 -22 -37v-277q0 -37 22 -37q15 0 39 20z" />
    <glyph glyph-name="Emacron" unicode="&#x112;" horiz-adv-x="294" 
d="M40 667h225v-87h-132v-187h92v-87h-92v-219h140v-87h-233v667zM75 716v67h164v-67h-164z" />
    <glyph glyph-name="emacron" unicode="&#x113;" horiz-adv-x="309" 
d="M185 174h87q1 -34 1 -46q0 -64 -31.5 -99.5t-89.5 -35.5q-57 0 -90 42q-27 34 -27 98v232q0 139 120 139q55 0 86 -33t31 -91v-146h-150v-110q0 -51 31 -51q18 0 25 13t7 46v22v20zM122 303h63v84q0 37 -31 37q-32 0 -32 -37v-84zM73 574v67h164v-67h-164z" />
    <glyph glyph-name="Ebreve" unicode="&#x114;" horiz-adv-x="294" 
d="M40 667h225v-87h-132v-187h92v-87h-92v-219h140v-87h-233v667zM64 763l48 34q23 -18 44 -18q20 0 43 18l48 -34q-12 -22 -37.5 -36t-54.5 -14t-54 14t-37 36z" />
    <glyph glyph-name="ebreve" unicode="&#x115;" horiz-adv-x="309" 
d="M185 174h87q1 -34 1 -46q0 -64 -31.5 -99.5t-89.5 -35.5q-57 0 -90 42q-27 34 -27 98v232q0 139 120 139q55 0 86 -33t31 -91v-146h-150v-110q0 -51 31 -51q18 0 25 13t7 46v22v20zM122 303h63v84q0 37 -31 37q-32 0 -32 -37v-84zM63 622l48 33q24 -17 43 -17t44 17
l48 -33q-12 -22 -37.5 -36t-54.5 -14t-54 14t-37 36z" />
    <glyph glyph-name="Edotaccent" unicode="&#x116;" horiz-adv-x="294" 
d="M40 667h225v-87h-132v-187h92v-87h-92v-219h140v-87h-233v667zM199 809v-89h-87v89h87z" />
    <glyph glyph-name="edotaccent" unicode="&#x117;" horiz-adv-x="309" 
d="M185 174h87q1 -34 1 -46q0 -64 -31.5 -99.5t-89.5 -35.5q-57 0 -90 42q-27 34 -27 98v232q0 139 120 139q55 0 86 -33t31 -91v-146h-150v-110q0 -51 31 -51q18 0 25 13t7 46v22v20zM122 303h63v84q0 37 -31 37q-32 0 -32 -37v-84zM198 667v-89h-87v89h87z" />
    <glyph glyph-name="Eogonek" unicode="&#x118;" horiz-adv-x="294" 
d="M273 0h-24q-29 -46 -29 -70q0 -14 9 -22.5t24 -8.5q7 0 20 3v-47q-20 -4 -36 -4q-35 0 -57 17.5t-22 46.5q0 32 32 85h-150v667h225v-87h-132v-187h92v-87h-92v-219h140v-87z" />
    <glyph glyph-name="eogonek" unicode="&#x119;" horiz-adv-x="309" 
d="M185 174h87q1 -34 1 -46q0 -74 -39 -107q-40 -65 -40 -91q0 -31 32 -31q6 0 20 3v-47q-20 -4 -36 -4q-35 0 -56.5 17.5t-21.5 46.5q0 31 28 78h-9q-56 0 -89 42q-27 34 -27 98v232q0 139 120 139q55 0 86 -33t31 -91v-146h-150v-110q0 -51 31 -51q18 0 25 13t7 46v22v20z
M122 303h63v84q0 37 -31 37q-32 0 -32 -37v-84z" />
    <glyph glyph-name="Ecaron" unicode="&#x11a;" horiz-adv-x="294" 
d="M40 667h225v-87h-132v-187h92v-87h-92v-219h140v-87h-233v667zM245 796l-45 -76h-94l-45 76h70l22 -26l23 26h69z" />
    <glyph glyph-name="ecaron" unicode="&#x11b;" horiz-adv-x="309" 
d="M185 174h87q1 -34 1 -46q0 -64 -31.5 -99.5t-89.5 -35.5q-57 0 -90 42q-27 34 -27 98v232q0 139 120 139q55 0 86 -33t31 -91v-146h-150v-110q0 -51 31 -51q18 0 25 13t7 46v22v20zM122 303h63v84q0 37 -31 37q-32 0 -32 -37v-84zM246 654l-45 -76h-94l-45 76h70l22 -26
l23 26h69z" />
    <glyph glyph-name="Gcircumflex" unicode="&#x11c;" horiz-adv-x="343" 
d="M303 339v-339h-50l-14 46q-38 -56 -86 -56q-29 0 -55 16t-40 43q-19 35 -19 115v353q0 160 132 160q134 0 134 -174q0 -27 -2 -53h-93q2 22 2 46q0 55 -8.5 74.5t-33.5 19.5q-23 0 -30.5 -15t-7.5 -58v-353q0 -54 7 -68q9 -20 31 -20q24 0 35 25q5 14 5 63v96h-41v79h134
zM80 720l45 76h94l45 -76h-70l-22 26l-22 -26h-70z" />
    <glyph glyph-name="gcircumflex" unicode="&#x11d;" horiz-adv-x="305" 
d="M302 504v-82q-13 4 -21 4q-12 0 -26 -9v-34v-122q0 -64 -27 -99t-76 -35q-15 0 -23 1q-25 -6 -25 -24q0 -19 24 -27q11 -4 77 -13q47 -6 74.5 -36.5t27.5 -76.5q0 -58 -42 -93t-111 -35q-64 0 -101 24t-37 66q0 49 74 87q-33 11 -46 24t-13 35q0 47 59 81q-49 37 -49 107
v144q0 52 29 82.5t77 30.5q57 0 90 -46q24 42 65 46zM179 244v144q0 37 -31 37t-31 -37v-144q0 -38 31 -38t31 38zM146 -8q-25 -13 -34.5 -24t-9.5 -27q0 -21 16 -33t43 -12q29 0 47 14t18 36q0 23 -15.5 32t-64.5 14zM61 578l45 76h94l45 -76h-70l-22 26l-23 -26h-69z" />
    <glyph glyph-name="Gbreve" unicode="&#x11e;" horiz-adv-x="343" 
d="M303 339v-339h-50l-14 46q-38 -56 -86 -56q-29 0 -55 16t-40 43q-19 35 -19 115v353q0 160 132 160q134 0 134 -174q0 -27 -2 -53h-93q2 22 2 46q0 55 -8.5 74.5t-33.5 19.5q-23 0 -30.5 -15t-7.5 -58v-353q0 -54 7 -68q9 -20 31 -20q24 0 35 25q5 14 5 63v96h-41v79h134
zM80 763l48 34q24 -18 44 -18t44 18l48 -34q-12 -22 -37.5 -36t-54.5 -14t-54 14t-38 36z" />
    <glyph glyph-name="gbreve" unicode="&#x11f;" horiz-adv-x="305" 
d="M302 504v-82q-13 4 -21 4q-12 0 -26 -9v-34v-122q0 -64 -27 -99t-76 -35q-15 0 -23 1q-25 -6 -25 -24q0 -19 24 -27q11 -4 77 -13q47 -6 74.5 -36.5t27.5 -76.5q0 -58 -42 -93t-111 -35q-64 0 -101 24t-37 66q0 49 74 87q-33 11 -46 24t-13 35q0 47 59 81q-49 37 -49 107
v144q0 52 29 82.5t77 30.5q57 0 90 -46q24 42 65 46zM179 244v144q0 37 -31 37t-31 -37v-144q0 -38 31 -38t31 38zM146 -8q-25 -13 -34.5 -24t-9.5 -27q0 -21 16 -33t43 -12q29 0 47 14t18 36q0 23 -15.5 32t-64.5 14zM61 622l48 33q25 -17 44 -17t43 17l48 -33
q-12 -22 -37 -36t-54 -14t-54.5 14t-37.5 36z" />
    <glyph glyph-name="Gdotaccent" unicode="&#x120;" horiz-adv-x="343" 
d="M303 339v-339h-50l-14 46q-38 -56 -86 -56q-29 0 -55 16t-40 43q-19 35 -19 115v353q0 160 132 160q134 0 134 -174q0 -27 -2 -53h-93q2 22 2 46q0 55 -8.5 74.5t-33.5 19.5q-23 0 -30.5 -15t-7.5 -58v-353q0 -54 7 -68q9 -20 31 -20q24 0 35 25q5 14 5 63v96h-41v79h134
zM216 809v-89h-87v89h87z" />
    <glyph glyph-name="gdotaccent" unicode="&#x121;" horiz-adv-x="305" 
d="M302 504v-82q-13 4 -21 4q-12 0 -26 -9v-34v-122q0 -64 -27 -99t-76 -35q-15 0 -23 1q-25 -6 -25 -24q0 -19 24 -27q11 -4 77 -13q47 -6 74.5 -36.5t27.5 -76.5q0 -58 -42 -93t-111 -35q-64 0 -101 24t-37 66q0 49 74 87q-33 11 -46 24t-13 35q0 47 59 81q-49 37 -49 107
v144q0 52 29 82.5t77 30.5q57 0 90 -46q24 42 65 46zM179 244v144q0 37 -31 37t-31 -37v-144q0 -38 31 -38t31 38zM146 -8q-25 -13 -34.5 -24t-9.5 -27q0 -21 16 -33t43 -12q29 0 47 14t18 36q0 23 -15.5 32t-64.5 14zM196 667v-89h-87v89h87z" />
    <glyph glyph-name="Gcommaaccent" unicode="&#x122;" horiz-adv-x="343" 
d="M303 339v-339h-50l-14 46q-38 -56 -86 -56q-29 0 -55 16t-40 43q-19 35 -19 115v353q0 160 132 160q134 0 134 -174q0 -27 -2 -53h-93q2 22 2 46q0 55 -8.5 74.5t-33.5 19.5q-23 0 -30.5 -15t-7.5 -58v-353q0 -54 7 -68q9 -20 31 -20q24 0 35 25q5 14 5 63v96h-41v79h134
zM211 -47v-68l-22 -55h-47l17 55h-26v68h78z" />
    <glyph glyph-name="gcommaaccent" unicode="&#x123;" horiz-adv-x="305" 
d="M302 504v-82q-13 4 -21 4q-12 0 -26 -9v-34v-122q0 -64 -27 -99t-76 -35q-15 0 -23 1q-25 -6 -25 -24q0 -19 24 -27q11 -4 77 -13q47 -6 74.5 -36.5t27.5 -76.5q0 -58 -42 -93t-111 -35q-64 0 -101 24t-37 66q0 49 74 87q-33 11 -46 24t-13 35q0 47 59 81q-49 37 -49 107
v144q0 52 29 82.5t77 30.5q57 0 90 -46q24 42 65 46zM179 244v144q0 37 -31 37t-31 -37v-144q0 -38 31 -38t31 38zM146 -8q-25 -13 -34.5 -24t-9.5 -27q0 -21 16 -33t43 -12q29 0 47 14t18 36q0 23 -15.5 32t-64.5 14zM198 547h-91v98l39 83h50l-31 -83h33v-98z" />
    <glyph glyph-name="Hcircumflex" unicode="&#x124;" horiz-adv-x="342" 
d="M209 306h-76v-306h-93v667h93v-274h76v274h93v-667h-93v306zM79 720l45 76h94l45 -76h-70l-22 26l-22 -26h-70z" />
    <glyph glyph-name="Hbar" unicode="&#x126;" horiz-adv-x="342" 
d="M40 481h-37v67h37v119h93v-119h76v119h93v-119h35v-67h-35v-481h-93v306h-76v-306h-93v481zM133 481v-88h76v88h-76z" />
    <glyph glyph-name="hbar" unicode="&#x127;" horiz-adv-x="310" 
d="M37 555h-29v67h29v45h87v-45h69v-67h-69v-105q46 54 83 54q35 0 52 -29q14 -22 14 -88v-387h-87v387q0 37 -22 37q-16 0 -40 -20v-404h-87v555z" />
    <glyph glyph-name="Imacron" unicode="&#x12a;" horiz-adv-x="173" 
d="M133 667v-667h-93v667h93zM5 716v67h164v-67h-164z" />
    <glyph glyph-name="imacron" unicode="&#x12b;" horiz-adv-x="161" 
d="M125 497v-497h-87v497h87zM-1 574v67h164v-67h-164z" />
    <glyph glyph-name="ibreve" unicode="&#x12d;" horiz-adv-x="161" 
d="M124 497v-497h-87v497h87zM-11 622l48 33q25 -17 44 -17t43 17l48 -33q-12 -22 -37 -36t-54 -14t-54.5 14t-37.5 36z" />
    <glyph glyph-name="Iogonek" unicode="&#x12e;" horiz-adv-x="173" 
d="M134 0h-14q-27 -46 -27 -70q0 -30 32 -30q11 0 19 2v-46q-20 -4 -35 -4q-35 0 -57 17.5t-22 45.5q0 32 32 85h-22v667h94v-667z" />
    <glyph glyph-name="iogonek" unicode="&#x12f;" horiz-adv-x="161" 
d="M124 0h-11q-28 -46 -28 -70q0 -30 32 -30q11 0 20 2v-46q-20 -4 -35 -4q-36 0 -58 17.5t-22 45.5q0 32 33 85h-18v497h87v-497zM124 667v-89h-87v89h87z" />
    <glyph glyph-name="Idotaccent" unicode="&#x130;" horiz-adv-x="173" 
d="M133 667v-667h-93v667h93zM130 809v-89h-87v89h87z" />
    <glyph glyph-name="dotlessi" unicode="&#x131;" horiz-adv-x="161" 
d="M124 497v-497h-87v497h87z" />
    <glyph glyph-name="IJ" unicode="&#x132;" horiz-adv-x="375" 
d="M133 667v-667h-93v667h93zM242 667h93v-507q0 -77 -11 -103q-16 -34 -44.5 -45.5t-96.5 -11.5v92h7q30 0 41 12t11 46v517z" />
    <glyph glyph-name="ij" unicode="&#x133;" horiz-adv-x="325" 
d="M124 497v-497h-87v497h87zM124 667v-89h-87v89h87zM288 497v-497q0 -66 -5 -92t-22 -44q-25 -28 -74 -28q-17 0 -41 7v83q12 -3 17 -3q23 0 30.5 15t7.5 62v497h87zM288 667v-89h-87v89h87z" />
    <glyph glyph-name="Kcommaaccent" unicode="&#x136;" horiz-adv-x="359" 
d="M235 442l104 -442h-97l-69 315l-40 -109v-206h-93v667h93v-251l91 251h95zM218 -47v-68l-22 -55h-47l17 55h-26v68h78z" />
    <glyph glyph-name="kcommaaccent" unicode="&#x137;" horiz-adv-x="306" 
d="M208 338l82 -338h-86l-52 241l-28 -69v-172h-87v667h87v-362l66 192h82zM202 -47v-68l-22 -55h-47l17 55h-26v68h78z" />
    <glyph glyph-name="kgreenlandic" unicode="&#x138;" horiz-adv-x="501" 
d="M489 481l-207 -194l230 -287h-104l-183 230l-76 -70v-160h-87v481h87v-229l239 229h101z" />
    <glyph glyph-name="Lacute" unicode="&#x139;" horiz-adv-x="281" 
d="M40 0v667h93v-580h132v-87h-225zM62 720l46 75h97l-73 -75h-70z" />
    <glyph glyph-name="lacute" unicode="&#x13a;" horiz-adv-x="161" 
d="M37 0v667h87v-667h-87zM48 720l46 75h97l-73 -75h-70z" />
    <glyph glyph-name="Lcommaaccent" unicode="&#x13b;" horiz-adv-x="281" 
d="M40 0v667h93v-580h132v-87h-225zM191 -47v-68l-22 -55h-47l17 55h-26v68h78z" />
    <glyph glyph-name="lcommaaccent" unicode="&#x13c;" horiz-adv-x="161" 
d="M37 0v667h87v-667h-87zM119 -47v-68l-22 -55h-47l17 55h-26v68h78z" />
    <glyph glyph-name="Lcaron" unicode="&#x13d;" horiz-adv-x="281" 
d="M40 0v667h93v-580h132v-87h-225zM167 667h91v-98l-39 -83h-50l31 83h-33v98z" />
    <glyph glyph-name="lcaron" unicode="&#x13e;" horiz-adv-x="251" 
d="M37 0v667h87v-667h-87zM160 667h91v-98l-39 -83h-50l31 83h-33v98z" />
    <glyph glyph-name="Ldot" unicode="&#x13f;" horiz-adv-x="281" 
d="M40 0v667h93v-580h132v-87h-225zM248 377v-89h-87v89h87z" />
    <glyph glyph-name="ldot" unicode="&#x140;" horiz-adv-x="248" 
d="M37 0v667h87v-667h-87zM248 364v-89h-87v89h87z" />
    <glyph glyph-name="Lslash" unicode="&#x141;" horiz-adv-x="281" 
d="M40 279l-27 -20v88l27 20v300h93v-242l70 54v-88l-70 -53v-251h131v-87h-224v279z" />
    <glyph glyph-name="lslash" unicode="&#x142;" horiz-adv-x="204" 
d="M58 296l-45 -35v81l45 35v290h87v-234l46 35v-81l-46 -35v-352h-87v296z" />
    <glyph glyph-name="Nacute" unicode="&#x143;" horiz-adv-x="376" 
d="M137 720l45 75h97l-72 -75h-70zM336 667v-667h-93l-110 350v-350h-93v667h80l123 -393v393h93z" />
    <glyph glyph-name="nacute" unicode="&#x144;" horiz-adv-x="310" 
d="M37 497h85l2 -43q47 50 81 50q35 0 53 -28q14 -22 14 -86v-390h-87v387q0 37 -22 37q-15 0 -39 -20v-404h-87v497zM116 578l46 75h97l-73 -75h-70z" />
    <glyph glyph-name="Ncommaaccent" unicode="&#x145;" horiz-adv-x="376" 
d="M336 667v-667h-93l-110 350v-350h-93v667h80l123 -393v393h93zM227 -47v-68l-22 -55h-47l17 55h-26v68h78z" />
    <glyph glyph-name="ncommaaccent" unicode="&#x146;" horiz-adv-x="310" 
d="M37 497h85l2 -43q47 50 81 50q35 0 53 -28q14 -22 14 -86v-390h-87v387q0 37 -22 37q-15 0 -39 -20v-404h-87v497zM194 -47v-68l-22 -55h-47l17 55h-26v68h78z" />
    <glyph glyph-name="Ncaron" unicode="&#x147;" horiz-adv-x="376" 
d="M280 796l-45 -76h-94l-45 76h70l22 -26l22 26h70zM336 667v-667h-93l-110 350v-350h-93v667h80l123 -393v393h93z" />
    <glyph glyph-name="ncaron" unicode="&#x148;" horiz-adv-x="310" 
d="M37 497h85l2 -43q47 50 81 50q35 0 53 -28q14 -22 14 -86v-390h-87v387q0 37 -22 37q-15 0 -39 -20v-404h-87v497zM247 654l-45 -76h-94l-45 76h69l23 -26l22 26h70z" />
    <glyph glyph-name="napostrophe" unicode="&#x149;" horiz-adv-x="497" 
d="M47 667h93v-100l-42 -118h-51l34 118h-34v100zM224 497h85l2 -43q47 50 82 50t53 -28q14 -22 14 -86v-390h-87v387q0 37 -22 37q-16 0 -40 -20v-404h-87v497z" />
    <glyph glyph-name="Eng" unicode="&#x14a;" horiz-adv-x="651" 
d="M63 658h89v-137q25 58 54 89q61 64 164 64q112 0 173 -75q25 -30 34.5 -66t9.5 -98v-525q0 -50 -22 -68t-85 -18h-76v55h8q53 0 67 19.5t14 94.5v421q0 50 -8.5 79t-29.5 52q-44 47 -118 47q-48 0 -88 -22.5t-62 -62.5q-30 -53 -30 -152v-355h-94v658z" />
    <glyph glyph-name="eng" unicode="&#x14b;" horiz-adv-x="551" 
d="M62 479h81v-99q47 114 171 114q89 0 138 -57q21 -25 29.5 -55t8.5 -82v-385q0 -62 -38 -77q-15 -7 -66 -7h-69v43h7q46 0 62.5 13t16.5 50v347q0 57 -16 83q-29 53 -102 53q-37 0 -67.5 -16.5t-47.5 -45.5q-23 -40 -23 -110v-248h-85v479z" />
    <glyph glyph-name="Omacron" unicode="&#x14c;" horiz-adv-x="341" 
d="M303 498v-328q0 -60 -3.5 -81.5t-17.5 -43.5q-36 -55 -111 -55t-111 55q-14 22 -17.5 44t-3.5 81v328q0 59 3.5 81t17.5 44q36 54 111 54t111 -54q14 -22 17.5 -44t3.5 -81zM210 131v405q0 29 -9 41.5t-30 12.5q-39 0 -39 -54v-405q0 -29 9 -41.5t30 -12.5q39 0 39 54z
M89 716v67h164v-67h-164z" />
    <glyph glyph-name="omacron" unicode="&#x14d;" horiz-adv-x="308" 
d="M272 364v-231q0 -140 -118 -140q-119 0 -119 140v231q0 140 119 140q118 0 118 -140zM122 378v-259q0 -46 32 -46q31 0 31 46v259q0 46 -31 46q-32 0 -32 -46zM72 574v67h164v-67h-164z" />
    <glyph glyph-name="Ohungarumlaut" unicode="&#x150;" horiz-adv-x="341" 
d="M303 498v-328q0 -60 -3.5 -81.5t-17.5 -43.5q-36 -55 -111 -55t-111 55q-14 22 -17.5 44t-3.5 81v328q0 59 3.5 81t17.5 44q36 54 111 54t111 -54q14 -22 17.5 -44t3.5 -81zM210 131v405q0 29 -9 41.5t-30 12.5q-39 0 -39 -54v-405q0 -29 9 -41.5t30 -12.5q39 0 39 54z
M78 720l39 75h82l-61 -75h-60zM199 720l39 75h83l-62 -75h-60z" />
    <glyph glyph-name="ohungarumlaut" unicode="&#x151;" horiz-adv-x="308" 
d="M272 364v-231q0 -140 -118 -140q-119 0 -119 140v231q0 140 119 140q118 0 118 -140zM122 378v-259q0 -46 32 -46q31 0 31 46v259q0 46 -31 46q-32 0 -32 -46zM69 578l39 75h83l-62 -75h-60zM191 578l39 75h83l-62 -75h-60z" />
    <glyph glyph-name="OE" unicode="&#x152;" horiz-adv-x="463" 
d="M434 667v-87h-131v-187h92v-87h-92v-219h139v-87h-232q-56 0 -76 5q-62 15 -84 70q-11 29 -11 105v308q0 79 11 104q22 55 84 70q19 5 76 5h224zM210 580h-39q-39 0 -39 -54v-385q0 -54 39 -54h39v493z" />
    <glyph glyph-name="oe" unicode="&#x153;" horiz-adv-x="460" 
d="M336 174h87q1 -34 1 -46q0 -65 -31.5 -100t-90.5 -35q-36 0 -73 27q-21 -17 -36 -22t-42 -5q-116 0 -116 140v231q0 140 116 140q39 0 78 -24q40 24 79 24q53 0 84 -33.5t31 -90.5v-146h-150v-110q0 -51 31 -51q18 0 25 13t7 46v22v20zM122 378v-259q0 -46 32 -46t32 46
v259q0 46 -32 46t-32 -46zM273 303h63v84q0 37 -31 37q-32 0 -32 -37v-84z" />
    <glyph glyph-name="Racute" unicode="&#x154;" horiz-adv-x="348" 
d="M40 667h91q57 0 87.5 -10.5t49.5 -38.5q34 -46 34 -137q0 -63 -9 -94t-38 -68l65 -319h-100l-54 287q-14 -3 -33 -4v-283h-93v667zM133 377h13q44 0 57 25q8 15 8 89q0 54 -13 71.5t-52 17.5h-13v-203zM111 720l45 75h97l-72 -75h-70z" />
    <glyph glyph-name="racute" unicode="&#x155;" horiz-adv-x="213" 
d="M37 497h87v-62q34 72 88 69v-97q-24 4 -32 4q-56 0 -56 -74v-337h-87v497zM78 578l45 75h97l-72 -75h-70z" />
    <glyph glyph-name="Rcommaaccent" unicode="&#x156;" horiz-adv-x="348" 
d="M40 667h91q57 0 87.5 -10.5t49.5 -38.5q34 -46 34 -137q0 -63 -9 -94t-38 -68l65 -319h-100l-54 287q-14 -3 -33 -4v-283h-93v667zM133 377h13q44 0 57 25q8 15 8 89q0 54 -13 71.5t-52 17.5h-13v-203zM200 -47v-68l-22 -55h-47l17 55h-26v68h78z" />
    <glyph glyph-name="rcommaaccent" unicode="&#x157;" horiz-adv-x="213" 
d="M37 497h87v-62q34 72 88 69v-97q-24 4 -32 4q-56 0 -56 -74v-337h-87v497zM126 -47v-68l-22 -55h-47l17 55h-26v68h78z" />
    <glyph glyph-name="Rcaron" unicode="&#x158;" horiz-adv-x="348" 
d="M40 667h91q57 0 87.5 -10.5t49.5 -38.5q34 -46 34 -137q0 -63 -9 -94t-38 -68l65 -319h-100l-54 287q-14 -3 -33 -4v-283h-93v667zM133 377h13q44 0 57 25q8 15 8 89q0 54 -13 71.5t-52 17.5h-13v-203zM254 796l-45 -76h-94l-45 76h69l23 -26l22 26h70z" />
    <glyph glyph-name="rcaron" unicode="&#x159;" horiz-adv-x="213" 
d="M37 497h87v-62q34 72 89 69v-97q-24 4 -33 4q-56 0 -56 -74v-337h-87v497zM215 654l-45 -76h-94l-45 76h70l22 -26l22 26h70z" />
    <glyph glyph-name="Sacute" unicode="&#x15a;" horiz-adv-x="324" 
d="M26 193l92 4v-29q0 -52 10.5 -71.5t37.5 -19.5q42 0 42 66q0 33 -11.5 59t-45.5 72l-46 68q-43 65 -59.5 106t-16.5 85q0 66 37 105t100 39q47 0 79.5 -25.5t42.5 -71.5q5 -25 5 -83l-91 -9q0 39 -3 60q-5 42 -39 42q-39 0 -39 -62q0 -31 10 -52t56 -91l47 -68
q67 -98 67 -188q0 -67 -35.5 -103t-100.5 -36q-73 0 -111 51q-29 40 -29 116q0 20 1 36zM127 720l46 75h97l-72 -75h-71z" />
    <glyph glyph-name="sacute" unicode="&#x15b;" horiz-adv-x="274" 
d="M254 378l-83 -6v7q0 45 -29 45t-29 -47q0 -38 36 -77l35 -36q40 -42 56 -74t16 -69q0 -58 -33 -93t-87 -35t-85.5 32.5t-31.5 88.5q0 7 1 12l84 6q-1 -8 -1 -16q0 -43 33 -43q15 0 24 11.5t9 31.5q0 23 -9.5 41t-40.5 50l-34 35q-57 60 -57 137q0 125 120 125
q73 0 97 -60q9 -24 9 -66zM98 578l46 75h97l-73 -75h-70z" />
    <glyph glyph-name="Scircumflex" unicode="&#x15c;" horiz-adv-x="324" 
d="M26 193l92 4v-29q0 -52 10.5 -71.5t37.5 -19.5q42 0 42 66q0 33 -11.5 59t-45.5 72l-46 68q-43 65 -59.5 106t-16.5 85q0 66 37 105t100 39q47 0 79.5 -25.5t42.5 -71.5q5 -25 5 -83l-91 -9q0 39 -3 60q-5 42 -39 42q-39 0 -39 -62q0 -31 10 -52t56 -91l47 -68
q67 -98 67 -188q0 -67 -35.5 -103t-100.5 -36q-73 0 -111 51q-29 40 -29 116q0 20 1 36zM78 720l45 76h94l45 -76h-69l-23 26l-22 -26h-70z" />
    <glyph glyph-name="scircumflex" unicode="&#x15d;" horiz-adv-x="274" 
d="M254 378l-83 -6v7q0 45 -29 45t-29 -47q0 -38 36 -77l35 -36q40 -42 56 -74t16 -69q0 -58 -33 -93t-87 -35t-85.5 32.5t-31.5 88.5q0 7 1 12l84 6q-1 -8 -1 -16q0 -43 33 -43q15 0 24 11.5t9 31.5q0 23 -9.5 41t-40.5 50l-34 35q-57 60 -57 137q0 125 120 125
q73 0 97 -60q9 -24 9 -66zM57 578l45 76h94l45 -76h-69l-23 26l-22 -26h-70z" />
    <glyph glyph-name="Scedilla" unicode="&#x15e;" horiz-adv-x="324" 
d="M26 193l92 4v-29q0 -52 10.5 -71.5t37.5 -19.5q42 0 42 66q0 33 -11.5 59t-45.5 72l-46 68q-43 65 -59.5 106t-16.5 85q0 66 37 105t100 39q47 0 79.5 -25.5t42.5 -71.5q5 -25 5 -83l-91 -9q0 39 -3 60q-5 42 -39 42q-39 0 -39 -62q0 -31 10 -52t56 -91l47 -68
q67 -98 67 -188q0 -67 -35.5 -103t-100.5 -36q-73 0 -111 51q-29 40 -29 116q0 20 1 36zM202 -47v-68l-22 -55h-47l17 55h-26v68h78z" />
    <glyph glyph-name="scedilla" unicode="&#x15f;" horiz-adv-x="274" 
d="M254 378l-83 -6v7q0 45 -29 45t-29 -47q0 -38 36 -77l35 -36q40 -42 56 -74t16 -69q0 -58 -33 -93t-87 -35t-85.5 32.5t-31.5 88.5q0 7 1 12l84 6q-1 -8 -1 -16q0 -43 33 -43q15 0 24 11.5t9 31.5q0 23 -9.5 41t-40.5 50l-34 35q-57 60 -57 137q0 125 120 125
q73 0 97 -60q9 -24 9 -66zM176 -47v-68l-22 -55h-47l17 55h-26v68h78z" />
    <glyph glyph-name="Scaron" unicode="&#x160;" horiz-adv-x="324" 
d="M26 193l92 4v-29q0 -52 10.5 -71.5t37.5 -19.5q42 0 42 66q0 33 -11.5 59t-45.5 72l-46 68q-43 65 -59.5 106t-16.5 85q0 66 37 105t100 39q47 0 79.5 -25.5t42.5 -71.5q5 -25 5 -83l-91 -9q0 39 -3 60q-5 42 -39 42q-39 0 -39 -62q0 -31 10 -52t56 -91l47 -68
q67 -98 67 -188q0 -67 -35.5 -103t-100.5 -36q-73 0 -111 51q-29 40 -29 116q0 20 1 36zM254 796l-45 -76h-94l-45 76h70l22 -26l22 26h70z" />
    <glyph glyph-name="scaron" unicode="&#x161;" horiz-adv-x="274" 
d="M254 378l-83 -6v7q0 45 -29 45t-29 -47q0 -38 36 -77l35 -36q40 -42 56 -74t16 -69q0 -58 -33 -93t-87 -35t-85.5 32.5t-31.5 88.5q0 7 1 12l84 6q-1 -8 -1 -16q0 -43 33 -43q15 0 24 11.5t9 31.5q0 23 -9.5 41t-40.5 50l-34 35q-57 60 -57 137q0 125 120 125
q73 0 97 -60q9 -24 9 -66zM241 654l-45 -76h-94l-45 76h70l22 -26l23 26h69z" />
    <glyph glyph-name="Tcommaaccent" unicode="&#x162;" horiz-adv-x="285" 
d="M94 0v580h-87v87h271v-87h-91v-580h-93zM182 -47v-68l-22 -55h-47l17 55h-26v68h78z" />
    <glyph glyph-name="tcommaaccent" unicode="&#x163;" horiz-adv-x="213" 
d="M205 417h-61v-292q0 -46 45 -46l16 1v-80q-35 -7 -50 -7q-98 0 -98 102v322h-42v80h42v136h87v-136h61v-80zM166 -47v-68l-22 -55h-47l17 55h-26v68h78z" />
    <glyph glyph-name="Tcaron" unicode="&#x164;" horiz-adv-x="285" 
d="M94 0v580h-87v87h271v-87h-91v-580h-93zM235 796l-45 -76h-94l-45 76h69l23 -26l22 26h70z" />
    <glyph glyph-name="tcaron" unicode="&#x165;" horiz-adv-x="267" 
d="M205 417h-61v-292q0 -46 45 -46l16 1v-80q-35 -7 -50 -7q-98 0 -98 102v322h-42v80h42v136h87v-136h61v-80zM175 728h91v-98l-39 -83h-50l31 83h-33v98z" />
    <glyph glyph-name="Tbar" unicode="&#x166;" horiz-adv-x="526" 
d="M310 411h181v-67h-181v-344h-94v344h-181v67h181v176h-220v80h533v-80h-219v-176z" />
    <glyph glyph-name="tbar" unicode="&#x167;" horiz-adv-x="296" 
d="M178 341h79v-54h-79v-139q0 -50 9 -64q15 -22 55 -22q14 0 39 3v-65q-39 -4 -63 -4q-82 0 -109 43q-18 27 -18 96v152h-66v54h66v82h-86v58h86v151h87v-151h103v-58h-103v-82z" />
    <glyph glyph-name="utilde" unicode="&#x169;" horiz-adv-x="310" 
d="M272 0h-80l-7 43q-47 -50 -81 -50q-36 0 -53 28q-14 22 -14 86v390h87v-387q0 -37 22 -37q15 0 39 20v404h87v-497zM73 576v69q23 15 47 15q17 0 36 -8q29 -12 41 -12q16 0 40 18v-69q-24 -18 -40 -18q-12 0 -41 12q-19 8 -36 8q-24 0 -47 -15z" />
    <glyph glyph-name="Umacron" unicode="&#x16a;" horiz-adv-x="344" 
d="M133 667v-536q0 -54 39 -54q21 0 30 12.5t9 41.5v536h93v-498q0 -59 -3.5 -81t-17.5 -44q-36 -54 -111 -54t-111 54q-14 22 -17.5 44t-3.5 81v498h93zM90 716v67h164v-67h-164z" />
    <glyph glyph-name="umacron" unicode="&#x16b;" horiz-adv-x="310" 
d="M272 0h-80l-7 43q-47 -50 -81 -50q-36 0 -53 28q-14 22 -14 86v390h87v-387q0 -37 22 -37q15 0 39 20v404h87v-497zM73 574v67h164v-67h-164z" />
    <glyph glyph-name="ubreve" unicode="&#x16d;" horiz-adv-x="310" 
d="M272 0h-80l-7 43q-47 -50 -81 -50q-36 0 -53 28q-14 22 -14 86v390h87v-387q0 -37 22 -37q15 0 39 20v404h87v-497zM63 622l48 33q25 -17 44 -17t43 17l48 -33q-12 -22 -37 -36t-54 -14t-54.5 14t-37.5 36z" />
    <glyph glyph-name="Uring" unicode="&#x16e;" horiz-adv-x="344" 
d="M133 667v-536q0 -54 39 -54q21 0 30 12.5t9 41.5v536h93v-498q0 -59 -3.5 -81t-17.5 -44q-36 -54 -111 -54t-111 54q-14 22 -17.5 44t-3.5 81v498h93zM173 833q29 0 50.5 -20.5t21.5 -48.5q0 -30 -21 -50.5t-52 -20.5q-30 0 -51.5 20.5t-21.5 49.5t21.5 49.5t52.5 20.5z
M172 798q-15 0 -25.5 -10.5t-10.5 -24.5t10.5 -24.5t25.5 -10.5t25.5 10.5t10.5 24.5t-10.5 24.5t-25.5 10.5z" />
    <glyph glyph-name="uring" unicode="&#x16f;" horiz-adv-x="310" 
d="M272 0h-80l-7 43q-47 -50 -81 -50q-36 0 -53 28q-14 22 -14 86v390h87v-387q0 -37 22 -37q15 0 39 20v404h87v-497zM155 698q30 0 51.5 -20.5t21.5 -48.5q0 -29 -21.5 -49.5t-51.5 -20.5q-31 0 -52.5 20.5t-21.5 49.5t21.5 49t52.5 20zM155 663q-15 0 -26 -10t-11 -24
t11 -24.5t26 -10.5t25.5 10t10.5 25q0 14 -10.5 24t-25.5 10z" />
    <glyph glyph-name="Uhungarumlaut" unicode="&#x170;" horiz-adv-x="344" 
d="M133 667v-536q0 -54 39 -54q21 0 30 12.5t9 41.5v536h93v-498q0 -59 -3.5 -81t-17.5 -44q-36 -54 -111 -54t-111 54q-14 22 -17.5 44t-3.5 81v498h93zM79 720l39 75h82l-61 -75h-60zM200 720l39 75h83l-62 -75h-60z" />
    <glyph glyph-name="uhungarumlaut" unicode="&#x171;" horiz-adv-x="310" 
d="M272 0h-80l-7 43q-47 -50 -81 -50q-36 0 -53 28q-14 22 -14 86v390h87v-387q0 -37 22 -37q15 0 39 20v404h87v-497zM66 578l39 75h83l-62 -75h-60zM188 578l39 75h83l-62 -75h-60z" />
    <glyph glyph-name="Uogonek" unicode="&#x172;" horiz-adv-x="344" 
d="M304 667v-498q0 -69 -8 -96.5t-34 -51.5q-41 -62 -41 -92q0 -14 8.5 -22t22.5 -8q6 0 20 3v-47q-20 -4 -35 -4q-35 0 -57 17.5t-22 46.5q0 28 27 76q-5 -1 -12 -1q-77 0 -112 54q-14 22 -17.5 44t-3.5 81v498h93v-536q0 -54 39 -54q21 0 30 12.5t9 41.5v536h93z" />
    <glyph glyph-name="uogonek" unicode="&#x173;" horiz-adv-x="310" 
d="M272 0h-14q-28 -47 -28 -70q0 -31 32 -31q6 0 20 3v-47q-20 -4 -35 -4q-36 0 -57.5 17.5t-21.5 46.5q0 33 32 85h-8l-7 43q-47 -50 -81 -50q-36 0 -53 28q-14 22 -14 86v390h87v-387q0 -37 22 -37q15 0 39 20v404h87v-497z" />
    <glyph glyph-name="Wcircumflex" unicode="&#x174;" horiz-adv-x="467" 
d="M141 720l45 76h94l45 -76h-69l-23 26l-22 -26h-70zM105 0l-85 667h85l47 -379l45 379h73l45 -393l47 393h85l-85 -667h-81l-49 359l-44 -359h-83z" />
    <glyph glyph-name="Ycircumflex" unicode="&#x176;" horiz-adv-x="327" 
d="M71 720l45 76h94l45 -76h-69l-23 26l-22 -26h-70zM117 277l-104 390h101l51 -246l51 246h98l-104 -390v-277h-93v277z" />
    <glyph glyph-name="ycircumflex" unicode="&#x177;" horiz-adv-x="284" 
d="M50 578l45 76h95l45 -76h-70l-23 26l-22 -26h-70zM268 497l-91 -565q-17 -109 -127 -109q-10 0 -26 3v83h8q35 0 49 17t14 59q0 29 -9 87l-69 425h85l40 -292l42 292h84z" />
    <glyph glyph-name="Ydieresis" unicode="&#x178;" horiz-adv-x="327" 
d="M137 809v-89h-77v89h77zM267 809v-89h-77v89h77zM117 277l-104 390h101l51 -246l51 246h98l-104 -390v-277h-93v277z" />
    <glyph glyph-name="Zacute" unicode="&#x179;" horiz-adv-x="313" 
d="M27 0v87l166 493h-147v87h240v-87l-166 -493h166v-87h-259zM122 720l46 75h97l-73 -75h-70z" />
    <glyph glyph-name="zacute" unicode="&#x17a;" horiz-adv-x="273" 
d="M246 80v-80h-219v74l128 343h-113v80h204v-74l-124 -343h124zM107 578l45 75h97l-72 -75h-70z" />
    <glyph glyph-name="Zdotaccent" unicode="&#x17b;" horiz-adv-x="313" 
d="M27 0v87l166 493h-147v87h240v-87l-166 -493h166v-87h-259zM211 809v-89h-87v89h87z" />
    <glyph glyph-name="zdotaccent" unicode="&#x17c;" horiz-adv-x="273" 
d="M246 80v-80h-219v74l128 343h-113v80h204v-74l-124 -343h124zM191 667v-89h-87v89h87z" />
    <glyph glyph-name="Zcaron" unicode="&#x17d;" horiz-adv-x="313" 
d="M27 0v87l166 493h-147v87h240v-87l-166 -493h166v-87h-259zM257 796l-45 -76h-94l-45 76h70l22 -26l22 26h70z" />
    <glyph glyph-name="zcaron" unicode="&#x17e;" horiz-adv-x="273" 
d="M246 80v-80h-219v74l128 343h-113v80h204v-74l-124 -343h124zM241 654l-45 -76h-94l-45 76h70l22 -26l23 26h69z" />
    <glyph glyph-name="florin" unicode="&#x192;" horiz-adv-x="340" 
d="M70 -100l59 566h-39l8 81h40l6 59q12 114 110 114q8 0 32 -2l-8 -80l-12 1q-32 2 -35 -33l-7 -59h44l-8 -81h-44l-59 -566h-87z" />
    <glyph glyph-name="uni01CD" unicode="&#x1cd;" horiz-adv-x="352" 
d="M268 796l-45 -76h-94l-45 76h70l22 -26l23 26h69zM133 150l-16 -150h-90l91 667h120l87 -667h-91l-17 150h-84zM207 237l-32 309l-32 -309h64z" />
    <glyph glyph-name="uni01CE" unicode="&#x1ce;" horiz-adv-x="306" 
d="M276 0h-90q-4 14 -6 40q-31 -47 -74 -47q-76 0 -76 126q0 76 42 124q16 17 27 26t64 43l17 11v56q0 29 -5 37t-22 8q-19 0 -26 -14t-10 -59h-84q6 73 25 103q29 50 96 50q55 0 84 -30.5t29 -88.5v-305q0 -52 9 -80zM180 100v155q-35 -29 -49 -57.5t-14 -71.5
q0 -52 27 -52q19 0 36 26zM252 654l-45 -76h-94l-45 76h69l23 -26l22 26h70z" />
    <glyph glyph-name="uni01D3" unicode="&#x1d3;" horiz-adv-x="344" 
d="M133 667v-536q0 -54 39 -54q21 0 30 12.5t9 41.5v536h93v-498q0 -59 -3.5 -81t-17.5 -44q-36 -54 -111 -54t-111 54q-14 22 -17.5 44t-3.5 81v498h93zM264 796l-45 -76h-94l-45 76h70l22 -26l22 26h70z" />
    <glyph glyph-name="uni01D4" unicode="&#x1d4;" horiz-adv-x="310" 
d="M272 0h-80l-7 43q-47 -50 -81 -50q-36 0 -53 28q-14 22 -14 86v390h87v-387q0 -37 22 -37q15 0 39 20v404h87v-497zM247 654l-45 -76h-94l-45 76h69l23 -26l22 26h70z" />
    <glyph glyph-name="Gcaron" unicode="&#x1e6;" horiz-adv-x="343" 
d="M303 339v-339h-50l-14 46q-38 -56 -86 -56q-29 0 -55 16t-40 43q-19 35 -19 115v353q0 160 132 160q134 0 134 -174q0 -27 -2 -53h-93q2 22 2 46q0 55 -8.5 74.5t-33.5 19.5q-23 0 -30.5 -15t-7.5 -58v-353q0 -54 7 -68q9 -20 31 -20q24 0 35 25q5 14 5 63v96h-41v79h134
zM264 796l-45 -76h-94l-45 76h70l22 -26l22 26h70z" />
    <glyph glyph-name="gcaron" unicode="&#x1e7;" horiz-adv-x="305" 
d="M302 504v-82q-13 4 -21 4q-12 0 -26 -9v-34v-122q0 -64 -27 -99t-76 -35q-15 0 -23 1q-25 -6 -25 -24q0 -19 24 -27q11 -4 77 -13q47 -6 74.5 -36.5t27.5 -76.5q0 -58 -42 -93t-111 -35q-64 0 -101 24t-37 66q0 49 74 87q-33 11 -46 24t-13 35q0 47 59 81q-49 37 -49 107
v144q0 52 29 82.5t77 30.5q57 0 90 -46q24 42 65 46zM179 244v144q0 37 -31 37t-31 -37v-144q0 -38 31 -38t31 38zM146 -8q-25 -13 -34.5 -24t-9.5 -27q0 -21 16 -33t43 -12q29 0 47 14t18 36q0 23 -15.5 32t-64.5 14zM245 654l-45 -76h-94l-45 76h69l23 -26l22 26h70z" />
    <glyph glyph-name="uni01F4" unicode="&#x1f4;" horiz-adv-x="343" 
d="M303 339v-339h-50l-14 46q-38 -56 -86 -56q-29 0 -55 16t-40 43q-19 35 -19 115v353q0 160 132 160q134 0 134 -174q0 -27 -2 -53h-93q2 22 2 46q0 55 -8.5 74.5t-33.5 19.5q-23 0 -30.5 -15t-7.5 -58v-353q0 -54 7 -68q9 -20 31 -20q24 0 35 25q5 14 5 63v96h-41v79h134
zM136 720l45 75h97l-72 -75h-70z" />
    <glyph glyph-name="Scommaaccent" unicode="&#x218;" horiz-adv-x="324" 
d="M26 193l92 4v-29q0 -52 10.5 -71.5t37.5 -19.5q42 0 42 66q0 33 -11.5 59t-45.5 72l-46 68q-43 65 -59.5 106t-16.5 85q0 66 37 105t100 39q47 0 79.5 -25.5t42.5 -71.5q5 -25 5 -83l-91 -9q0 39 -3 60q-5 42 -39 42q-39 0 -39 -62q0 -31 10 -52t56 -91l47 -68
q67 -98 67 -188q0 -67 -35.5 -103t-100.5 -36q-73 0 -111 51q-29 40 -29 116q0 20 1 36zM202 -47v-68l-22 -55h-47l17 55h-26v68h78z" />
    <glyph glyph-name="scommaaccent" unicode="&#x219;" horiz-adv-x="274" 
d="M254 378l-83 -6v7q0 45 -29 45t-29 -47q0 -38 36 -77l35 -36q40 -42 56 -74t16 -69q0 -58 -33 -93t-87 -35t-85.5 32.5t-31.5 88.5q0 7 1 12l84 6q-1 -8 -1 -16q0 -43 33 -43q15 0 24 11.5t9 31.5q0 23 -9.5 41t-40.5 50l-34 35q-57 60 -57 137q0 125 120 125
q73 0 97 -60q9 -24 9 -66zM176 -47v-68l-22 -55h-47l17 55h-26v68h78z" />
    <glyph glyph-name="afii57929" unicode="&#x2bc;" horiz-adv-x="187" 
d="M47 667h93v-100l-42 -118h-51l34 118h-34v100z" />
    <glyph glyph-name="circumflex" unicode="&#x2c6;" 
d="M158 578l45 76h94l45 -76h-70l-22 26l-22 -26h-70z" />
    <glyph glyph-name="caron" unicode="&#x2c7;" 
d="M342 654l-45 -76h-94l-45 76h70l22 -26l22 26h70z" />
    <glyph glyph-name="uni02C9" unicode="&#x2c9;" 
d="M168 574v67h164v-67h-164z" />
    <glyph glyph-name="breve" unicode="&#x2d8;" 
d="M158 622l48 33q25 -17 44 -17t43 17l48 -33q-12 -22 -37 -36t-54 -14t-54.5 14t-37.5 36z" />
    <glyph glyph-name="dotaccent" unicode="&#x2d9;" 
d="M294 667v-89h-87v89h87z" />
    <glyph glyph-name="ring" unicode="&#x2da;" 
d="M251 698q30 0 51.5 -20.5t21.5 -48.5q0 -29 -21.5 -49.5t-51.5 -20.5q-31 0 -52.5 20.5t-21.5 49.5t21.5 49t52.5 20zM251 663q-15 0 -26 -10t-11 -24t11 -24.5t26 -10.5t25.5 10t10.5 25q0 14 -10.5 24t-25.5 10z" />
    <glyph glyph-name="ogonek" unicode="&#x2db;" 
d="M266 9h57q-33 -55 -33 -79q0 -31 32 -31q6 0 20 3v-47q-20 -4 -35 -4q-35 0 -57 17.5t-22 46.5q0 34 38 94z" />
    <glyph glyph-name="tilde" unicode="&#x2dc;" 
d="M168 576v69q23 15 47 15q17 0 36 -8q29 -12 41 -12q16 0 40 18v-69q-24 -18 -40 -18q-12 0 -41 12q-19 8 -36 8q-24 0 -47 -15z" />
    <glyph glyph-name="hungarumlaut" unicode="&#x2dd;" 
d="M155 578l39 75h83l-62 -75h-60zM277 578l39 75h83l-62 -75h-60z" />
    <glyph glyph-name="anoteleia" unicode="&#x387;" horiz-adv-x="187" 
d="M47 207v100h93v-100h-93z" />
    <glyph glyph-name="Gamma" unicode="&#x393;" horiz-adv-x="508" 
d="M64 0v667h447v-79h-353v-588h-94z" />
    <glyph glyph-name="uni0394" unicode="&#x394;" horiz-adv-x="647" 
d="M3 0l274 667h92l275 -667h-641zM127 78h392l-195 482z" />
    <glyph glyph-name="Theta" unicode="&#x398;" horiz-adv-x="725" 
d="M490 377v-61h-255v61h255zM372 683q140 0 225.5 -99.5t85.5 -262.5q0 -149 -89 -243t-230 -94q-146 0 -234 95.5t-88 252.5q0 162 89 256.5t241 94.5zM366 605q-107 0 -168 -73t-61 -201q0 -125 61 -197.5t165 -72.5q101 0 163 72.5t62 190.5q0 129 -60 205t-162 76z" />
    <glyph glyph-name="Sigma" unicode="&#x3a3;" horiz-adv-x="562" 
d="M36 0v77l226 261l-224 248v81h486v-79h-367l219 -250l-221 -257h384v-81h-503z" />
    <glyph glyph-name="Phi" unicode="&#x3a6;" horiz-adv-x="684" 
d="M302 -11v81q-88 5 -143 36q-60 34 -93.5 94t-33.5 133q0 74 33.5 134t93.5 94q55 31 143 36v81h79v-81q90 -5 147 -38q58 -34 90.5 -93.5t32.5 -131.5q0 -73 -32.5 -132.5t-91.5 -93.5q-53 -33 -146 -38v-81h-79zM302 145v376q-62 -5 -101 -30q-81 -53 -81 -157
q0 -105 82 -159q38 -25 100 -30zM381 521v-376q63 7 100 31q82 53 82 158q0 82 -49 132t-133 55z" />
    <glyph glyph-name="uni03A9" unicode="&#x3a9;" horiz-adv-x="733" 
d="M33 0v78h186q-175 106 -175 287q0 133 93.5 225.5t228.5 92.5t228.5 -92.5t93.5 -225.5q0 -182 -175 -287h186v-78h-286v73q71 36 111 84q72 85 72 193q0 107 -66 180.5t-163 73.5q-98 0 -164.5 -73.5t-66.5 -180.5q0 -183 183 -277v-73h-286z" />
    <glyph glyph-name="alpha" unicode="&#x3b1;" horiz-adv-x="606" 
d="M585 480l-97 -230l113 -250h-99l-65 169q-9 -15 -17 -31q-35 -66 -60 -95q-51 -58 -124 -58q-86 0 -143.5 74t-57.5 183q0 108 58.5 180t146.5 72q75 0 126 -51q14 -14 21 -25t35 -61l14 -24l54 147h95zM413 250q-12 33 -25 63q-28 62 -57.5 88t-72.5 26q-58 0 -97 -53.5
t-39 -133.5q0 -79 38 -132t95 -53q71 0 115 88q11 22 43 107z" />
    <glyph glyph-name="beta" unicode="&#x3b2;" horiz-adv-x="519" 
d="M62 -173v621q0 66 7 100.5t26 62.5q49 71 160 71q86 0 139 -48t53 -125q0 -89 -83 -132q49 -16 73 -44q47 -53 47 -133q0 -92 -58 -151.5t-148 -59.5q-74 0 -131 47v-209h-85zM147 458v-358q49 -42 106 -42q65 0 105 42.5t40 110.5q0 59 -28.5 91.5t-94.5 47.5v50
q50 16 69.5 40t19.5 70q0 49 -30 80t-78 31q-55 0 -84 -39q-25 -34 -25 -124z" />
    <glyph glyph-name="delta" unicode="&#x3b4;" horiz-adv-x="537" 
d="M440 667v-71h-222l156 -118q44 -33 68.5 -62t38.5 -65q22 -57 22 -119q0 -111 -64 -179t-169 -68q-106 0 -170.5 69t-64.5 183q0 135 91 201q45 32 133 32h16l-180 137v60h345zM270 419q-67 0 -108 -50.5t-41 -133.5q0 -85 41 -136t109 -51q67 0 107 49.5t40 131.5
q0 89 -39.5 139.5t-108.5 50.5z" />
    <glyph glyph-name="epsilon" unicode="&#x3b5;" horiz-adv-x="464" 
d="M286 276v-52h-23q-52 0 -82 -9q-27 -7 -43 -28.5t-16 -48.5q0 -41 32.5 -66t85.5 -25q56 0 84.5 25t37.5 81h85q-9 -80 -64 -124t-147 -44q-88 0 -142.5 41t-54.5 108q0 92 103 122q-89 26 -89 103q0 59 49.5 97t126.5 38q87 0 142.5 -45t58.5 -118h-84q-1 49 -29 75.5
t-80 26.5q-44 0 -72.5 -23.5t-28.5 -60.5q0 -47 41 -64q24 -9 109 -9z" />
    <glyph glyph-name="eta" unicode="&#x3b7;" horiz-adv-x="551" 
d="M143 479v-99q47 114 172 114q88 0 137 -57q21 -25 29.5 -55t8.5 -82v-467h-87v451q0 57 -15 83q-31 53 -102 53q-37 0 -68 -16.5t-48 -45.5q-23 -40 -23 -110v-248h-85v479h81z" />
    <glyph glyph-name="uni03BC" unicode="&#x3bc;" horiz-adv-x="546" 
d="M62 -167v646h87v-267q0 -48 6.5 -72t25.5 -44q37 -39 88 -39q58 0 93.5 45.5t35.5 118.5v258h87v-479h-87v87q-41 -98 -130 -98q-75 0 -119 70v-226h-87z" />
    <glyph glyph-name="pi" unicode="&#x3c0;" horiz-adv-x="531" 
d="M68 0v411h-67v69h530v-69h-67v-411h-87v411h-222v-411h-87z" />
    <glyph glyph-name="sigma1" unicode="&#x3c2;" horiz-adv-x="475" 
d="M425 -170h-74q26 80 26 104t-12.5 36t-48.5 24l-90 28q-52 16 -74 27.5t-46 34.5q-71 68 -71 173q0 104 66 170.5t169 66.5q83 0 139 -46.5t63 -121.5h-84q-5 49 -37.5 77.5t-82.5 28.5q-63 0 -103 -44t-40 -114q0 -43 17.5 -83.5t47.5 -66.5q25 -22 97 -45l65 -20
q61 -20 81.5 -42.5t20.5 -69.5q0 -41 -29 -117z" />
    <glyph glyph-name="sigma" unicode="&#x3c3;" horiz-adv-x="541" 
d="M535 479v-67h-106q43 -43 59.5 -83t16.5 -99q0 -110 -64.5 -177.5t-169.5 -67.5q-106 0 -171 69.5t-65 183.5q0 112 66 184t170 72q39 0 79 -15h185zM271 431q-68 0 -109 -52.5t-41 -139.5q0 -89 40.5 -140.5t110.5 -51.5q68 0 108 50.5t40 137.5q0 92 -39.5 144
t-109.5 52z" />
    <glyph glyph-name="tau" unicode="&#x3c4;" horiz-adv-x="391" 
d="M400 480v-72h-160v-408h-86v408h-162v72h408z" />
    <glyph glyph-name="psi" unicode="&#x3c8;" horiz-adv-x="643" 
d="M284 -173v158q-56 5 -90.5 17.5t-64.5 40.5q-41 38 -57 91t-16 155v190h85v-187q0 -87 8.5 -127t32.5 -65q40 -41 102 -44v423h80v-423q60 5 96 44q23 24 32 65.5t9 126.5v187h86v-190q0 -103 -16 -155.5t-58 -90.5q-52 -48 -149 -58v-158h-80z" />
    <glyph glyph-name="phi1" unicode="&#x3d5;" horiz-adv-x="602" 
d="M267 -180v163q-58 4 -96 20t-70 51q-66 72 -66 183q0 107 51 168q28 33 107 73v-70q-77 -58 -77 -172q0 -129 85 -172q22 -11 66 -18v447q17 1 41 1q120 0 189.5 -70t69.5 -189q0 -108 -59 -174t-165 -77v-164h-76zM343 432v-386q39 4 81 36q61 44 61 155
q0 83 -37.5 134.5t-104.5 60.5z" />
    <glyph glyph-name="Wdieresis" unicode="&#x1e84;" horiz-adv-x="467" 
d="M207 809v-89h-77v89h77zM337 809v-89h-77v89h77zM105 0l-85 667h85l47 -379l45 379h73l45 -393l47 393h85l-85 -667h-81l-49 359l-44 -359h-83z" />
    <glyph glyph-name="uni2007" unicode="&#x2007;" horiz-adv-x="556" 
 />
    <glyph glyph-name="uni2011" unicode="&#x2011;" horiz-adv-x="125" 
d="M0 209v78h125v-78h-125z" />
    <glyph glyph-name="figuredash" unicode="&#x2012;" horiz-adv-x="340" 
d="M38 209v78h264v-78h-264z" />
    <glyph glyph-name="endash" unicode="&#x2013;" horiz-adv-x="340" 
d="M38 209v78h264v-78h-264z" />
    <glyph glyph-name="emdash" unicode="&#x2014;" horiz-adv-x="382" 
d="M0 209v78h382v-78h-382z" />
    <glyph glyph-name="afii00208" unicode="&#x2015;" horiz-adv-x="382" 
d="M0 209v78h382v-78h-382z" />
    <glyph glyph-name="underscoredbl" unicode="&#x2017;" 
d="M0 -58h500v-43h-500v43zM0 -175h500v-43h-500v43z" />
    <glyph glyph-name="quoteleft" unicode="&#x2018;" horiz-adv-x="187" 
d="M140 462h-93v100l42 118h51l-34 -118h34v-100z" />
    <glyph glyph-name="quoteright" unicode="&#x2019;" horiz-adv-x="187" 
d="M47 667h93v-100l-42 -118h-51l34 118h-34v100z" />
    <glyph glyph-name="quotesinglbase" unicode="&#x201a;" horiz-adv-x="187" 
d="M47 100h93v-100l-42 -118h-51l34 118h-34v100z" />
    <glyph glyph-name="quotedblleft" unicode="&#x201c;" horiz-adv-x="323" 
d="M277 462h-93v100l42 118h51l-34 -118h34v-100zM140 462h-93v100l42 118h51l-34 -118h34v-100z" />
    <glyph glyph-name="quotedblright" unicode="&#x201d;" horiz-adv-x="323" 
d="M47 667h93v-100l-42 -118h-51l34 118h-34v100zM184 667h93v-100l-42 -118h-51l34 118h-34v100z" />
    <glyph glyph-name="quotedblbase" unicode="&#x201e;" horiz-adv-x="323" 
d="M47 100h93v-100l-42 -118h-51l34 118h-34v100zM184 100h93v-100l-42 -118h-51l34 118h-34v100z" />
    <glyph glyph-name="dagger" unicode="&#x2020;" horiz-adv-x="340" 
d="M295 502v-75h-84v-427h-80v427h-85v75h85v165h80v-165h84z" />
    <glyph glyph-name="daggerdbl" unicode="&#x2021;" horiz-adv-x="340" 
d="M295 502v-75h-84v-174h84v-75h-84v-178h-80v178h-85v75h85v174h-85v75h85v165h80v-165h84z" />
    <glyph glyph-name="bullet" unicode="&#x2022;" horiz-adv-x="667" 
d="M337 478q55 0 95.5 -41t40.5 -97q0 -58 -40.5 -98.5t-97.5 -40.5t-98 40.5t-41 97.5q0 58 41 98.5t100 40.5z" />
    <glyph glyph-name="ellipsis" unicode="&#x2026;" horiz-adv-x="560" 
d="M47 0v100h93v-100h-93zM234 0v100h93v-100h-93zM421 0v100h93v-100h-93z" />
    <glyph glyph-name="perthousand" unicode="&#x2030;" horiz-adv-x="660" 
d="M179 579v-173q0 -47 -11 -67q-18 -29 -58 -29t-59 29q-11 20 -11 67v173q0 48 11 66q19 29 59 29q39 0 58 -29q11 -18 11 -66zM130 388v209q0 29 -20 29q-21 0 -21 -29v-209q0 -29 21 -29q20 0 20 29zM118 -33l189 733h49l-192 -733h-46zM434 262v-173q0 -47 -11 -67
q-19 -29 -59 -29t-59 29q-11 20 -11 67v173q0 48 11 66q19 29 59 29t59 -29q11 -18 11 -66zM385 71v209q0 29 -21 29t-21 -29v-209q0 -29 21 -29t21 29zM620 262v-173q0 -47 -11 -67q-18 -29 -58 -29t-59 29q-11 20 -11 67v173q0 48 11 66q19 29 59 29q39 0 58 -29
q11 -18 11 -66zM571 71v209q0 29 -20 29q-21 0 -21 -29v-209q0 -29 21 -29q20 0 20 29z" />
    <glyph glyph-name="guilsinglleft" unicode="&#x2039;" horiz-adv-x="156" 
d="M116 403v-119l-26 -34l26 -34v-119l-76 81v144z" />
    <glyph glyph-name="guilsinglright" unicode="&#x203a;" horiz-adv-x="156" 
d="M40 403l76 -81v-144l-76 -81v119l26 34l-26 34v119z" />
    <glyph glyph-name="exclamdbl" unicode="&#x203c;" horiz-adv-x="409" 
d="M146 667v-177l-22 -298h-48l-22 296v179h92zM147 126v-126h-95v126h95zM355 667v-177l-22 -298h-48l-22 296v179h92zM356 126v-126h-95v126h95z" />
    <glyph glyph-name="uni203E" unicode="&#x203e;" 
d="M0 858h500v-58h-500v58z" />
    <glyph glyph-name="fraction" unicode="&#x2044;" horiz-adv-x="85" 
d="M-77 -33l189 733h49l-192 -733h-46z" />
    <glyph glyph-name="zerosuperior" unicode="&#x2070;" horiz-adv-x="230" 
d="M29 371v193q0 55 14 76q23 33 73 33q49 0 72 -33q14 -21 14 -76v-193q0 -36 -2.5 -49t-11.5 -27q-23 -34 -72 -34q-50 0 -73 34q-9 14 -11.5 27t-2.5 49zM137 348v238q0 29 -21 29q-22 0 -22 -29v-238q0 -29 22 -29q21 0 21 29z" />
    <glyph glyph-name="foursuperior" unicode="&#x2074;" horiz-adv-x="230" 
d="M114 267v88h-95v55l96 257h64v-254h23v-58h-23v-88h-65zM116 409v151l-48 -151h48z" />
    <glyph glyph-name="fivesuperior" unicode="&#x2075;" horiz-adv-x="230" 
d="M34 385h62q1 -42 4.5 -54t16.5 -12q17 0 17 28v118q0 26 -15 26q-16 0 -25 -33h-55l6 209h144l-3 -58h-87l-3 -82q21 22 43 22q29 0 44.5 -24.5t15.5 -70.5v-90q0 -53 -19 -75q-23 -28 -66 -28q-38 0 -59.5 25t-21.5 71q0 16 1 28z" />
    <glyph glyph-name="sixsuperior" unicode="&#x2076;" horiz-adv-x="230" 
d="M195 560h-62v20q0 35 -19 35t-19 -32v-82q20 19 43 19q29 0 45 -22q17 -21 17 -80v-66q0 -43 -23 -67t-64 -24q-38 0 -60.5 23.5t-22.5 63.5v240q0 39 22 62t60 23q55 0 74 -45q9 -19 9 -68zM95 455v-116q0 -8 5.5 -14t13.5 -6q21 0 21 25v85q0 23 -3 30.5t-13 7.5
q-13 0 -24 -12z" />
    <glyph glyph-name="sevensuperior" unicode="&#x2077;" horiz-adv-x="230" 
d="M63 267l62 342h-88v58h157v-35l-63 -365h-68z" />
    <glyph glyph-name="eightsuperior" unicode="&#x2078;" horiz-adv-x="230" 
d="M167 480q21 -9 26.5 -27.5t5.5 -81.5q0 -57 -20 -83.5t-64 -26.5q-43 0 -63 26.5t-20 83.5q0 63 5.5 81.5t26.5 27.5q-18 13 -22.5 29t-4.5 63q0 52 18.5 76.5t59.5 24.5t60 -24.5t19 -77.5q0 -45 -5 -61t-22 -30zM97 591v-53q0 -29 19 -29q18 0 18 29v53q0 29 -18 29
q-19 0 -19 -29zM94 417v-68q0 -32 22 -32q21 0 21 32v68q0 32 -21 32q-22 0 -22 -32z" />
    <glyph glyph-name="ninesuperior" unicode="&#x2079;" horiz-adv-x="230" 
d="M35 374h62v-22q0 -33 19 -33t19 32v82q-20 -19 -43 -19q-29 0 -45 22q-17 21 -17 80v66q0 43 23 67t64 24q38 0 60.5 -23.5t22.5 -63.5v-240q0 -39 -22 -62t-60 -23q-54 0 -74 45q-9 19 -9 68zM135 479v116q0 20 -19 20q-21 0 -21 -25v-85q0 -23 3 -30.5t13 -7.5
q12 0 24 12z" />
    <glyph glyph-name="parenleftsuperior" unicode="&#x207d;" horiz-adv-x="187" 
d="M162 217l-45 -25q-88 128 -88 249q0 123 88 249l45 -25q-71 -110 -71 -224q0 -112 71 -224z" />
    <glyph glyph-name="parenrightsuperior" unicode="&#x207e;" horiz-adv-x="187" 
d="M24 665l45 25q88 -128 88 -249t-88 -249l-45 25q71 111 71 224q0 112 -71 224z" />
    <glyph glyph-name="zeroinferior" unicode="&#x2080;" horiz-adv-x="230" 
d="M29 104v193q0 55 14 76q23 33 73 33q49 0 72 -33q14 -21 14 -76v-193q0 -36 -2.5 -49t-11.5 -27q-23 -34 -72 -34q-50 0 -73 34q-9 14 -11.5 27t-2.5 49zM137 81v238q0 29 -21 29q-22 0 -22 -29v-238q0 -29 22 -29q21 0 21 29z" />
    <glyph glyph-name="oneinferior" unicode="&#x2081;" horiz-adv-x="230" 
d="M87 0v317h-30v44q33 17 54 39h41v-400h-65z" />
    <glyph glyph-name="twoinferior" unicode="&#x2082;" horiz-adv-x="230" 
d="M195 0h-164v50q16 28 60 114q27 53 36 81t9 60q0 44 -18 44q-13 0 -17 -13.5t-4 -56.5h-62v20q0 107 86 107q37 0 57.5 -23t20.5 -66q0 -77 -54 -180q0 -1 -5 -9.5t-17 -29t-24 -40.5h96v-58z" />
    <glyph glyph-name="threeinferior" unicode="&#x2083;" horiz-adv-x="230" 
d="M33 119h64q-1 -9 -1 -18q0 -27 4.5 -38t16.5 -11q10 0 13 7t3 29v54q0 40 -36 40q-7 0 -11 -1v57q47 1 47 39v52q0 19 -15 19q-12 0 -15.5 -7.5t-3.5 -33.5q0 -10 1 -18h-62v18q0 99 78 99q39 0 60 -26q18 -23 18 -75q0 -47 -4.5 -63t-22.5 -29q21 -9 26 -26.5t5 -82.5
q0 -60 -19 -83q-21 -27 -65 -27q-82 0 -82 98q0 14 1 27z" />
    <glyph glyph-name="fourinferior" unicode="&#x2084;" horiz-adv-x="230" 
d="M114 0v88h-95v55l96 257h64v-254h23v-58h-23v-88h-65zM116 142v151l-48 -151h48z" />
    <glyph glyph-name="fiveinferior" unicode="&#x2085;" horiz-adv-x="230" 
d="M34 118h62q1 -42 4.5 -54t16.5 -12q17 0 17 28v119q0 25 -15 25q-16 0 -25 -32h-55l6 208h144l-3 -58h-87l-3 -82q21 22 43 22q29 0 44.5 -24.5t15.5 -69.5v-91q0 -53 -19 -75q-23 -28 -66 -28q-38 0 -59.5 25t-21.5 71q0 16 1 28z" />
    <glyph glyph-name="sixinferior" unicode="&#x2086;" horiz-adv-x="230" 
d="M195 293h-62v20q0 35 -19 35t-19 -32v-82q20 19 43 19q29 0 45 -22q17 -21 17 -80v-66q0 -43 -23 -67t-64 -24q-38 0 -60.5 23.5t-22.5 63.5v240q0 39 22 62t60 23q55 0 74 -45q9 -19 9 -68zM95 188v-116q0 -8 5.5 -14t13.5 -6q21 0 21 25v85q0 23 -3 30.5t-13 7.5
q-13 0 -24 -12z" />
    <glyph glyph-name="seveninferior" unicode="&#x2087;" horiz-adv-x="230" 
d="M63 0l62 342h-88v58h157v-35l-63 -365h-68z" />
    <glyph glyph-name="eightinferior" unicode="&#x2088;" horiz-adv-x="230" 
d="M167 213q21 -9 26.5 -27.5t5.5 -81.5q0 -57 -20 -83.5t-64 -26.5q-43 0 -63 26.5t-20 83.5q0 63 5.5 81.5t26.5 27.5q-18 13 -22.5 29t-4.5 63q0 52 18.5 76.5t59.5 24.5t60 -24.5t19 -77.5q0 -45 -5 -61t-22 -30zM97 324v-53q0 -29 19 -29q18 0 18 29v53q0 29 -18 29
q-19 0 -19 -29zM94 150v-68q0 -32 22 -32q21 0 21 32v68q0 32 -21 32q-22 0 -22 -32z" />
    <glyph glyph-name="nineinferior" unicode="&#x2089;" horiz-adv-x="230" 
d="M35 107h62v-22q0 -33 19 -33t19 32v82q-20 -19 -43 -19q-29 0 -45 22q-17 21 -17 80v66q0 43 23 67t64 24q38 0 60.5 -23.5t22.5 -63.5v-240q0 -39 -22 -62t-60 -23q-54 0 -74 45q-9 19 -9 68zM135 212v116q0 20 -19 20q-21 0 -21 -25v-85q0 -23 3 -30.5t13 -7.5
q12 0 24 12z" />
    <glyph glyph-name="franc" unicode="&#x20a3;" horiz-adv-x="507" 
d="M40 667h225v-87h-132v-187h92v-87h-92v-306h-93v667zM315 497h87v-62q34 72 89 69v-97q-24 4 -33 4q-56 0 -56 -74v-337h-87v497z" />
    <glyph glyph-name="lira" unicode="&#x20a4;" horiz-adv-x="605" 
d="M361 371v-34h-111q16 -31 20 -43.5t9 -38.5h84v-35h-89q-4 -43 -22.5 -75t-60.5 -66l16 8q42 18 74 18q21 0 38.5 -4.5t79.5 -25.5q18 -7 42 -7q29 0 61 17t56 46l35 -75q-74 -72 -153 -72q-37 0 -105 25q-62 23 -92 23q-48 0 -105 -42l-49 71q43 28 69.5 71t28.5 88
h-113v35h111q-14 45 -37 82h-74v34h53q-34 64 -34 107q0 41 21.5 80t58.5 64q62 43 161 43q151 0 208 -95q30 -49 33 -140h-86q-3 82 -39.5 120.5t-111.5 38.5q-66 0 -106.5 -31.5t-40.5 -82.5q0 -35 33 -92l8 -12h129z" />
    <glyph glyph-name="peseta" unicode="&#x20a7;" horiz-adv-x="565" 
d="M297 380h34v-80h38v-54h-38v-169q0 -23 24 -23h14v-53q-23 -5 -35 -5q-65 0 -65 63v187h-26v47q-38 -22 -97 -22h-13v-271h-93v667h88q62 0 91 -9.5t49 -36.5q34 -46 34 -142q0 -59 -5 -99zM269 300v16q-8 -9 -16 -16h16zM133 357h13q41 0 53.5 21t12.5 91t-12.5 90.5
t-53.5 20.5h-13v-223zM549 223l-60 -4v7q0 24 -14 24t-14 -24q0 -22 21 -43l21 -22q46 -45 46 -86q0 -35 -21.5 -57t-56.5 -22t-56 20.5t-21 54.5q0 5 1 10l61 4q-2 -7 -2 -13q0 -22 16 -22q17 0 17 22q0 21 -29 51l-21 20q-37 38 -37 84q0 77 78 77q49 0 64 -38
q6 -12 7 -43z" />
    <glyph glyph-name="Euro" unicode="&#x20ac;" horiz-adv-x="340" 
d="M157 242v-93q0 -43 7.5 -57.5t30.5 -14.5t32 18.5t9 66.5h94q-2 -88 -35 -130t-100 -42q-131 0 -131 159v93h-65l27 67h38v31h-65l27 67h38v110q0 160 131 160q135 0 135 -173v-12h-94q0 59 -8 78.5t-33 19.5q-23 0 -30.5 -15t-7.5 -58v-110h140l-27 -67h-113v-31h102
l-27 -67h-75z" />
    <glyph glyph-name="uni2101" unicode="&#x2101;" horiz-adv-x="568" 
d="M198 -33l155 733h43l-159 -733h-39zM100 357l-10 -90h-57l57 400h76l55 -400h-58l-10 90h-53zM147 409l-21 195l-20 -195h41zM362 116l58 2q-1 -9 -1 -17q0 -55 28 -55q13 0 21.5 11.5t8.5 29.5q0 31 -37 77l-29 41q-47 68 -47 114q0 40 23.5 63.5t62.5 23.5
q30 0 50.5 -15.5t26.5 -42.5q3 -15 3 -50l-57 -5q0 18 -2 36q-3 25 -23 25q-26 0 -26 -37q0 -18 6 -30.5t35 -55.5l30 -41q42 -60 42 -104q0 -41 -25 -66.5t-66 -25.5q-40 0 -61.5 26t-21.5 73q0 13 1 23z" />
    <glyph glyph-name="afii61289" unicode="&#x2113;" 
d="M248 264q-29 -143 -29 -200q0 -25 17 -25q22 0 47 51q8 19 20 19q15 0 15 -16q0 -21 -21 -55q-34 -56 -82 -56q-73 0 -73 97q0 25 7 110q-39 -43 -52 -43q-5 0 -9.5 6.5t-4.5 13.5q0 10 18 28q23 21 56 61q41 217 89 318t111 101q32 0 50.5 -23t18.5 -62q0 -90 -68 -195
q-36 -54 -110 -130zM257 323q40 43 68 90q25 42 41.5 92.5t16.5 84.5q0 15 -7 25t-17 10q-29 0 -51 -64.5t-51 -237.5z" />
    <glyph glyph-name="trademark" unicode="&#x2122;" horiz-adv-x="492" 
d="M81 287v325h-51v55h164v-55h-52v-325h-61zM446 667v-380h-53v230l-46 -230h-29l-46 229v-229h-52v380h70l43 -183l42 183h71z" />
    <glyph glyph-name="Omega" unicode="&#x2126;" horiz-adv-x="666" 
d="M28 0v78h174q-176 103 -176 287q0 133 89.5 225.5t217.5 92.5q129 0 218.5 -92.5t89.5 -226.5q0 -182 -177 -286h175v-78h-263v73q174 95 174 276q0 107 -62.5 181t-153.5 74t-154 -74t-63 -180q0 -182 173 -277v-73h-262z" />
    <glyph glyph-name="onethird" unicode="&#x2153;" horiz-adv-x="545" 
d="M87 267v317h-30v44q33 18 54 39h41v-400h-65zM154 -33l188 733h50l-192 -733h-46zM348 119h63v-18q0 -49 20 -49q17 0 17 36v54q0 40 -36 40q-7 0 -11 -1v57q47 2 47 39v52q0 19 -16 19q-11 0 -14.5 -7.5t-3.5 -33.5v-18h-61v18q0 99 77 99q41 0 59.5 -24.5t18.5 -76.5
q0 -47 -4.5 -63t-22.5 -29q21 -9 26.5 -27.5t5.5 -81.5q0 -58 -20.5 -84t-64.5 -26q-81 0 -81 98q0 14 1 27z" />
    <glyph glyph-name="twothirds" unicode="&#x2154;" horiz-adv-x="545" 
d="M195 266h-164v50q17 30 60 114q27 53 36 81.5t9 60.5q0 44 -18 44q-13 0 -17 -13.5t-4 -56.5h-62v20q0 107 86 107q37 0 57.5 -23t20.5 -66q0 -78 -54 -181l-46 -79h96v-58zM154 -33l188 733h50l-192 -733h-46zM348 119h64q-1 -9 -1 -18q0 -27 4.5 -38t16.5 -11
q10 0 13 7t3 29v54q0 40 -36 40q-7 0 -11 -1v57q47 1 47 39v52q0 19 -15 19q-12 0 -15.5 -7.5t-3.5 -33.5q0 -10 1 -18h-62v18q0 99 78 99q39 0 60 -26q18 -23 18 -75q0 -47 -4.5 -63t-22.5 -29q21 -9 26 -26.5t5 -82.5q0 -60 -19 -83q-21 -27 -65 -27q-82 0 -82 98
q0 14 1 27z" />
    <glyph glyph-name="oneeighth" unicode="&#x215b;" horiz-adv-x="545" 
d="M87 267v317h-30v44q33 18 54 39h41v-400h-65zM154 -33l188 733h50l-192 -733h-46zM482 213q21 -9 26 -26.5t5 -82.5q0 -60 -20 -83q-22 -27 -63 -27q-42 0 -63 27q-20 23 -20 83q0 65 5 82.5t26 26.5q-18 13 -22.5 29t-4.5 63q0 52 18 75q21 26 61 26t61 -26
q18 -23 18 -76q0 -45 -5 -61t-22 -30zM411 324v-53q0 -29 19 -29t19 29v53q0 29 -19 29t-19 -29zM409 150v-68q0 -19 4.5 -25.5t16.5 -6.5t16.5 6.5t4.5 25.5v68q0 19 -4.5 25.5t-16.5 6.5t-16.5 -6.5t-4.5 -25.5z" />
    <glyph glyph-name="threeeighths" unicode="&#x215c;" horiz-adv-x="545" 
d="M33 386h64q-1 -9 -1 -18q0 -27 4.5 -38t16.5 -11q10 0 13 7t3 29v54q0 40 -36 40q-7 0 -11 -1v57q47 1 47 39v52q0 19 -15 19q-12 0 -15.5 -7.5t-3.5 -33.5q0 -10 1 -18h-62v18q0 99 78 99q39 0 60 -26q18 -23 18 -75q0 -47 -4.5 -63t-22.5 -29q21 -9 26 -26.5t5 -82.5
q0 -60 -19 -83q-22 -27 -65 -27q-82 0 -82 98q0 14 1 27zM153 -33l189 733h49l-192 -733h-46zM482 213q21 -9 26 -26.5t5 -82.5q0 -60 -20 -83q-22 -27 -63 -27q-42 0 -63 27q-20 23 -20 83q0 65 5 82.5t26 26.5q-18 13 -22.5 29t-4.5 63q0 52 18 75q21 26 61 26t61 -26
q18 -23 18 -76q0 -45 -5 -61t-22 -30zM411 324v-53q0 -29 19 -29t19 29v53q0 29 -19 29t-19 -29zM409 150v-68q0 -19 4.5 -25.5t16.5 -6.5t16.5 6.5t4.5 25.5v68q0 19 -4.5 25.5t-16.5 6.5t-16.5 -6.5t-4.5 -25.5z" />
    <glyph glyph-name="fiveeighths" unicode="&#x215d;" horiz-adv-x="545" 
d="M33 385h62q1 -42 4.5 -54t16.5 -12q17 0 17 28v118q0 26 -15 26q-16 0 -25 -33h-55l6 209h144l-3 -58h-87l-3 -82q21 22 43 22q29 0 44.5 -24.5t15.5 -70.5v-90q0 -53 -19 -75q-23 -28 -66 -28q-38 0 -59.5 25t-21.5 71q0 16 1 28zM154 -33l188 733h50l-192 -733h-46z
M482 213q21 -9 26.5 -27.5t5.5 -81.5q0 -57 -20 -83.5t-64 -26.5q-42 0 -63 27q-20 23 -20 83q0 65 5 82.5t26 26.5q-18 13 -22.5 29t-4.5 63q0 52 18 75q23 26 61 26q41 0 60 -24.5t19 -77.5q0 -45 -5 -61t-22 -30zM411 324v-53q0 -29 19 -29t19 29v53q0 29 -19 29t-19 -29
zM409 150v-68q0 -19 4.5 -25.5t16.5 -6.5q22 0 22 32v68q0 32 -22 32q-12 0 -16.5 -6.5t-4.5 -25.5z" />
    <glyph glyph-name="seveneighths" unicode="&#x215e;" horiz-adv-x="545" 
d="M63 267l62 342h-88v58h157v-35l-63 -365h-68zM154 -33l188 733h50l-192 -733h-46zM482 213q21 -9 26 -26.5t5 -82.5q0 -60 -20 -83q-22 -27 -63 -27q-42 0 -63 27q-20 23 -20 83q0 65 5 82.5t26 26.5q-18 13 -22.5 29t-4.5 63q0 52 18 75q21 26 61 26t61 -26
q18 -23 18 -76q0 -45 -5 -61t-22 -30zM411 324v-53q0 -29 19 -29t19 29v53q0 29 -19 29t-19 -29zM409 150v-68q0 -19 4.5 -25.5t16.5 -6.5t16.5 6.5t4.5 25.5v68q0 19 -4.5 25.5t-16.5 6.5t-16.5 -6.5t-4.5 -25.5z" />
    <glyph glyph-name="arrowleft" unicode="&#x2190;" horiz-adv-x="667" 
d="M653 363v-51h-500q15 -19 33.5 -56t18.5 -48q0 -14 -15 -14q-8 0 -22 17q-46 55 -132 103q-23 13 -23 21q0 10 16 19q62 37 87.5 57.5t57.5 58.5q8 9 16 9q15 0 15 -15q0 -29 -52 -101h500z" />
    <glyph glyph-name="arrowup" unicode="&#x2191;" horiz-adv-x="667" 
d="M360 13h-51v500q-18 -15 -55.5 -33.5t-48.5 -18.5q-14 0 -14 15q0 8 17 23q53 44 103 132q13 23 21 23q10 0 19 -17q37 -61 57.5 -87t58.5 -58q9 -8 9 -16q0 -15 -15 -15q-29 0 -101 52v-500z" />
    <glyph glyph-name="arrowright" unicode="&#x2192;" horiz-adv-x="667" 
d="M13 310v51h500q-15 20 -33.5 57t-18.5 48q0 14 15 14q8 0 22 -17q48 -57 132 -104q23 -13 23 -21q0 -10 -16 -19q-62 -38 -87.5 -58t-57.5 -58q-9 -9 -16 -9q-15 0 -15 15q0 29 52 101h-500z" />
    <glyph glyph-name="arrowdown" unicode="&#x2193;" horiz-adv-x="667" 
d="M307 653h51v-500q19 16 56 34t48 18q14 0 14 -15q0 -8 -17 -22q-55 -47 -103 -132q-13 -23 -21 -23q-10 0 -19 16q-37 62 -57 87t-59 58q-9 8 -9 16q0 15 15 15q27 0 101 -52v500z" />
    <glyph glyph-name="arrowboth" unicode="&#x2194;" horiz-adv-x="667" 
d="M513 310h-361q22 -29 37.5 -59t15.5 -42q0 -15 -15 -15q-6 0 -8.5 2.5t-15.5 16.5q-27 31 -54.5 52.5t-88.5 57.5q-10 6 -10 15q0 8 23 20q87 51 132 104q14 17 22 17q15 0 15 -14q0 -11 -18.5 -47.5t-34.5 -56.5h361q-15 19 -33.5 56t-18.5 48q0 14 15 14q8 0 22 -17
q46 -54 132 -104q23 -12 23 -20q0 -10 -16 -19q-62 -38 -87.5 -58t-57.5 -58q-8 -9 -16 -9q-15 0 -15 15q0 29 52 101z" />
    <glyph glyph-name="arrowupdn" unicode="&#x2195;" horiz-adv-x="667" 
d="M360 513v-361q29 22 59 38t42 16q15 0 15 -15q0 -6 -2.5 -8.5t-16.5 -15.5q-33 -29 -53.5 -56t-56.5 -88q-6 -10 -15 -10q-8 0 -20 23q-50 88 -104 132q-17 15 -17 23q0 15 14 15q11 0 48 -19t56 -35v361q-19 -15 -56 -33.5t-48 -18.5q-14 0 -14 15q0 8 17 23
q55 46 104 132q12 23 20 23q10 0 19 -17q37 -61 57.5 -87t58.5 -58q9 -8 9 -16q0 -15 -15 -15q-29 0 -101 52z" />
    <glyph glyph-name="arrowupdnbse" unicode="&#x21a8;" horiz-adv-x="667" 
d="M360 513v-361q29 22 59 38t42 16q15 0 15 -15q0 -6 -2.5 -8.5t-16.5 -15.5q-33 -29 -53.5 -56t-56.5 -88q-6 -10 -15 -10q-7 0 -21 23q-47 86 -103 132q-17 15 -17 23q0 15 14 15q11 0 47.5 -19t56.5 -35v361q-18 -14 -55.5 -33t-48.5 -19q-14 0 -14 15q0 8 17 23
q55 46 104 132q12 23 20 23q10 0 19 -17q37 -61 57.5 -87t58.5 -58q9 -8 9 -16q0 -15 -15 -15q-29 0 -101 52zM201 -68h264v-43h-264v43z" />
    <glyph glyph-name="partialdiff" unicode="&#x2202;" 
d="M80 598l11 72q88 -12 145.5 -36.5t105.5 -69.5q128 -119 128 -320q0 -97 -40 -157q-30 -46 -77 -71.5t-102 -25.5q-93 0 -157 65t-64 159q0 93 59.5 157t145.5 64q62 0 102 -28q11 -9 42 -42l-9 17l-24 56q-33 64 -103.5 106.5t-162.5 53.5zM256 368q-62 0 -104 -44.5
t-42 -110.5q0 -62 41.5 -107t98.5 -45q59 0 99 45t40 112q0 64 -38 107t-95 43z" />
    <glyph glyph-name="emptyset" unicode="&#x2205;" horiz-adv-x="618" 
d="M439 667l48 -25l-48 -88q113 -80 113 -204q0 -102 -72 -172.5t-176 -70.5q-46 0 -79 16l-63 -123l-48 25l61 122q-108 79 -108 202q0 102 71 172.5t173 70.5q39 0 81 -14zM416 502l-165 -330q32 -8 58 -8q77 0 132 54.5t55 130.5q0 47 -21.5 89t-58.5 64zM200 198
l166 329q-28 8 -54 8q-78 0 -133.5 -54.5t-55.5 -130.5q0 -90 77 -152z" />
    <glyph glyph-name="Delta" unicode="&#x2206;" horiz-adv-x="627" 
d="M7 0l260 667h93l261 -667h-614zM122 78h382l-190 493z" />
    <glyph glyph-name="product" unicode="&#x220f;" horiz-adv-x="667" 
d="M25 750h616v-73h-73v-854h73v-73h-228v73h74v854h-308v-854h73v-73h-227v73h74v854h-74v73z" />
    <glyph glyph-name="summation" unicode="&#x2211;" horiz-adv-x="667" 
d="M602 750v-234h-81l-9 151h-379l249 -398l-248 -437h387l5 153h85v-235h-577v95l242 423l-242 388v94h568z" />
    <glyph glyph-name="minus" unicode="&#x2212;" horiz-adv-x="340" 
d="M303 379v-66h-266v66h266z" />
    <glyph glyph-name="uni2218" unicode="&#x2218;" 
d="M253 480q55 0 95 -41t40 -98q0 -58 -40 -99t-97 -41t-97.5 41t-40.5 98q0 58 40.5 99t99.5 41zM252 432q-38 0 -65 -26.5t-27 -65.5q0 -38 27 -64.5t64 -26.5t63.5 26.5t26.5 64.5q0 37 -26.5 64.5t-62.5 27.5z" />
    <glyph glyph-name="radical" unicode="&#x221a;" horiz-adv-x="667" 
d="M667 827v-75h-188l-218 -752h-99l-80 286h-82v75h134l40 -134q6 -20 8 -32q14 -67 23 -104h4l5 21q14 57 33 135q13 57 24 88l31 105l111 387h254z" />
    <glyph glyph-name="infinity" unicode="&#x221e;" horiz-adv-x="667" 
d="M335 297q-75 -108 -166 -108q-67 0 -108.5 42.5t-41.5 110.5q0 66 42.5 108.5t108.5 42.5q90 0 163 -109q73 109 166 109q66 0 107.5 -42.5t41.5 -110.5q0 -67 -41.5 -109.5t-106.5 -42.5q-49 0 -88.5 26t-76.5 83zM366 341q60 -95 127 -95q38 0 63.5 27t25.5 68
t-25.5 67.5t-64.5 26.5q-35 0 -63 -21t-63 -73zM301 340q-59 95 -126 95q-39 0 -64.5 -26.5t-25.5 -67.5t25.5 -67.5t65.5 -26.5q35 0 63 21t62 72z" />
    <glyph glyph-name="intersection" unicode="&#x2229;" horiz-adv-x="568" 
d="M533 0h-90v315q0 95 -6 136t-23 67q-21 31 -56.5 49.5t-73.5 18.5q-45 0 -84 -23.5t-56 -61.5q-20 -44 -20 -186v-315h-90v312q0 128 9 174.5t40 86.5q72 94 200 94q72 0 131 -32.5t90 -90.5q18 -33 23.5 -78t5.5 -154v-312z" />
    <glyph glyph-name="union" unicode="&#x222a;" horiz-adv-x="568" 
d="M34 667h90v-315q0 -94 6 -135.5t23 -67.5q21 -31 56.5 -49.5t73.5 -18.5q45 0 84 23.5t56 61.5q20 44 20 186v315h90v-312q0 -128 -9 -174.5t-40 -86.5q-72 -94 -200 -94q-72 0 -131 32.5t-90 90.5q-18 34 -23.5 78t-5.5 154v312z" />
    <glyph glyph-name="integral" unicode="&#x222b;" 
d="M87 -239l18 84q20 -11 39 -11q43 0 54 36q4 16 4 92v561q1 85 2 102.5t7 38.5q11 40 47 63t86 23q29 0 68 -10l-18 -84q-20 10 -40 10q-42 0 -53 -36q-4 -13 -4 -65v-585q0 -93 -4 -122t-21 -53q-39 -53 -137 -53q-25 0 -48 9z" />
    <glyph glyph-name="uni222E" unicode="&#x222e;" 
d="M86 -239l18 84q24 -11 45 -11q42 0 53 36q4 18 4 68v145q-59 9 -100.5 60t-41.5 116t39.5 113.5t102.5 61.5v138q0 85 21 120q35 58 113 58q31 0 72 -10l-17 -84q-25 10 -46 10q-41 0 -52 -36q-4 -13 -4 -60v-136q48 -9 78 -34q66 -53 66 -141q0 -66 -41 -116.5
t-103 -60.5v-148q0 -56 -3.5 -79.5t-16.5 -44.5q-34 -60 -122 -60q-33 0 -65 11zM293 389v-261q46 12 72.5 46.5t26.5 84.5q0 48 -28 85t-71 45zM206 128v261q-43 -9 -70 -45.5t-27 -84.5q0 -47 28 -84.5t69 -46.5z" />
    <glyph glyph-name="uni2236" unicode="&#x2236;" horiz-adv-x="170" 
d="M49 444v77h72v-77h-72zM49 171v77h72v-77h-72z" />
    <glyph glyph-name="similar" unicode="&#x223c;" 
d="M59 255l-49 39q53 118 139 118q38 0 115 -38q65 -32 89 -32q26 0 46.5 16.5t41.5 55.5l49 -39q-51 -118 -143 -118q-21 0 -42.5 8t-79.5 36q-53 26 -80 26q-25 0 -44.5 -16.5t-41.5 -55.5z" />
    <glyph glyph-name="approxequal" unicode="&#x2248;" 
d="M59 348l-49 34q53 118 139 118q35 0 115 -38q65 -32 89 -32q27 0 45 13.5t43 52.5l49 -33q-51 -117 -147 -117q-20 0 -41 7.5t-77 35.5q-52 26 -81 26q-24 0 -43 -15t-42 -52zM59 167l-49 34q52 118 139 118q38 0 115 -38q65 -32 89 -32q27 0 44.5 13.5t43.5 52.5l49 -33
q-51 -117 -147 -117q-20 0 -41 7.5t-77 35.5q-52 26 -81 26q-24 0 -42.5 -14.5t-42.5 -52.5z" />
    <glyph glyph-name="notequal" unicode="&#x2260;" horiz-adv-x="340" 
d="M94 246h-57v66h82l26 67h-108v66h133l27 70l62 -23l-18 -47h62v-66h-87l-26 -67h113v-66h-138l-28 -71l-61 23z" />
    <glyph glyph-name="equivalence" unicode="&#x2261;" 
d="M33 547h433v-83h-433v83zM33 375h433v-83h-433v83zM33 203h433v-83h-433v83z" />
    <glyph glyph-name="lessequal" unicode="&#x2264;" 
d="M466 605v-88l-330 -126l330 -124v-89l-433 173v81zM466 150v-83h-433v83h433z" />
    <glyph glyph-name="greaterequal" unicode="&#x2265;" 
d="M33 178v89l330 124l-330 126v88l433 -173v-81zM33 67v83h433v-83h-433z" />
    <glyph glyph-name="dotmath" unicode="&#x22c5;" horiz-adv-x="187" 
d="M47 207v100h93v-100h-93z" />
    <glyph glyph-name="house" unicode="&#x2302;" horiz-adv-x="751" 
d="M84 0v401l291 328l292 -328v-401h-583zM135 51h481v328l-241 270l-240 -270v-328z" />
    <glyph glyph-name="revlogicalnot" unicode="&#x2310;" 
d="M125 0h-92v281h433v-83h-341v-198z" />
    <glyph glyph-name="uni2319" unicode="&#x2319;" 
d="M125 280v-197h341v-83h-433v280h92z" />
    <glyph glyph-name="integraltp" unicode="&#x2320;" 
d="M297 -250h-95v773q1 84 2 101.5t7 39.5q11 40 47 63t86 23q29 0 68 -10l-18 -84q-20 10 -40 10q-42 0 -53 -36q-4 -13 -4 -65v-815z" />
    <glyph glyph-name="integralbt" unicode="&#x2321;" 
d="M202 750h95v-772q-1 -85 -2 -102.5t-7 -38.5q-11 -40 -47 -63.5t-86 -23.5q-30 0 -68 11l18 84q20 -10 40 -10q42 0 53 36q4 13 4 65v814z" />
    <glyph glyph-name="SF100000" unicode="&#x2500;" horiz-adv-x="1000" 
d="M0 217v66h1000v-66h-1000z" />
    <glyph glyph-name="SF110000" unicode="&#x2502;" horiz-adv-x="1000" 
d="M467 -250v1000h66v-1000h-66z" />
    <glyph glyph-name="SF010000" unicode="&#x250c;" horiz-adv-x="1000" 
d="M1000 283v-66h-467v-467h-66v533h533z" />
    <glyph glyph-name="SF030000" unicode="&#x2510;" horiz-adv-x="1000" 
d="M467 217h-467v66h533v-533h-66v467z" />
    <glyph glyph-name="SF020000" unicode="&#x2514;" horiz-adv-x="1000" 
d="M533 283h467v-66h-533v533h66v-467z" />
    <glyph glyph-name="SF040000" unicode="&#x2518;" horiz-adv-x="1000" 
d="M0 217v66h467v467h66v-533h-533z" />
    <glyph glyph-name="SF080000" unicode="&#x251c;" horiz-adv-x="1000" 
d="M533 283h467v-66h-467v-467h-66v1000h66v-467z" />
    <glyph glyph-name="SF090000" unicode="&#x2524;" horiz-adv-x="1000" 
d="M467 217h-467v66h467v467h66v-1000h-66v467z" />
    <glyph glyph-name="SF060000" unicode="&#x252c;" horiz-adv-x="1000" 
d="M533 217v-467h-66v467h-467v66h1000v-66h-467z" />
    <glyph glyph-name="SF070000" unicode="&#x2534;" horiz-adv-x="1000" 
d="M467 283v467h66v-467h467v-66h-1000v66h467z" />
    <glyph glyph-name="SF050000" unicode="&#x253c;" horiz-adv-x="1000" 
d="M467 217h-467v66h467v467h66v-467h467v-66h-467v-467h-66v467z" />
    <glyph glyph-name="SF430000" unicode="&#x2550;" horiz-adv-x="1000" 
d="M0 151v66h1000v-66h-1000zM0 283v66h1000v-66h-1000z" />
    <glyph glyph-name="SF240000" unicode="&#x2551;" horiz-adv-x="1000" 
d="M401 -250v1000h66v-1000h-66zM533 -250v1000h66v-1000h-66z" />
    <glyph glyph-name="SF510000" unicode="&#x2552;" horiz-adv-x="1000" 
d="M467 -250v599h533v-66h-467v-66h467v-66h-467v-401h-66z" />
    <glyph glyph-name="SF520000" unicode="&#x2553;" horiz-adv-x="1000" 
d="M533 217h-66v-467h-66v533h599v-66h-401v-467h-66v467z" />
    <glyph glyph-name="SF390000" unicode="&#x2554;" horiz-adv-x="1000" 
d="M467 283v-533h-66v599h599v-66h-533zM599 151v-401h-66v467h467v-66h-401z" />
    <glyph glyph-name="SF220000" unicode="&#x2555;" horiz-adv-x="1000" 
d="M467 151h-467v66h467v66h-467v66h533v-599h-66v401z" />
    <glyph glyph-name="SF210000" unicode="&#x2556;" horiz-adv-x="1000" 
d="M467 217v-467h-66v467h-401v66h599v-533h-66v467h-66z" />
    <glyph glyph-name="SF250000" unicode="&#x2557;" horiz-adv-x="1000" 
d="M533 283h-533v66h599v-599h-66v533zM401 151h-401v66h467v-467h-66v401z" />
    <glyph glyph-name="SF500000" unicode="&#x2558;" horiz-adv-x="1000" 
d="M467 750h66v-401h467v-66h-467v-66h467v-66h-533v599z" />
    <glyph glyph-name="SF490000" unicode="&#x2559;" horiz-adv-x="1000" 
d="M533 283v467h66v-467h401v-66h-599v533h66v-467h66z" />
    <glyph glyph-name="SF380000" unicode="&#x255a;" horiz-adv-x="1000" 
d="M467 217h533v-66h-599v599h66v-533zM599 349h401v-66h-467v467h66v-401z" />
    <glyph glyph-name="SF280000" unicode="&#x255b;" horiz-adv-x="1000" 
d="M467 349v401h66v-599h-533v66h467v66h-467v66h467z" />
    <glyph glyph-name="SF270000" unicode="&#x255c;" horiz-adv-x="1000" 
d="M467 283h66v467h66v-533h-599v66h401v467h66v-467z" />
    <glyph glyph-name="SF260000" unicode="&#x255d;" horiz-adv-x="1000" 
d="M533 217v533h66v-599h-599v66h533zM401 349v401h66v-467h-467v66h401z" />
    <glyph glyph-name="SF360000" unicode="&#x255e;" horiz-adv-x="1000" 
d="M467 750h66v-401h467v-66h-467v-66h467v-66h-467v-401h-66v1000z" />
    <glyph glyph-name="SF370000" unicode="&#x255f;" horiz-adv-x="1000" 
d="M599 217v-467h-66v1000h66v-467h401v-66h-401zM467 -250h-66v1000h66v-1000z" />
    <glyph glyph-name="SF420000" unicode="&#x2560;" horiz-adv-x="1000" 
d="M401 -250v1000h66v-1000h-66zM599 349h401v-66h-467v467h66v-401zM599 151v-401h-66v467h467v-66h-401z" />
    <glyph glyph-name="SF190000" unicode="&#x2561;" horiz-adv-x="1000" 
d="M467 349v401h66v-1000h-66v401h-467v66h467v66h-467v66h467z" />
    <glyph glyph-name="SF200000" unicode="&#x2562;" horiz-adv-x="1000" 
d="M401 217h-401v66h401v467h66v-1000h-66v467zM533 -250v1000h66v-1000h-66z" />
    <glyph glyph-name="SF230000" unicode="&#x2563;" horiz-adv-x="1000" 
d="M599 -250h-66v1000h66v-1000zM401 349v401h66v-467h-467v66h401zM401 151h-401v66h467v-467h-66v401z" />
    <glyph glyph-name="SF470000" unicode="&#x2564;" horiz-adv-x="1000" 
d="M0 349h1000v-66h-1000v66zM467 151h-467v66h1000v-66h-467v-401h-66v401z" />
    <glyph glyph-name="SF480000" unicode="&#x2565;" horiz-adv-x="1000" 
d="M401 217h-401v66h1000v-66h-401v-467h-66v467h-66v-467h-66v467z" />
    <glyph glyph-name="SF410000" unicode="&#x2566;" horiz-adv-x="1000" 
d="M0 349h1000v-66h-1000v66zM599 151v-401h-66v467h467v-66h-401zM401 151h-401v66h467v-467h-66v401z" />
    <glyph glyph-name="SF450000" unicode="&#x2567;" horiz-adv-x="1000" 
d="M0 151v66h1000v-66h-1000zM467 349v401h66v-401h467v-66h-1000v66h467z" />
    <glyph glyph-name="SF460000" unicode="&#x2568;" horiz-adv-x="1000" 
d="M0 217v66h401v467h66v-467h66v467h66v-467h401v-66h-1000z" />
    <glyph glyph-name="SF400000" unicode="&#x2569;" horiz-adv-x="1000" 
d="M0 151v66h1000v-66h-1000zM599 349h401v-66h-467v467h66v-401zM401 349v401h66v-467h-467v66h401z" />
    <glyph glyph-name="SF540000" unicode="&#x256a;" horiz-adv-x="1000" 
d="M467 217v66h-467v66h467v401h66v-401h467v-66h-467v-66h467v-66h-467v-401h-66v401h-467v66h467z" />
    <glyph glyph-name="SF530000" unicode="&#x256b;" horiz-adv-x="1000" 
d="M401 217h-401v66h401v467h66v-467h66v467h66v-467h401v-66h-401v-467h-66v467h-66v-467h-66v467z" />
    <glyph glyph-name="SF440000" unicode="&#x256c;" horiz-adv-x="1000" 
d="M599 349h401v-66h-467v467h66v-401zM401 349v401h66v-467h-467v66h401zM599 151v-401h-66v467h467v-66h-401zM401 151h-401v66h467v-467h-66v401z" />
    <glyph glyph-name="upblock" unicode="&#x2580;" horiz-adv-x="1000" 
d="M0 250v500h1000v-500h-1000z" />
    <glyph glyph-name="dnblock" unicode="&#x2584;" horiz-adv-x="1000" 
d="M0 -250v500h1000v-500h-1000z" />
    <glyph glyph-name="block" unicode="&#x2588;" horiz-adv-x="1000" 
d="M0 -250v1000h1000v-1000h-1000z" />
    <glyph glyph-name="lfblock" unicode="&#x258c;" horiz-adv-x="1000" 
d="M0 -250v1000h500v-1000h-500z" />
    <glyph glyph-name="rtblock" unicode="&#x2590;" horiz-adv-x="1000" 
d="M500 -250v1000h500v-1000h-500z" />
    <glyph glyph-name="ltshade" unicode="&#x2591;" horiz-adv-x="1000" 
d="M0 750h100v-100h-100v100zM200 750h100v-100h-100v100zM800 750h100v-100h-100v100zM400 750h100v-100h-100v100zM600 750h100v-100h-100v100zM0 550h100v-100h-100v100zM0 350h100v-100h-100v100zM0 150h100v-100h-100v100zM0 -50h100v-100h-100v100zM200 550h100v-100
h-100v100zM200 350h100v-100h-100v100zM200 150h100v-100h-100v100zM200 -50h100v-100h-100v100zM400 550h100v-100h-100v100zM400 350h100v-100h-100v100zM400 150h100v-100h-100v100zM400 -50h100v-100h-100v100zM600 550h100v-100h-100v100zM600 350h100v-100h-100v100z
M600 150h100v-100h-100v100zM600 -50h100v-100h-100v100zM800 550h100v-100h-100v100zM800 350h100v-100h-100v100zM800 150h100v-100h-100v100zM800 -50h100v-100h-100v100z" />
    <glyph glyph-name="shade" unicode="&#x2592;" horiz-adv-x="1000" 
d="M0 750h100v-100h-100v100zM200 750h100v-100h-100v100zM800 750h100v-100h-100v100zM400 750h100v-100h-100v100zM600 750h100v-100h-100v100zM100 650h100v-100h-100v100zM300 650h100v-100h-100v100zM500 650h100v-100h-100v100zM700 650h100v-100h-100v100zM900 650
h100v-100h-100v100zM0 -50h100v-100h-100v100zM200 -50h100v-100h-100v100zM800 -50h100v-100h-100v100zM400 -50h100v-100h-100v100zM600 -50h100v-100h-100v100zM100 -150h100v-100h-100v100zM300 -150h100v-100h-100v100zM500 -150h100v-100h-100v100zM700 -150h100v-100
h-100v100zM900 -150h100v-100h-100v100zM0 150h100v-100h-100v100zM200 150h100v-100h-100v100zM800 150h100v-100h-100v100zM400 150h100v-100h-100v100zM600 150h100v-100h-100v100zM100 50h100v-100h-100v100zM300 50h100v-100h-100v100zM500 50h100v-100h-100v100z
M700 50h100v-100h-100v100zM900 50h100v-100h-100v100zM0 350h100v-100h-100v100zM200 350h100v-100h-100v100zM800 350h100v-100h-100v100zM400 350h100v-100h-100v100zM600 350h100v-100h-100v100zM100 250h100v-100h-100v100zM300 250h100v-100h-100v100zM500 250h100
v-100h-100v100zM700 250h100v-100h-100v100zM900 250h100v-100h-100v100zM0 550h100v-100h-100v100zM200 550h100v-100h-100v100zM800 550h100v-100h-100v100zM400 550h100v-100h-100v100zM600 550h100v-100h-100v100zM100 450h100v-100h-100v100zM300 450h100v-100h-100
v100zM500 450h100v-100h-100v100zM700 450h100v-100h-100v100zM900 450h100v-100h-100v100z" />
    <glyph glyph-name="dkshade" unicode="&#x2593;" horiz-adv-x="1000" 
d="M1000 -250h-1000v100h100v100h-100v100h100v100h-100v100h100v100h-100v100h100v100h-100v100h100v100h100v-100h100v100h100v-100h100v100h100v-100h100v100h100v-100h100v100h100v-1000zM900 550h-100v-100h100v100zM700 550h-100v-100h100v100zM500 550h-100v-100h100
v100zM300 550h-100v-100h100v100zM900 350h-100v-100h100v100zM700 350h-100v-100h100v100zM500 350h-100v-100h100v100zM300 350h-100v-100h100v100zM900 150h-100v-100h100v100zM700 150h-100v-100h100v100zM500 150h-100v-100h100v100zM300 150h-100v-100h100v100z
M900 -50h-100v-100h100v100zM700 -50h-100v-100h100v100zM500 -50h-100v-100h100v100zM300 -50h-100v-100h100v100z" />
    <glyph glyph-name="filledbox" unicode="&#x25a0;" horiz-adv-x="667" 
d="M667 0h-667v667h667v-667z" />
    <glyph glyph-name="uni25A1" unicode="&#x25a1;" horiz-adv-x="667" 
d="M667 0h-667v667h667v-667zM620 47v573h-573v-573h573z" />
    <glyph glyph-name="filledrect" unicode="&#x25ac;" horiz-adv-x="667" 
d="M667 333v-333h-667v333h667z" />
    <glyph glyph-name="uni25AE" unicode="&#x25ae;" horiz-adv-x="667" 
d="M500 0h-333v667h333v-667z" />
    <glyph glyph-name="uni25AF" unicode="&#x25af;" horiz-adv-x="667" 
d="M334 589q107 0 183.5 -74.5t76.5 -180.5t-76.5 -181.5t-183.5 -75.5q-110 0 -185.5 75.5t-75.5 184.5q0 104 77 178t184 74z" />
    <glyph glyph-name="triagup" unicode="&#x25b2;" horiz-adv-x="667" 
d="M633 67h-600l300 561z" />
    <glyph glyph-name="uni25B4" unicode="&#x25b4;" 
d="M466 147h-433l217 405z" />
    <glyph glyph-name="uni25B8" unicode="&#x25b8;" 
d="M71 119v433l405 -217z" />
    <glyph glyph-name="triagdn" unicode="&#x25bc;" horiz-adv-x="667" 
d="M33 600h600l-300 -561z" />
    <glyph glyph-name="uni25BE" unicode="&#x25be;" 
d="M33 520h433l-216 -405z" />
    <glyph glyph-name="uni25C2" unicode="&#x25c2;" 
d="M428 552v-433l-405 216z" />
    <glyph glyph-name="lozenge" unicode="&#x25ca;" horiz-adv-x="667" 
d="M334 693l259 -359l-259 -360l-260 360zM334 604l-197 -270l197 -271l197 271z" />
    <glyph glyph-name="circle" unicode="&#x25cb;" horiz-adv-x="667" 
d="M334 589q107 0 183.5 -74.5t76.5 -180.5t-76.5 -181.5t-183.5 -75.5q-110 0 -185.5 75.5t-75.5 184.5q0 104 77 178t184 74zM334 543q-88 0 -151 -61t-63 -146q0 -89 62 -151t152 -62q88 0 150.5 62t62.5 149q0 86 -62.5 147.5t-150.5 61.5z" />
    <glyph glyph-name="invbullet" unicode="&#x25d8;" horiz-adv-x="667" 
d="M0 0v667h667v-667h-667zM336 473q-58 0 -99 -40.5t-41 -99.5q0 -57 40.5 -98t97.5 -41t97 41t40 99q0 57 -40 98t-95 41z" />
    <glyph glyph-name="invcircle" unicode="&#x25d9;" horiz-adv-x="667" 
d="M667 0h-667v667h667v-667zM334 590q-107 0 -184 -74t-77 -178q0 -110 75.5 -185.5t185.5 -75.5q107 0 183.5 75.5t76.5 181.5t-76.5 181t-183.5 75zM334 543q88 0 150.5 -61.5t62.5 -147.5q0 -87 -62.5 -149t-150.5 -62q-90 0 -152 62t-62 151q0 85 63 146t151 61z" />
    <glyph glyph-name="openbullet" unicode="&#x25e6;" 
d="M253 480q55 0 95 -41t40 -98q0 -58 -40 -99t-97 -41t-97.5 41t-40.5 98q0 58 40.5 99t99.5 41zM252 432q-38 0 -65 -26.5t-27 -65.5q0 -38 27 -64.5t64 -26.5t63.5 26.5t26.5 64.5q0 37 -26.5 64.5t-62.5 27.5z" />
    <glyph glyph-name="smileface" unicode="&#x263a;" horiz-adv-x="667" 
d="M339 650q127 0 219 -93.5t92 -222.5q0 -131 -92.5 -224t-223.5 -93q-132 0 -224.5 93t-92.5 226q0 131 94 222.5t228 91.5zM338 608q-132 0 -215 -98q-64 -76 -64 -174q0 -116 80 -196.5t195 -80.5q114 0 194.5 80.5t80.5 194.5q0 112 -80 193t-191 81zM241 466
q17 0 30 -13t13 -31t-13 -31t-31 -13t-31 13t-13 31q0 19 13 31.5t32 12.5zM434 465q17 0 30 -13t13 -31t-13 -31t-31 -13t-31 13t-13 31q0 19 13 31.5t32 12.5zM540 372q-5 -63 -16.5 -98.5t-37.5 -66.5q-54 -66 -152 -66q-112 0 -167 87q-31 49 -39 144q12 -54 42 -89
q61 -70 164 -70q102 0 165 70q29 35 41 89z" />
    <glyph glyph-name="invsmileface" unicode="&#x263b;" horiz-adv-x="667" 
d="M339 650q127 0 219 -93.5t92 -222.5q0 -131 -92.5 -224t-223.5 -93q-132 0 -224.5 93t-92.5 226q0 131 94 222.5t228 91.5zM240 466q-18 0 -31 -12.5t-13 -31.5q0 -18 12.5 -31t31.5 -13q18 0 30.5 13t12.5 31t-13 31t-30 13zM434 466q-19 0 -32 -13t-13 -31
q0 -19 13 -32t31 -13t31 13t13 32q0 18 -13 31t-30 13zM540 372q-13 -55 -41 -88q-62 -71 -165 -71t-164 71q-29 33 -42 88q4 -62 16 -98t38 -67q56 -66 152 -66q113 0 168 87q18 29 26 59.5t12 84.5z" />
    <glyph glyph-name="sun" unicode="&#x263c;" horiz-adv-x="667" 
d="M159 472l-75 75l35 35l75 -74q52 41 114 47v105h50v-105q66 -8 113 -47l75 74l35 -35l-74 -74q38 -50 47 -114h105v-51h-105q-9 -64 -47 -114l74 -74l-35 -35l-75 74q-50 -40 -113 -47v-105h-50v105q-60 6 -114 47l-75 -74l-35 35l74 74q-40 51 -46 114h-105v51h105
q7 61 47 113zM336 493q-68 0 -115.5 -46t-47.5 -112q0 -67 46.5 -114t113.5 -47q66 0 112.5 47t46.5 113q0 65 -46 112t-110 47z" />
    <glyph glyph-name="female" unicode="&#x2640;" horiz-adv-x="667" 
d="M308 209v105q-68 10 -111.5 61.5t-43.5 120.5q0 76 52.5 129.5t126.5 53.5q75 0 128 -53.5t53 -129.5q0 -70 -44 -120.5t-113 -61.5v-105h163v-43h-163v-166h-48v166h-161v43h161zM335 632q-57 0 -96 -39.5t-39 -96.5q0 -56 39 -95.5t94 -39.5t94 39.5t39 95.5t-38.5 96
t-92.5 40z" />
    <glyph glyph-name="male" unicode="&#x2642;" horiz-adv-x="667" 
d="M570 499l-152 -151q36 -50 36 -110q0 -75 -53 -128.5t-127 -53.5t-127 53.5t-53 129.5q0 75 53 128.5t127 53.5q61 0 112 -39l151 151q-49 11 -107 40q-20 11 -20 23t13 12q3 0 20 -3q41 -9 83 -9q57 0 105 14l10 1q10 0 10 -10q0 -4 -5 -23q-10 -40 -10 -87q0 -43 9 -84
q3 -17 3 -20q0 -13 -12 -13q-7 0 -10.5 3.5t-13.5 18.5q-29 43 -42 103zM276 374q-57 0 -96 -39t-39 -96q0 -56 39 -95.5t94 -39.5t94 39.5t39 95.5t-38.5 95.5t-92.5 39.5z" />
    <glyph glyph-name="spade" unicode="&#x2660;" horiz-adv-x="667" 
d="M108 0v18q212 30 221 237q-12 -26 -13 -28q-20 -33 -56 -53.5t-76 -20.5q-49 0 -84.5 37t-35.5 88q0 81 104 169q142 115 164 239q26 -80 51.5 -117t99.5 -105q73 -67 97 -103.5t24 -83.5q0 -52 -35.5 -87.5t-86.5 -35.5q-84 0 -140 101q6 -108 59 -163t167 -74v-18h-460
z" />
    <glyph glyph-name="club" unicode="&#x2663;" horiz-adv-x="667" 
d="M561 0h-455v18q112 16 166 78.5t55 177.5q-22 -38 -34 -52q-27 -34 -66.5 -54.5t-79.5 -20.5q-59 0 -101.5 44.5t-42.5 107.5q0 62 38.5 104.5t93.5 42.5q19 0 33 -4.5t53 -24.5q-36 53 -36 100q0 59 43.5 101t104.5 42t104.5 -42t43.5 -101q0 -47 -35 -100
q40 20 53 24.5t33 4.5q55 0 93.5 -42.5t38.5 -104.5q0 -64 -42.5 -108t-103.5 -44q-37 0 -76 19t-64 50q-16 21 -38 58q0 -115 54 -177t167 -79v-18z" />
    <glyph glyph-name="heart" unicode="&#x2665;" horiz-adv-x="667" 
d="M332 -11q-16 67 -52 128.5t-134 192.5q-54 74 -72 113t-18 82q0 56 37.5 95t91.5 39q105 0 147 -130q37 131 147 131q55 0 93.5 -38.5t38.5 -92.5q0 -50 -24 -100.5t-86 -128.5q-143 -179 -169 -291z" />
    <glyph glyph-name="diamond" unicode="&#x2666;" horiz-adv-x="667" 
d="M333 693q22 -47 111.5 -173t142.5 -186q-71 -85 -141.5 -184.5t-112.5 -175.5q-71 135 -253 360q180 226 253 359z" />
    <glyph glyph-name="musicalnote" unicode="&#x266a;" horiz-adv-x="667" 
d="M306 156v511h46v-61l15 -18l52 -63q91 -109 91 -225q0 -93 -57 -162h-28q33 77 33 149q0 65 -31.5 116t-74.5 57v-304q0 -73 -42.5 -119t-109.5 -46q-32 0 -50.5 16t-18.5 45q0 45 36.5 80t84.5 35q29 0 54 -11z" />
    <glyph glyph-name="uni266C" unicode="&#x266c;" horiz-adv-x="667" 
d="M616 694v-502q0 -50 -19 -84q-20 -37 -55.5 -58.5t-77.5 -21.5q-32 0 -50 16t-18 44q0 46 36.5 80.5t83.5 34.5q29 0 54 -11v270l-329 -90v-236q0 -71 -42.5 -117t-109.5 -46q-32 0 -50.5 16t-18.5 44q0 44 36.5 78.5t84.5 34.5q26 0 54 -10v451zM241 448l329 90v70
l-329 -90v-70z" />
    <glyph glyph-name="uniEA31" unicode="&#xea31;" horiz-adv-x="485" 
d="M258 516h37q1 -19 1 -27q0 -59 -54 -59q-52 0 -52 55v130q0 56 52 56q54 0 54 -61q0 -9 -1 -19h-37q1 8 1 16q0 20 -3.5 27t-13.5 7q-9 0 -12 -5.5t-3 -20.5v-130q0 -15 3 -20t12 -5q10 0 13.5 6.5t3.5 25.5q0 13 -1 24zM243 766q81 0 138.5 -61t57.5 -148
q0 -88 -57.5 -149t-140.5 -61q-80 0 -137 62t-57 148t57.5 147.5t138.5 61.5zM243 737q-69 0 -118 -53t-49 -127t48.5 -127.5t116.5 -53.5q71 0 120 52.5t49 128.5q0 74 -49 127t-118 53z" />
    <glyph glyph-name="uniEA32" unicode="&#xea32;" horiz-adv-x="485" 
d="M194 667h36q38 0 53 -14t15 -51t-18 -57l26 -112h-38l-20 99h-17v-99h-37v234zM231 565h5q17 0 21.5 7t4.5 35q0 17 -5.5 23.5t-20.5 6.5h-5v-72zM243 766q81 0 138.5 -61t57.5 -148q0 -88 -57.5 -149t-140.5 -61q-80 0 -137 62t-57 148t57.5 147.5t138.5 61.5zM243 737
q-69 0 -118 -53t-49 -127t48.5 -127.5t116.5 -53.5q71 0 120 52.5t49 128.5q0 74 -49 127t-118 53z" />
    <glyph glyph-name="uniEA3F" unicode="&#xea3f;" horiz-adv-x="120" 
d="M14 667h91v-98l-39 -83h-50l31 83h-33v98z" />
    <glyph glyph-name="uniEA4E" unicode="&#xea4e;" 
d="M0 791h500v-83h-500v83z" />
    <glyph glyph-name="uniEA67" unicode="&#xea67;" horiz-adv-x="120" 
d="M14 667h91v-98l-39 -83h-50l31 83h-33v98z" />
    <glyph glyph-name="uniEA68" unicode="&#xea68;" 
d="M230 809v-89h-77v89h77zM346 809v-89h-77v89h77z" />
    <glyph glyph-name="uniEA6A" unicode="&#xea6a;" 
d="M235 667v-89h-77v89h77zM341 667v-89h-77v89h77z" />
    <glyph glyph-name="uniEA71" unicode="&#xea71;" horiz-adv-x="329" 
d="M301 502h27v-67h-27q-2 -70 -19 -100q-35 -64 -136 -64h-13v-271h-93v435h-33v67h33v165h88q66 0 97 -12t50 -46q25 -43 26 -107zM133 435v-78h13q37 0 50 15.5t15 62.5h-78zM133 502h78q-2 47 -15 62.5t-50 15.5h-13v-78z" />
    <glyph glyph-name="uniEA72" unicode="&#xea72;" horiz-adv-x="280" 
d="M280 353v-42h-280v42h280zM120 393v217h-21v31q21 11 38 26h29v-274h-46zM196 0h-115v33q10 18 42 79q31 60 31 97q0 30 -12 30q-9 0 -12 -9.5t-3 -38.5h-43v14q0 73 60 73q55 0 55 -61q0 -37 -14.5 -73.5t-55.5 -104.5h67v-39z" />
    <glyph glyph-name="uniEA73" unicode="&#xea73;" horiz-adv-x="280" 
d="M280 353v-42h-280v42h280zM120 393v217h-21v31q21 11 38 26h29v-274h-46zM140 0v60h-67v38l67 175h45v-174h17v-39h-17v-60h-45zM141 97v35q0 11 7 71h-6l-34 -106h33z" />
    <glyph glyph-name="uniEA74" unicode="&#xea74;" horiz-adv-x="280" 
d="M280 353v-42h-280v42h280zM83 475h44v-13q0 -33 14 -33q11 0 11 25v37q0 27 -24 27q-5 0 -8 -1v40q32 0 32 26v36q0 12 -10 12q-8 0 -10.5 -5t-2.5 -22v-13h-42q-1 5 -1 10q0 70 54 70q55 0 55 -70q0 -31 -3.5 -42t-15.5 -20q15 -6 18.5 -18t3.5 -56q0 -40 -14 -57.5
t-46 -17.5q-56 0 -56 67q0 10 1 18zM140 0v60h-67v38l67 175h45v-174h17v-39h-17v-60h-45zM141 97v35q0 11 7 71h-6l-34 -106h33z" />
    <glyph glyph-name="dotlessj" unicode="&#xf6be;" horiz-adv-x="164" 
d="M127 497v-497q0 -66 -5 -92t-22 -44q-25 -28 -74 -28q-17 0 -41 7v83q12 -3 17 -3q23 0 30.5 15t7.5 62v497h87z" />
    <glyph glyph-name="commaaccent" unicode="&#xf6c3;" 
d="M289 -47v-68l-22 -55h-47l17 55h-26v68h78z" />
    <glyph glyph-name="Acute" unicode="&#xf6c9;" 
d="M199 720l46 75h96l-72 -75h-70z" />
    <glyph glyph-name="Caron" unicode="&#xf6ca;" 
d="M342 796l-45 -76h-94l-45 76h70l22 -26l22 26h70z" />
    <glyph glyph-name="Dieresis" unicode="&#xf6cb;" 
d="M224 809v-89h-77v89h77zM354 809v-89h-77v89h77z" />
    <glyph glyph-name="Grave" unicode="&#xf6ce;" 
d="M294 720h-70l-72 75h97z" />
    <glyph glyph-name="Hungarumlaut" unicode="&#xf6cf;" 
d="M148 720l39 75h83l-62 -75h-60zM270 720l39 75h83l-62 -75h-60z" />
    <glyph glyph-name="Macron" unicode="&#xf6d0;" 
d="M168 716v67h164v-67h-164z" />
    <glyph glyph-name="commasuperior" unicode="&#xf6e2;" horiz-adv-x="150" 
d="M42 332h65v-63l-27 -72h-39l21 69h-20v66z" />
    <glyph glyph-name="periodsuperior" unicode="&#xf6e8;" horiz-adv-x="150" 
d="M42 266v66h65v-66h-65z" />
    <glyph glyph-name="one.fitted" horiz-adv-x="200" 
d="M66 0v537h-47v67q49 28 82 63h58v-667h-93z" />
    <glyph glyph-name="one.numerator" horiz-adv-x="161" 
d="M61 393v217h-21v31q21 11 38 26h29v-274h-46z" />
    <glyph glyph-name="two.numerator" horiz-adv-x="161" 
d="M136 394h-115v33q10 18 42 78q31 60 31 97q0 30 -12 30q-9 0 -12 -9.5t-3 -38.5h-43v14q0 73 60 73q55 0 55 -61q0 -38 -13.5 -72.5t-56.5 -104.5h67v-39z" />
    <glyph glyph-name="three.numerator" horiz-adv-x="161" 
d="M23 475h44v-13q0 -33 14 -33q11 0 11 25v37q0 27 -24 27q-5 0 -8 -1v40q32 0 32 26v36q0 12 -10 12q-8 0 -10.5 -5t-2.5 -22v-13h-42q-1 5 -1 10q0 70 54 70q55 0 55 -70q0 -31 -3.5 -42t-15.5 -20q15 -6 18.5 -18t3.5 -56q0 -40 -14 -57.5t-46 -17.5q-56 0 -56 67
q0 10 1 18z" />
    <glyph glyph-name="four.numerator" horiz-adv-x="161" 
d="M79 393v60h-66v38l67 176h45v-175h16v-39h-16v-60h-46zM81 490v35q0 10 7 72h-6l-35 -107h34z" />
    <glyph glyph-name="five.numerator" horiz-adv-x="161" 
d="M23 474h43v-15q0 -31 15 -31q12 0 12 20v82q0 17 -10 17q-12 0 -18 -22h-39l5 142h101l-2 -39h-61l-3 -56q15 15 30 15q43 0 43 -65v-62q0 -36 -13 -52q-17 -19 -47 -19q-27 0 -42 17t-15 48q0 12 1 20z" />
    <glyph glyph-name="six.numerator" horiz-adv-x="161" 
d="M136 594h-44q1 6 1 14q0 23 -13 23q-10 0 -11.5 -9.5t-1.5 -67.5q13 13 29 13q44 0 44 -70v-45q0 -29 -16.5 -45.5t-44.5 -16.5q-26 0 -42 16t-16 43v164q0 26 16 42t42 16q30 0 43.5 -18t13.5 -59zM67 522v-79q0 -13 13 -13q14 0 14 17v57q0 27 -11 27q-9 0 -16 -9z" />
    <glyph glyph-name="seven.numerator" horiz-adv-x="161" 
d="M44 393l43 235h-61v39h110v-23l-44 -251h-48z" />
    <glyph glyph-name="eight.numerator" horiz-adv-x="161" 
d="M117 540q14 -7 18 -20t4 -55q0 -75 -59 -75q-31 0 -44.5 18t-13.5 57q0 44 3.5 56t18.5 19q-13 8 -16 19t-3 43q0 69 55 69q29 0 42 -16.5t13 -53.5q0 -31 -3 -42t-15 -19zM67 615v-36q0 -20 13 -20t13 20v36q0 20 -13 20t-13 -20zM65 496v-46q0 -22 15 -22q16 0 16 22
v46q0 22 -16 22q-15 0 -15 -22z" />
    <glyph glyph-name="nine.numerator" horiz-adv-x="161" 
d="M25 466h44q-1 -6 -1 -14q0 -24 13 -24q10 0 11.5 10t1.5 69q-13 -13 -29 -13q-44 0 -44 70v45q0 29 16.5 45.5t44.5 16.5q26 0 42 -16t16 -43v-165q0 -26 -15.5 -42t-41.5 -16q-31 0 -44.5 18t-13.5 59zM94 538v80q0 13 -13 13q-14 0 -14 -17v-58q0 -26 11 -26q10 0 16 8
z" />
    <glyph glyph-name="zero.numerator" horiz-adv-x="161" 
d="M20 465v132q0 39 10 51q16 23 51 23q34 0 50 -23q10 -12 10 -51v-132q0 -39 -10 -52q-16 -23 -50 -23q-35 0 -51 23q-10 13 -10 52zM95 449v163q0 19 -14 19q-15 0 -15 -19v-163q0 -20 15 -20q14 0 14 20z" />
    <glyph glyph-name="one.denominator" horiz-adv-x="161" 
d="M61 0v217h-21v30q21 11 38 26h29v-273h-46z" />
    <glyph glyph-name="two.denominator" horiz-adv-x="161" 
d="M136 0h-115v33q10 18 42 79q31 60 31 97q0 30 -12 30q-9 0 -12 -9.5t-3 -38.5h-43v14q0 73 60 73q55 0 55 -61q0 -37 -14.5 -73.5t-55.5 -104.5h67v-39z" />
    <glyph glyph-name="three.denominator" horiz-adv-x="161" 
d="M23 81h44v-13q0 -33 14 -33q11 0 11 25v37q0 27 -24 27h-8v39q32 0 32 27v36q0 13 -10 13q-8 0 -10.5 -5t-2.5 -23v-13h-42q-1 5 -1 10q0 70 54 70q55 0 55 -70q0 -32 -3 -42.5t-16 -19.5q15 -7 18.5 -19t3.5 -56q0 -40 -14 -57.5t-46 -17.5q-56 0 -56 67q0 10 1 18z" />
    <glyph glyph-name="four.denominator" horiz-adv-x="161" 
d="M79 0v60h-66v38l67 175h45v-174h16v-39h-16v-60h-46zM81 97v35q0 11 7 71h-6l-35 -106h34z" />
    <glyph glyph-name="five.denominator" horiz-adv-x="161" 
d="M23 81h43v-14q0 -31 15 -31q12 0 12 19v81q0 17 -10 17q-12 0 -18 -22h-39l5 142h101l-2 -39h-61l-3 -56q15 15 30 15q43 0 43 -65v-62q0 -37 -13 -51q-17 -19 -47 -19q-27 0 -42 17t-15 48q0 12 1 20z" />
    <glyph glyph-name="six.denominator" horiz-adv-x="161" 
d="M136 200h-44q1 6 1 14q0 23 -13 23q-10 0 -11.5 -9.5t-1.5 -67.5q13 13 29 13q44 0 44 -70v-45q0 -29 -16.5 -45.5t-44.5 -16.5q-26 0 -42 16t-16 43v164q0 26 16 42t42 16q30 0 43.5 -18t13.5 -59zM67 129v-80q0 -14 13 -14q14 0 14 18v57q0 27 -11 27q-8 0 -16 -8z" />
    <glyph glyph-name="seven.denominator" horiz-adv-x="161" 
d="M44 0l43 234h-61v39h110v-23l-44 -250h-48z" />
    <glyph glyph-name="eight.denominator" horiz-adv-x="161" 
d="M117 146q14 -7 18 -20t4 -55q0 -75 -59 -75q-31 0 -44.5 18t-13.5 57q0 44 3.5 56t18.5 19q-13 9 -16 19.5t-3 42.5q0 69 55 69q29 0 42 -16.5t13 -53.5q0 -31 -3 -41.5t-15 -19.5zM67 221v-36q0 -20 13 -20t13 20v36q0 20 -13 20t-13 -20zM65 102v-46q0 -22 15 -22
q16 0 16 22v46q0 22 -16 22q-15 0 -15 -22z" />
    <glyph glyph-name="nine.denominator" horiz-adv-x="161" 
d="M25 73h44q-1 -6 -1 -14q0 -24 13 -24q10 0 11.5 9.5t1.5 68.5q-13 -13 -29 -13q-44 0 -44 70v45q0 29 16.5 45.5t44.5 16.5q26 0 42 -16t16 -43v-164q0 -26 -15.5 -42t-41.5 -16q-31 0 -44.5 18t-13.5 59zM94 145v79q0 13 -13 13q-14 0 -14 -17v-57q0 -27 11 -27
q9 0 16 9z" />
    <glyph glyph-name="zero.denominator" horiz-adv-x="161" 
d="M20 71v132q0 39 10 51q16 23 51 23q34 0 50 -23q10 -12 10 -51v-132q0 -39 -10 -52q-16 -23 -50 -23q-35 0 -51 23q-10 13 -10 52zM95 55v163q0 19 -14 19q-15 0 -15 -19v-163q0 -20 15 -20q14 0 14 20z" />
    <glyph glyph-name="oneone" horiz-adv-x="545" 
d="M87 267v317h-30v44q33 18 54 39h41v-400h-65zM154 -33l188 733h50l-192 -733h-46zM402 0v317h-30v44q32 17 54 39h41v-400h-65z" />
    <glyph glyph-name="onefifth" horiz-adv-x="545" 
d="M87 267v317h-30v44q33 18 54 39h41v-400h-65zM154 -33l188 733h50l-192 -733h-46zM348 118h62q1 -42 4.5 -54t16.5 -12q17 0 17 28v119q0 25 -15 25q-16 0 -25 -32h-55l6 208h144l-3 -58h-87l-3 -82q21 22 43 22q29 0 44.5 -24.5t15.5 -69.5v-91q0 -53 -19 -75
q-23 -28 -66 -28q-38 0 -59.5 25t-21.5 71q0 16 1 28z" />
    <glyph glyph-name="twofifth" horiz-adv-x="545" 
d="M195 266h-164v50q17 30 60 114q27 53 36 81.5t9 60.5q0 44 -18 44q-13 0 -17 -13.5t-4 -56.5h-62v20q0 107 86 107q37 0 57.5 -23t20.5 -66q0 -78 -54 -181l-46 -79h96v-58zM154 -33l188 733h50l-192 -733h-46zM349 118h62q1 -42 4.5 -54t16.5 -12q17 0 17 28v119
q0 25 -15 25q-16 0 -25 -32h-55l6 208h144l-3 -58h-87l-3 -82q21 22 43 22q29 0 44.5 -24.5t15.5 -69.5v-91q0 -53 -19 -75q-23 -28 -66 -28q-38 0 -59.5 25t-21.5 71q0 16 1 28z" />
    <glyph glyph-name="threefifth" horiz-adv-x="545" 
d="M33 386h64q-1 -9 -1 -18q0 -27 4.5 -38t16.5 -11q10 0 13 7t3 29v54q0 40 -36 40q-7 0 -11 -1v57q47 1 47 39v52q0 19 -15 19q-12 0 -15.5 -7.5t-3.5 -33.5q0 -10 1 -18h-62v18q0 99 78 99q39 0 60 -26q18 -23 18 -75q0 -47 -4.5 -63t-22.5 -29q21 -9 26 -26.5t5 -82.5
q0 -60 -19 -83q-22 -27 -65 -27q-82 0 -82 98q0 14 1 27zM153 -33l189 733h49l-192 -733h-46zM348 118h62q1 -42 4.5 -54t16.5 -12q17 0 17 28v119q0 25 -15 25q-16 0 -25 -32h-55l6 208h144l-3 -58h-87l-3 -82q21 22 43 22q29 0 44.5 -24.5t15.5 -69.5v-91q0 -53 -19 -75
q-23 -28 -66 -28q-38 0 -59.5 25t-21.5 71q0 16 1 28z" />
    <glyph glyph-name="fourfifth" horiz-adv-x="545" 
d="M114 267v88h-95v55l96 257h65v-254h22v-58h-22v-88h-66zM117 409v150l-49 -150h49zM153 -33l189 733h49l-192 -733h-46zM348 118h62q1 -42 4.5 -54t16.5 -12q17 0 17 28v119q0 25 -15 25q-16 0 -25 -32h-55l6 208h144l-3 -58h-87l-3 -82q21 22 43 22q29 0 44.5 -24.5
t15.5 -69.5v-91q0 -53 -19 -75q-23 -28 -66 -28q-38 0 -59.5 25t-21.5 71q0 16 1 28z" />
    <glyph glyph-name="onesixth" horiz-adv-x="545" 
d="M87 267v317h-30v44q33 18 54 39h41v-400h-65zM154 -33l188 733h50l-192 -733h-46zM510 293h-62v20q0 35 -19 35t-19 -32v-82q20 19 43 19q29 0 45 -22q17 -21 17 -80v-66q0 -43 -23 -67t-64 -24q-38 0 -60.5 23.5t-22.5 63.5v240q0 39 22 62t60 23q55 0 74 -45
q9 -19 9 -68zM410 188v-116q0 -8 5.5 -14t13.5 -6q21 0 21 25v85q0 23 -3 30.5t-13 7.5q-14 0 -24 -12z" />
    <glyph glyph-name="fivesixth" horiz-adv-x="545" 
d="M33 385h62q1 -42 4.5 -54t16.5 -12q17 0 17 28v118q0 26 -15 26q-16 0 -25 -33h-55l6 209h144l-3 -58h-87l-3 -82q21 22 43 22q29 0 44.5 -24.5t15.5 -70.5v-90q0 -53 -19 -75q-23 -28 -66 -28q-38 0 -59.5 25t-21.5 71q0 16 1 28zM154 -33l188 733h50l-192 -733h-46z
M510 293h-62v20q0 35 -19 35q-14 0 -17 -14q-1 -5 -1 -100q20 19 42 19q29 0 45 -22q17 -21 17 -80v-66q0 -42 -23 -66.5t-63 -24.5q-38 0 -60.5 23.5t-22.5 63.5v240q0 39 22 62t60 23q54 0 73 -45q9 -19 9 -68zM411 188v-116q0 -8 5.5 -14t13.5 -6q20 0 20 25v85
q0 23 -3 30.5t-13 7.5q-12 0 -23 -12z" />
    <glyph glyph-name="Dotaccent" 
d="M294 809v-89h-87v89h87z" />
    <glyph glyph-name="Ring" 
d="M251 833q30 0 51.5 -20.5t21.5 -48.5q0 -30 -21.5 -50.5t-51.5 -20.5q-31 0 -52.5 20.5t-21.5 49.5t21.5 49.5t52.5 20.5zM251 798q-16 0 -26.5 -10.5t-10.5 -24.5t10.5 -24.5t26.5 -10.5q15 0 25.5 10.5t10.5 24.5t-10.5 24.5t-25.5 10.5z" />
    <glyph glyph-name="Circumflex" 
d="M158 720l45 76h94l45 -76h-70l-22 26l-22 -26h-70z" />
    <glyph glyph-name="Breve" 
d="M158 763l48 34q23 -18 44 -18q20 0 43 18l48 -34q-12 -22 -37 -36t-54 -14t-54.5 14t-37.5 36z" />
    <glyph glyph-name="Tilde" 
d="M168 718v69q22 15 47 15q17 0 36 -8q29 -12 41 -12q16 0 40 17v-69q-24 -17 -40 -17q-12 0 -41 12q-19 8 -36 8q-25 0 -47 -15z" />
    <glyph glyph-name="Cedilla" 
d="M289 -47v-68l-22 -55h-47l17 55h-26v68h78z" />
    <glyph glyph-name="Ogonek" 
d="M300 9h57q-33 -55 -33 -79q0 -31 32 -31q6 0 20 3v-47q-20 -4 -35 -4q-35 0 -57 17.5t-22 46.5q0 34 38 94z" />
    <glyph glyph-name="commaaccent.cap" 
d="M289 -47v-68l-22 -55h-47l17 55h-26v68h78z" />
    </font>
</defs>
</svg>
